<svg xmlns="http://www.w3.org/2000/svg" width="79.827" height="32.062" viewBox="0 0 79.827 32.062"><path d="M-27.245-16.277A15.235,15.235,0,0,0-24.17-20.91a25.41,25.41,0,0,0,1.8-10.209v-.615h-4.715v.615A21.8,21.8,0,0,1-28.557-22.8a8.9,8.9,0,0,1-6.724,5.7V-31.652h-4.674V0h4.674V-11.4h8.938V0h4.756V-16.277ZM-6.54-11.316H-2.6v6.6h-9.8v-17.1a5.291,5.291,0,0,1,.82-2.829,5.314,5.314,0,0,1,4.51-2.5,4.85,4.85,0,0,1,1.6.246A5.124,5.124,0,0,1-2.358-24.19l.246.492,4.51-1.64-.246-.615A9.389,9.389,0,0,0-.554-29.52a10.1,10.1,0,0,0-6.519-2.419,10.045,10.045,0,0,0-6.56,2.419,9.874,9.874,0,0,0-3.567,7.3V0H2.194V-16.236H-6.54ZM35.076-31.857a12.485,12.485,0,0,0-4.305.574A7.005,7.005,0,0,0,26.957-27.8c-1.681,3.116-2.419,8.446-2.419,17.876a12.149,12.149,0,0,1-.615,4.674c-.164.369-.287.533-.9.533-.861,0-.943-.2-1.066-.451a11.941,11.941,0,0,1-.615-4.756c0-9.43-.738-14.76-2.419-17.876a7.219,7.219,0,0,0-3.854-3.485,12.361,12.361,0,0,0-4.305-.574h-4.8V0h4.8V-27.019c2.542,0,3.239.287,3.9,1.517,1.23,2.255,1.845,7.38,1.845,15.58,0,3.321.328,5.494,1.148,7.011a5.732,5.732,0,0,0,2.3,2.337,6.547,6.547,0,0,0,3.075.7,5.785,5.785,0,0,0,3.157-.861A5.48,5.48,0,0,0,28.31-3.2c.738-1.517,1.066-3.608,1.066-6.724,0-8.2.574-13.325,1.8-15.58.7-1.23,1.394-1.517,3.9-1.517V0h4.8V-31.857Z" transform="translate(39.954 31.939)" fill="#91fafa"/></svg>
