<svg xmlns="http://www.w3.org/2000/svg" version="1.1" viewBox="0 0 3000 3000" width="3000" height="3000">
<defs/><!--ITEM: Illustration component 1--><g transform="translate(1297.5 1042.5) rotate(0.0 60.0 41.25)  scale(2.676420733339281 2.719092976500445)"><svg width="44.836" height="30.341" viewBox="0.0 0.0 44.836 30.341"><path d="m39.085 3.7s0 .1 0 0c.2.6.5 3.4-2.9 6.5-3.3 3.1-9.6 6.2-21.1 8.5-1.6.3-2.6 1.8-2.3 3.4s1.8 2.6 3.4 2.3c34.5-6.9 28.2-22.5 28.2-22.5-.5-1.5-2.2-2.3-3.7-1.7-1.5.5-2.3 2.2-1.7 3.7z" fill="#00e6b3"/><path d="m8.385 16.4c5.3-1 10.2 1.2 10.9 5s-3 7.7-8.3 8.7-10.2-1.2-10.9-5c-.7-3.8 3-7.7 8.3-8.7z" fill="#142664"/></svg></g><!--ITEM: Illustration component 2--><g transform="translate(941.25 742.5) rotate(0.0 414.375 628.125)  scale(6.584226457666304 6.6345392130974385)"><svg width="125.869" height="189.35" viewBox="0.0 0.0 125.869 189.35"><path d="m54.169 79.95c0 6.6-.3 11.7-1.3 15.7-.6 2.2-1.2 3.8-2.6 4.9-1.7 1.4-4.1 1.9-7.1 2.3-4.6.7-10.4.8-17.4.8-5.2 0-9.5 4.3-9.5 9.5s4.3 9.5 9.5 9.5c18.3 0 29.5-1.8 36.3-7.2 7.3-5.7 11.2-15.9 11.2-35.5 0-5.2-4.3-9.5-9.5-9.5-5.4 0-9.6 4.3-9.6 9.5z" fill="#00e6b3"/><path d="m58.369 75.45h56.2s-2 43-2.4 52c0 .9-.8 1.6-1.7 1.6-8.3 0-46.2 0-55 0-.5 0-.9-.2-1.3-.6-.3-.4-.5-.8-.4-1.3.7-9.3 4.6-51.7 4.6-51.7z" fill="#00e6b3"/><path d="m63.169 177.05c0-6.6.3-21.5 1.3-25.4.6-2.2 1.2-3.8 2.6-4.9 1.7-1.4 4.1-1.9 7.1-2.3 2.894-.44 12.437-1.435 20.886-2.112.593-.047 1.352-.099 2.229-.153 10.95-.671 19.485-9.76 19.485-20.731v-7.254s-55.7 9.45-65.2 18.85c-6.6 6.6-7.5 24.502-7.5 44.003 0 3.076 2.501 5.206 5.552 4.812 6.933-.898 13.548 1.759 13.548-4.815z" fill="#00e6b3"/><path d="m29.269 177.05c0-6.6.3-21.5 1.3-25.4.6-2.2 1.2-3.8 2.6-4.9 1.7-1.4 4.1-1.9 7.1-2.3 4.6-.7 26-2.8 33.1-2.8 5.2 0 9.5-4.3 9.5-9.5s-4.3-9.5-9.5-9.5c-18.3 0-46.2 1-55.7 10.4-6.6 6.6-7.5 24.5-7.5 44 0 5.2 4.3 4.6 9.5 4.6 5.3 0 9.6.7 9.6-4.6z" fill="#00e6b3"/><path d="m29.269 175.05h-19s-6.1 7.1-9.8 11.3c-.5.5-.6 1.3-.3 1.9s.9 1.1 1.6 1.1h27.4z" fill="#ff2e93"/><path d="m9.369 184.45s.5.2 1.2.4c.4.1.8.2 1.2.2.3 0 .5 0 .7-.1 1-.2 1.7-.5 1.7-.5.9 0 1.6-.7 1.6-1.6s-.7-1.6-1.6-1.6c0 0-.7-.3-1.7-.5-.2 0-.5-.1-.7-.1-.4 0-.8.1-1.2.2-.7.2-1.2.4-1.2.4-.9 0-1.6.7-1.6 1.6 0 1 .7 1.6 1.6 1.6z" fill="#142664"/><path d="m12.869 178.85s.5.2 1.2.4c.4.1.8.2 1.2.2.3 0 .5 0 .7-.1 1-.2 1.7-.5 1.7-.5.9 0 1.6-.7 1.6-1.6s-.7-1.6-1.6-1.6c0 0-.7-.3-1.7-.5-.2 0-.5-.1-.7-.1-.4 0-.8.1-1.2.2-.7.2-1.2.4-1.2.4-.9 0-1.6.7-1.6 1.6.1.9.8 1.6 1.6 1.6z" fill="#142664"/><path d="m63.169 175.05h-19s-6.1 7.1-9.8 11.3c-.5.5-.6 1.3-.3 1.9s.9 1.1 1.6 1.1h27.4v-14.3z" fill="#ff2e93"/><path d="m43.269 184.45s.5.2 1.2.4c.4.1.8.2 1.2.2.3 0 .5 0 .7-.1 1-.2 1.7-.5 1.7-.5.9 0 1.6-.7 1.6-1.6s-.7-1.6-1.6-1.6c0 0-.7-.3-1.7-.5-.2 0-.5-.1-.7-.1-.4 0-.8.1-1.2.2-.7.2-1.2.4-1.2.4-.9 0-1.6.7-1.6 1.6 0 1 .7 1.6 1.6 1.6z" fill="#142664"/><path d="m46.769 178.85s.5.2 1.2.4c.4.1.8.2 1.2.2.3 0 .5 0 .7-.1 1-.2 1.7-.5 1.7-.5.9 0 1.6-.7 1.6-1.6s-.7-1.6-1.6-1.6c0 0-.7-.3-1.7-.5-.2 0-.5-.1-.7-.1-.4 0-.8.1-1.2.2-.7.2-1.2.4-1.2.4-.9 0-1.6.7-1.6 1.6.1.9.8 1.6 1.6 1.6z" fill="#142664"/><path d="m124.669 76.05c-3.6-10.5-22.8-15.8-35.6-15.8-13.4 0-30.3 3.8-34.3 16.1 7.7 10.7 19.9 11.6 33.4 11.6 13.9.1 28.8-.7 36.5-11.9z" fill="#00e6b3"/><path d="m71.069 66.35s16.7.2 30.3 0" fill="#00e6b3"/><path d="m71.069 69.55s2.3.6 6.1 1c2.5.3 5.7.6 9.1.6 2.9 0 6-.3 9.1-.6 2.1-.2 4.1-.7 6.1-1 1.8 0 3.2-1.5 3.2-3.3s-1.5-3.2-3.3-3.2c-2-.3-4-.7-6-.9-3.1-.3-6.2-.6-9.1-.6-3.4 0-6.5.3-9.1.5-3.7.4-6 .9-6 .9-1.8 0-3.3 1.4-3.3 3.2 0 1.9 1.4 3.4 3.2 3.4z" fill="#142664"/><path d="m103.269 60.75c.9-.3 2.9-3 3.3-5.6 2.4-15.9-4.3-34.6-4.3-34.6s-14.4-7.9-36.2 2c0 0-2.9 17.1 1.4 32.2.5 1.7 1.3 5.2 3.8 6.2.8.3 1.9.6 3.1.9l-.1 4.3s11.5 3.7 29 0z" fill="#ff2e93"/><path d="m75.369 63.75s.5.3 1.5.7c.6.2 1.4.4 2.3.5.7 0 1.5 0 2.4-.2.5-.1 1-.3 1.5-.5.7-.1 1.2-.7 1.2-1.4-.1-.7-.7-1.2-1.4-1.2-.5-.1-.9-.2-1.4-.3-.7-.1-1.4-.2-2-.3-.8-.1-1.5 0-2 0-.9 0-1.4.1-1.4.1-.7-.2-1.4.2-1.6.9-.2.8.2 1.5.9 1.7z" fill="#142664"/><path d="m67.769 37.55s-.2.9-.2 1.8.3 1.7.3 1.7c.1 1 .9 1.8 1.9 1.8 1-.1 1.8-.9 1.8-1.9 0 0 .2-.9.2-1.8s-.3-1.7-.3-1.7c-.1-1-.9-1.8-1.9-1.8-1.1 0-1.9.8-1.8 1.9z" fill="#142664"/><path d="m84.269 37.35s-.2.9-.2 1.8.3 1.7.3 1.7c.1 1 .9 1.8 1.9 1.8 1-.1 1.8-.9 1.8-1.9 0 0 .2-.9.2-1.8s-.3-1.7-.3-1.7c-.1-1-.9-1.8-1.9-1.8-1.1 0-1.9.8-1.8 1.9z" fill="#142664"/><path d="m74.469 52.05s.6.2 1.5.4c.5.1 1 .2 1.5.2.3 0 .6 0 .9-.1 1.2-.2 2.1-.5 2.1-.5.9 0 1.6-.7 1.6-1.6s-.7-1.6-1.6-1.6c0 0-.9-.3-2.1-.5-.3 0-.6-.1-.9-.1-.5 0-1.1.1-1.5.2-.9.2-1.5.4-1.5.4-.9 0-1.6.7-1.6 1.6s.7 1.6 1.6 1.6z" fill="#142664"/><path d="m106.769 79.95c0 6.6-.3 11.7-1.3 15.7-.6 2.2-1.2 3.8-2.6 4.9-1.7 1.4-4.1 1.9-7.1 2.3-4.6.7-10.4.8-17.4.8-5.2 0-9.5 4.3-9.5 9.5s4.3 9.5 9.5 9.5c18.3 0 31.9 1.9 38.7-3.4 7.3-5.7 8.8-19.7 8.8-39.3 0-5.2-4.3-9.5-9.5-9.5s-9.6 4.3-9.6 9.5z" fill="#00e6b3"/><path d="m104.969 83.85c-.2 1.7-.6 5.3-.9 8.2-.2 1.4-.3 2.6-.5 3.2-.2.9-.5 1.6-.8 2.3-.3.6-.6 1.1-1.1 1.5-.6.5-1.3.8-2 1-1.2.4-2.5.7-4.1.9-1.5.3-3.1.5-4.8.6-2.2.2-4.7.4-7.4.5-.9 0-1.5.7-1.5 1.6s.7 1.5 1.6 1.5c2.7.1 5.3.1 7.6 0 1.8-.1 3.5-.2 5.1-.4 1.8-.2 3.4-.5 4.8-.9 1.3-.4 2.4-1 3.3-1.7.8-.6 1.4-1.4 1.9-2.4s.9-2.3 1.3-3.7c.2-.7.3-2.2.4-3.8.2-2.9.2-6.6.3-8.3.1-.9-.6-1.6-1.4-1.7s-1.7.7-1.8 1.6z" fill="#142664"/><path d="m76.469 105.05c-8.4-3.4-19.7 8.4-11.6 19.9 8.1 11.6 22.6-15.5 11.6-19.9z" fill="#ff2e93"/><path d="m24.469 105.05c-8.4-3.4-19.7 8.4-11.6 19.9s22.6-15.5 11.6-19.9z" fill="#ff2e93"/><g fill="#142664"><path d="m60.469 80.25s-.4 2.8-.9 6.6c-.2 2-.5 4.3-.7 6.6-.1 1.3-.2 2.7-.2 4-.2 5.1-.3 9.3-.3 9.3-.1.9.6 1.6 1.4 1.7.9.1 1.6-.6 1.7-1.4 0 0 .6-4.2 1.2-9.2.2-1.3.3-2.6.4-4 .2-2.3.3-4.6.4-6.6.2-3.8.2-6.7.2-6.7.1-.9-.6-1.6-1.4-1.7-1-.1-1.8.6-1.8 1.4z"/><path d="m49.469 139.55c.3-1.1.8-2.4 1.5-3.7.6-1 1.3-2 2.3-2.9 1-1 2.1-1.9 3.7-2.7.9-.4 1.9-.9 3-1.2.8-.2 1.4-1 1.2-1.8s-1-1.4-1.8-1.2c-2.7.4-4.8 1.1-6.5 2.1-1 .5-1.8 1.2-2.5 1.9-1.1 1-1.8 2.2-2.4 3.4-1 2-1.4 4-1.5 5.7-.1.8.4 1.6 1.3 1.8.7-0 1.5-.5 1.7-1.4z"/><path d="m79.869 120.55c.9-1.6 1.6-3.3 2.1-5 .5-2 .7-4 .5-5.7-.2-1.2-.5-2.3-1.1-3.2-.9-1.5-2.2-2.7-4.1-3.3-1.1-.4-2.3-.6-3.5-.6-1.1 0-2.3.2-3.4.6-.8.2-1.3 1.1-1.1 1.9s1.1 1.3 1.9 1.1 1.6-.2 2.4-.1c.7.1 1.5.3 2.2.6 1.1.5 1.8 1.4 2.2 2.5.3.8.4 1.6.5 2.6.1 2.3-.4 5-1.4 7.4-.4.8-.1 1.7.7 2.1.7.2 1.7-.1 2.1-.9z"/><path d="m27.869 120.55c.9-1.6 1.6-3.3 2.1-5 .5-2 .7-4 .5-5.7-.2-1.2-.5-2.3-1.1-3.2-.9-1.5-2.2-2.7-4.1-3.3-1.1-.4-2.3-.6-3.5-.6-1.1 0-2.3.2-3.4.6-.8.2-1.3 1.1-1.1 1.9s1.1 1.3 1.9 1.1 1.6-.2 2.4-.1c.7.1 1.5.3 2.2.6 1.1.5 1.8 1.4 2.2 2.5.3.8.4 1.6.5 2.6.1 2.3-.4 5-1.4 7.4-.4.8-.1 1.7.7 2.1.7.2 1.7-.1 2.1-.9z"/><path d="m62.469 30.05c-4-7.7-1.7-22.1 10.5-29.9.3-.2.6-.2.9 0s.5.5.5.8c.1 1.3.3 3.1 1.2 4.9.2.3.4.5.8.5.3 0 .6-.1.8-.4 1.1-1.5 2.5-2.9 4-3.8.2-.1.5-.2.8-.1s.5.3.6.5c.6 1.6 2.1 4.4 4.8 4.7 2.9.2 6 .9 9.1 2.1 21.9 8.1 20.7 31 10.4 41.2 0 0-3.7-2-3.9-5.8-.2-4.4 2.2-9.6-1.3-10.2-2.6-.4-3.2 2.6-2.7 5.3.8 3.7-5.1 3.6-4.3-.3 1.6-7.3.7-15.7-6.9-16.7s-8 7.7-22.1 1.9c0 0-.4 3.6-.7 9.2-1-1.2-1.9-2.5-2.5-3.9z"/></g></svg></g><!--ITEM: Illustration component 3--><g transform="translate(281.25 832.5) rotate(0.0 1216.875 780.0)  scale(7.208975118483412 7.202216066481995)"><svg width="337.6" height="216.6" viewBox="0.0 0.0 337.6 216.6"><path d="m138.9 97.6h-76.1s10.5-10.5 14.3-14.3c.8-.8 2-1.3 3.1-1.3h41.3c1.2 0 2.3.5 3.1 1.3 3.8 3.8 14.3 14.3 14.3 14.3z" fill="#fff"/><path d="m66.6 93.7c-.6-.7-.6-1.7 0-2.4l9.2-9.2c1.2-1.2 2.7-1.8 4.3-1.8h41.3c1.6 0 3.2.6 4.3 1.8l8.8 8.8c.7.7.7 1.7 0 2.4-.7.7-1.7.7-2.4 0l-8.8-8.8c-.5-.5-1.2-.8-1.9-.8h-41.3c-.7 0-1.4.3-1.9.8l-9.2 9.2c-.6.7-1.7.7-2.4 0z" fill="#142664"/><path d="m223.9 17.3h26.6c1.2 0 2.3.5 3.1 1.3 4.1 4.1 16.8 16.8 16.8 16.8h-46.5z" fill="#00e6b3"/><circle cx="80.1" cy="173.9" fill="#ff2e93" r="15.2"/><path d="m21.8 184.7v-17.5c0-.6.2-1.2.7-1.6.4-.4 1-.7 1.6-.7h14.9c.6 0 1.2.2 1.6.7.4.4.7 1 .7 1.6v13.6c0 .6-.2 1.2-.7 1.6l-.1.1h31.5c1.2 0 2.2 1 2.2 2.2s-1 2.2-2.2 2.2h-48c-1.2-.1-2.2-1-2.2-2.2z" fill="#142664"/><path d="m37.9 183.1c-1.2 0-2.2-1-2.2-2.2 0-3.5 0-10.3 0-13.8 0-1.2 1-2.2 2.2-2.2h33.9.1c5 0 9 4.1 9 9.1s-4.1 9.1-9.1 9.1z" fill="#fff"/><path d="m17.5 170.3c-.4-.4-1-.7-1.6-.7-2.4 0-8.9 0-13.6 0-.9 0-1.7.5-2.1 1.4s-.2 1.8.5 2.4c2.2 2.2 4.6 4.6 5.8 5.8.4.4 1 .7 1.6.7h13.6c.9 0 1.7-.5 2.1-1.4.3-.8.2-1.8-.5-2.4-2.2-2.1-4.6-4.6-5.8-5.8z" fill="#142664"/><path d="m26.5 169.5c.6 0 1.2.2 1.6.7.4.4.7 1 .7 1.6v5.8c0 .6-.2 1.2-.7 1.6-.4.4-1 .7-1.6.7-2.2 0-5.5 0-7.1 0-.6 0-1.2-.2-1.6-.7-1.2-1.2-3.6-3.6-5.8-5.8-.6-.6-.8-1.6-.5-2.4s1.2-1.4 2.1-1.4c4.2-.1 9.8-.1 12.9-.1z" fill="#ff2e93"/><path d="m55.9 164.8 4.9 4.9c.8.8.8 2.2 0 3.1-.8.8-2.2.8-3.1 0l-7.9-7.9h6.1z" fill="#ff2e93"/><path d="m50.3 169.7-4.8-4.8h-6.2l7.9 7.9c.9.8 2.3.8 3.1 0 .8-.9.8-2.3 0-3.1z" fill="#ff2e93"/><path d="m307.1 178.6c-4.6 0-9-1.8-12.3-5.1l-16-16c-1-1-1-2.6 0-3.6s2.6-1 3.6 0l16 16c2.3 2.3 5.4 3.6 8.7 3.6s6.4-1.3 8.7-3.6 3.6-5.4 3.6-8.8v-34.5c0-.1 0-.1 0-.2 0-5.2 4.3-9.5 9.6-9.5 2 0 3.6-1.6 3.6-3.6s-1.6-3.6-3.6-3.6h-37.5c-1.4 0-2.5-1.1-2.5-2.5s1.1-2.5 2.5-2.5h37.5c4.8 0 8.6 3.9 8.6 8.6 0 4.8-3.9 8.6-8.6 8.6-2.4 0-4.5 2-4.5 4.3v.1 34.6c0 4.7-1.8 9.1-5.1 12.3-3.3 3.6-7.6 5.4-12.3 5.4z" fill="#00e6b3"/><path d="m318.6 173.6c-4.4 0-8.9-1.7-12.3-5.1l-16-16c-1-1-1-2.6 0-3.6s2.6-1 3.6 0l16 16c4.8 4.8 12.6 4.8 17.4 0 2.3-2.3 3.6-5.4 3.6-8.7s-1.3-6.4-3.6-8.7l-14.6-14.6c-3.4-3.4-5.2-8-5.1-12.8v-21.6c0-2.8-2.3-5-5-5h-15.8c-1.4 0-2.5-1.1-2.5-2.5s1.1-2.5 2.5-2.5h15.8c5.6 0 10.1 4.5 10.1 10.1v21.6c-.1 3.5 1.2 6.7 3.6 9.2l14.6 14.6c6.8 6.8 6.8 17.8 0 24.5-3.4 3.4-7.8 5.1-12.3 5.1z" fill="#142664"/><path d="m251.8 131.2c0 47.1-38.3 85.4-85.4 85.4s-85.4-38.3-85.4-85.4z" fill="#00e6b3"/><path d="m222.2 173.6h-14v23.3c0 .7.3 1.4.8 1.9s1.2.8 1.9.8h11.3z" fill="#fff"/><path d="m247.9 194.6 37.4-37.4-20.7-20.7-37.4 37.4z" fill="#ff2e93"/><path d="m230.8 35.4h39.4c4.4 0 8.6 1.7 11.7 4.8s4.8 7.3 4.8 11.7v30.6h-32.9v-22.3l-23-23z" fill="#ff2e93"/><path d="m301.4 118.2c-1.6-1.6-5.1-5.1-5.1-5.1s0-19.8 0-27.5c0-1.7-1.4-3-3-3h-30.5c-1.7 0-3-1.4-3-3 0-4.9 0-14.7 0-18.1 0-.8-.3-1.5-.9-2.1-3.6-3.6-17.6-17.6-21.2-21.2-.6-.6-.9-1.3-.9-2.1 0-4.4 0-18.8 0-23.1 0-.8-.3-1.5-.9-2.1-2.2-2.2-7.8-7.8-10-10-.6-.6-1.3-.9-2.1-.9-3.5 0-13.9 0-21.1 0-1.2 0-2.2.7-2.7 1.8s-.2 2.4.6 3.2c2.2 2.2 4.6 4.6 5.8 5.8.6.6.9 1.3.9 2.1v23.1c0 .8.3 1.5.9 2.1 3.6 3.6 17.6 17.6 21.2 21.2.6.6.9 1.3.9 2.1v32.7c0 .8-.3 1.5-.9 2.1s-1.3.9-2.1.9c-21.8 0-157 0-171.3 0-.8 0-1.5.3-2.1.9-3.5 3.5-16.6 16.6-20.1 20.1-.6.6-.9 1.3-.9 2.1v26.7c0 .8.3 1.5.9 2.1 3.9 3.9 25.7 25.8 25.8 25.9.3.4.8.7 1.3.7h157.4c.1.3.2.7.2 1v20c0 1.7 1.4 3 3 3h28.2c.8 0 1.5-.3 2.1-.9l.9-.9c.6-.6.9-1.3.9-2.1s-.3-1.5-.9-2.1c-4.3-4.3-13.6-13.6-13.6-13.6-1.7-1.7-1.7-4.4 0-6.1s4.4-1.7 6.1 0c0 0 9.8 9.8 13.9 13.9.5.5 1.1.8 1.8.8s1.3-.3 1.8-.8.8-1.1.8-1.8-.3-1.3-.8-1.8c-4.2-4.2-13.9-13.9-13.9-13.9-1.7-1.7-1.7-4.4 0-6.1s4.4-1.7 6.1 0c0 0 9.8 9.8 13.9 13.9.5.5 1.1.8 1.8.8s1.3-.3 1.8-.8.8-1.1.8-1.8-.3-1.3-.8-1.8c-4.2-4.2-13.9-13.9-13.9-13.9-1.7-1.7-1.7-4.4 0-6.1s4.4-1.7 6.1 0c0 0 9.3 9.3 13.6 13.6 1.2 1.2 3 1.2 4.2 0 4.7-4.7 15.8-15.8 19-19 .6-.6.9-1.3.9-2.1 0-4.8 0-21.9 0-26.7 0-.8-.3-1.5-.9-2.1z" fill="#142664"/><g fill="#ff2e93"><path d="m59.5 120.6h-19.7c-.9 0-1.7-.8-1.7-1.7s.8-1.7 1.7-1.7h19l13.6-13.6c.7-.7 1.7-.7 2.4 0s.7 1.7 0 2.4l-14.1 14.1c-.3.4-.8.5-1.2.5z"/><path d="m140.2 139.2h-14.2c-.4 0-.9-.2-1.2-.5l-13.6-13.5h-21.6l-13.6 13.6c-.3.3-.7.5-1.2.5h-12.1c-.9 0-1.7-.8-1.7-1.7s.8-1.7 1.7-1.7h11.4l13.6-13.6c.3-.3.7-.5 1.2-.5h23c.4 0 .9.2 1.2.5l13.6 13.6h13.5c.9 0 1.7.8 1.7 1.7s-.8 1.6-1.7 1.6z"/><path d="m104.6 125.2c-.4 0-.9-.2-1.2-.5-.7-.7-.7-1.7 0-2.4l18.6-18.6c.7-.7 1.7-.7 2.4 0s.7 1.7 0 2.4l-18.6 18.6c-.4.3-.8.5-1.2.5z"/><path d="m165.3 153.1c-.4 0-.9-.2-1.2-.5l-8.6-8.6c-.7-.7-.7-1.7 0-2.4s1.7-.7 2.4 0l7.4 7.4 9.7-9.7c.7-.7 1.7-.7 2.4 0s.7 1.7 0 2.4l-10.9 10.9c-.3.4-.8.5-1.2.5z"/><path d="m189.4 142.3h-13.2c-.9 0-1.7-.8-1.7-1.7s.8-1.7 1.7-1.7h12.6l29-29c.3-.3.7-.5 1.2-.5h25.6v-35.6c0-.9.8-1.7 1.7-1.7h13.7c.9 0 1.7.8 1.7 1.7s-.8 1.7-1.7 1.7h-12v35.6c0 .9-.8 1.7-1.7 1.7h-26.6l-29 29c-.4.3-.8.5-1.3.5z"/><path d="m291.5 104.8h-23.4c-.4 0-.9-.2-1.2-.5l-8.9-8.9h-11.8c-.9 0-1.7-.8-1.7-1.7s.8-1.7 1.7-1.7h12.5c.4 0 .9.2 1.2.5l8.9 8.9h22.7c.9 0 1.7.8 1.7 1.7s-.8 1.7-1.7 1.7z"/><path d="m198.9 164.5c-.4 0-.9-.2-1.2-.5-.7-.7-.7-1.7 0-2.4l23.5-23.4-14.7-14.7c-.7-.7-.7-1.7 0-2.4s1.7-.7 2.4 0l15.9 15.9c.7.7.7 1.7 0 2.4l-24.7 24.7c-.3.2-.7.4-1.2.4z"/><path d="m249.4 166.3c-.4 0-.9-.2-1.2-.5l-14.4-14.4c-.3-.3-.5-.7-.5-1.2s.2-.9.5-1.2l12.6-12.6c.3-.3.7-.5 1.2-.5h11.3c.9 0 1.7.8 1.7 1.7s-.8 1.7-1.7 1.7h-10.6l-10.9 10.9 13.2 13.2c.7.7.7 1.7 0 2.4-.4.3-.8.5-1.2.5z"/></g><path d="m280.6 154.5c-.4 0-.9-.2-1.2-.5l-9-9h-11.5c-.9 0-1.7-.8-1.7-1.7v-21.1c0-.9.8-1.7 1.7-1.7h33c.9 0 1.7.8 1.7 1.7v19.2c0 .4-.2.9-.5 1.2l-11.3 11.3c-.3.4-.7.6-1.2.6zm-20-12.8h10.6c.4 0 .9.2 1.2.5l8.3 8.3 9.6-9.6v-16.9h-29.6v17.7z" fill="#00e6b3"/><circle cx="187.6" cy="173.9" fill="#ff2e93" r="15.2"/><path d="m129.4 184.6v-17.5c0-.6.2-1.2.7-1.6.4-.4 1-.7 1.6-.7h14.9c.6 0 1.2.2 1.6.7.4.4.7 1 .7 1.6v13.6c0 .6-.2 1.2-.7 1.6l-.1.1h31.5c1.2 0 2.2 1 2.2 2.2s-1 2.2-2.2 2.2h-48c-1.2-.1-2.2-1-2.2-2.2z" fill="#142664"/><path d="m145.5 183c-1.2 0-2.2-1-2.2-2.2 0-3.5 0-10.2 0-13.7 0-1.2 1-2.2 2.2-2.2h33.9.1c5 0 9 4.1 9 9.1s-4.1 9.1-9.1 9.1h-33.9z" fill="#fff"/><path d="m125.1 170.1c-.4-.4-1-.7-1.6-.7-2.4 0-8.9 0-13.6 0-.9 0-1.7.5-2.1 1.4-.3.8-.2 1.8.5 2.4 2.2 2.2 4.6 4.6 5.8 5.8.4.4 1 .7 1.6.7h13.6c.9 0 1.7-.5 2.1-1.4.3-.8.2-1.8-.5-2.4-2.2-2.1-4.7-4.6-5.8-5.8z" fill="#142664"/><path d="m134.1 169.5c.6 0 1.2.2 1.6.7.4.4.7 1 .7 1.6v5.8c0 .6-.2 1.2-.7 1.6-.4.4-1 .7-1.6.7-2.2 0-5.5 0-7.1 0-.6 0-1.2-.2-1.6-.7-1.2-1.2-3.6-3.6-5.8-5.8-.6-.6-.8-1.6-.5-2.4s1.2-1.4 2.1-1.4c4.2-.1 9.8-.1 12.9-.1z" fill="#ff2e93"/><circle cx="179.3" cy="173.9" fill="#00e6b3" r="3.7"/><path d="m163.5 164.8 4.9 4.9c.8.8.8 2.2 0 3.1-.8.8-2.2.8-3.1 0l-7.9-7.9h6.1z" fill="#ff2e93"/><path d="m152.9 164.8 4.9 4.9c.8.8.8 2.2 0 3.1-.8.8-2.2.8-3.1 0l-7.9-7.9h6.1z" fill="#ff2e93"/><path d="m53.4 128.1-11.6 11.6 11.6 11.6 11.6-11.6z" fill="#fff"/><path d="m53.4 152.9c-.4 0-.9-.2-1.2-.5l-11.6-11.6c-.3-.3-.5-.7-.5-1.2s.2-.9.5-1.2l11.6-11.6c.3-.3.7-.5 1.2-.5.4 0 .9.2 1.2.5l11.6 11.6c.7.7.7 1.7 0 2.4l-11.6 11.6c-.3.4-.8.5-1.2.5zm-9.2-13.2 9.2 9.2 9.2-9.2-9.2-9.2z" fill="#00e6b3"/><path d="m149.4 128.1-11.6 11.6 11.6 11.6 11.6-11.6z" fill="#fff"/><path d="m149.4 152.9c-.4 0-.9-.2-1.2-.5l-11.6-11.6c-.3-.3-.5-.7-.5-1.2s.2-.9.5-1.2l11.6-11.6c.7-.7 1.7-.7 2.4 0l11.6 11.6c.3.3.5.7.5 1.2s-.2.9-.5 1.2l-11.6 11.6c-.3.4-.7.5-1.2.5zm-9.2-13.2 9.2 9.2 9.2-9.2-9.2-9.2z" fill="#00e6b3"/><circle cx="67.8" cy="155.5" fill="#00e6b3" r="4.4"/><circle cx="135.8" cy="155.5" fill="#00e6b3" r="4.4"/><path d="m273.6 131.9c0 1.7-1.4 3-3 3-1.7 0-3-1.4-3-3z" fill="#142664"/><path d="m267.6 129.5h12.1c1.3 0 2.4 1.1 2.4 2.4s-1.1 2.4-2.4 2.4h-4.2c-.9 1.8-2.8 3-4.9 3-3 0-5.5-2.4-5.5-5.4-0-1.3 1.1-2.4 2.5-2.4z" fill="#00e6b3"/><path d="m218.1 0h-37.4c-1.3 0-2.4 1.1-2.4 2.4s1.1 2.4 2.4 2.4h37.4c1.3 0 2.4-1.1 2.4-2.4s-1.1-2.4-2.4-2.4z" fill="#142664"/><path d="m246.2 52.9h-8.7c-.4 0-.9-.2-1.2-.5l-14.2-14.2c-.3-.3-.5-.7-.5-1.2v-15.6h-10.8c-.9 0-1.7-.8-1.7-1.7s.8-1.7 1.7-1.7h12.5c.9 0 1.7.8 1.7 1.7v16.6l13.2 13.2h8.1c.9 0 1.7.8 1.7 1.7s-.9 1.7-1.8 1.7z" fill="#ff2e93"/><circle cx="273" cy="91.6" fill="#00e6b3" r="3.7"/><circle cx="220.9" cy="7.3" fill="#00e6b3" r="3.7"/><circle cx="228.7" cy="189" fill="#ff2e93" r="3.7"/><circle cx="285.5" cy="91.6" fill="#ff2e93" r="3.7"/><path d="m188.2 117.7h-24.9c-.7 0-1.3-.4-1.6-1s-.1-1.4.4-1.8l11.1-11.1c.7-.7 1.7-.7 2.4 0s.7 1.7 0 2.4l-8.3 8.3h20.1l10.6-10.6c.7-.7 1.7-.7 2.4 0s.7 1.7 0 2.4l-11 10.9c-.3.3-.8.5-1.2.5z" fill="#ff2e93"/><path d="m202.1 106.6h-2.9c-.9 0-1.7-.8-1.7-1.7s.8-1.7 1.7-1.7h2.9c.9 0 1.7.7 1.7 1.7 0 .9-.7 1.7-1.7 1.7zm-9.6 0h-3.4c-.9 0-1.7-.8-1.7-1.7s.8-1.7 1.7-1.7h3.4c.9 0 1.7.7 1.7 1.7 0 .9-.8 1.7-1.7 1.7zm-10.1 0h-3.4c-.9 0-1.7-.8-1.7-1.7s.8-1.7 1.7-1.7h3.4c.9 0 1.7.7 1.7 1.7 0 .9-.8 1.7-1.7 1.7zm-10.1 0h-3.4c-.9 0-1.7-.8-1.7-1.7s.8-1.7 1.7-1.7h3.4c.9 0 1.7.7 1.7 1.7 0 .9-.8 1.7-1.7 1.7zm-10.1 0h-3.4c-.9 0-1.7-.8-1.7-1.7s.8-1.7 1.7-1.7h3.4c.9 0 1.7.7 1.7 1.7 0 .9-.7 1.7-1.7 1.7zm-10.1 0h-3.4c-.9 0-1.7-.8-1.7-1.7s.8-1.7 1.7-1.7h3.4c.9 0 1.7.7 1.7 1.7 0 .9-.7 1.7-1.7 1.7zm-10 0h-3.4c-.9 0-1.7-.8-1.7-1.7s.8-1.7 1.7-1.7h3.4c.9 0 1.7.7 1.7 1.7-.1.9-.8 1.7-1.7 1.7zm-10.1 0h-3.4c-.9 0-1.7-.8-1.7-1.7s.8-1.7 1.7-1.7h3.4c.9 0 1.7.7 1.7 1.7 0 .9-.8 1.7-1.7 1.7zm-10.1 0h-3.4c-.9 0-1.7-.8-1.7-1.7s.8-1.7 1.7-1.7h3.4c.9 0 1.7.7 1.7 1.7-0 .9-.8 1.7-1.7 1.7zm-10.1 0h-3.4c-.9 0-1.7-.8-1.7-1.7s.8-1.7 1.7-1.7h3.4c.9 0 1.7.7 1.7 1.7 0 .9-.8 1.7-1.7 1.7zm-10.1 0h-3.4c-.9 0-1.7-.8-1.7-1.7s.8-1.7 1.7-1.7h3.4c.9 0 1.7.7 1.7 1.7 0 .9-.8 1.7-1.7 1.7zm-10.1 0h-3.4c-.9 0-1.7-.8-1.7-1.7s.8-1.7 1.7-1.7h3.4c.9 0 1.7.7 1.7 1.7 0 .9-.7 1.7-1.7 1.7zm-10.1 0h-3.3c-.9 0-1.7-.8-1.7-1.7s.8-1.7 1.7-1.7h3.4c.9 0 1.7.7 1.7 1.7-.1.9-.8 1.7-1.8 1.7zm-10 0h-3.4c-.9 0-1.7-.8-1.7-1.7s.8-1.7 1.7-1.7h3.4c.9 0 1.7.7 1.7 1.7-.1.9-.8 1.7-1.7 1.7zm-10.1 0h-3.4c-.9 0-1.7-.8-1.7-1.7s.8-1.7 1.7-1.7h3.4c.9 0 1.7.7 1.7 1.7 0 .9-.8 1.7-1.7 1.7z" fill="#fff"/><path d="m93 166.3c-.9 0-1.7-.8-1.7-1.7v-30.3c0-.9.8-1.7 1.7-1.7s1.7.8 1.7 1.7v30.3c-.1.9-.8 1.7-1.7 1.7z" fill="#ff2e93"/><path d="m107.1 166.3c-.9 0-1.7-.8-1.7-1.7v-30.3c0-.9.8-1.7 1.7-1.7s1.7.8 1.7 1.7v30.3c0 .9-.8 1.7-1.7 1.7z" fill="#ff2e93"/><path d="m307.9 178.6c-1.3 0-2.4-1-2.5-2.4s1-2.6 2.4-2.6c3.1-.2 5.9-1.4 8.1-3.6 1.2-1.2 2.1-2.6 2.7-4.1.5-1.3 2-1.9 3.3-1.4s1.9 2 1.4 3.3c-.9 2.2-2.2 4.1-3.8 5.8-3 3-7.1 4.8-11.4 5.1-.1-.1-.2-.1-.2-.1z" fill="#00e6b3"/><path d="m268.9 37.1h-31.9c-.9 0-1.7-.8-1.7-1.7s.8-1.7 1.7-1.7h31.9c.9 0 1.7.8 1.7 1.7s-.8 1.7-1.7 1.7z" fill="#142664"/><path d="m286.7 61.9h-12.8c-.9 0-1.7-.8-1.7-1.7s.8-1.7 1.7-1.7h12.8c.9 0 1.7.8 1.7 1.7s-.8 1.7-1.7 1.7z" fill="#142664"/><path d="m286.7 70.2h-12.8c-.9 0-1.7-.8-1.7-1.7s.8-1.7 1.7-1.7h12.8c.9 0 1.7.8 1.7 1.7s-.8 1.7-1.7 1.7z" fill="#142664"/><path d="m286.7 78.4h-12.8c-.9 0-1.7-.8-1.7-1.7s.8-1.7 1.7-1.7h12.8c.9 0 1.7.8 1.7 1.7-.1 1-.8 1.7-1.7 1.7z" fill="#142664"/><circle cx="261.4" cy="47" fill="#142664" r="2.6"/><path d="m110.1 92.6v4.5h-5v-4.5c0-1.4 1.1-2.5 2.5-2.5s2.5 1.1 2.5 2.5z" fill="#142664"/><path d="m121.2 92.6v4.5h-5v-4.5c0-1.4 1.1-2.5 2.5-2.5s2.5 1.1 2.5 2.5z" fill="#142664"/></svg></g><!--ITEM: Illustration component 4--><g transform="translate(1470.0 956.25) rotate(0.0 116.25 39.375)  scale(6.586402266288952 6.15234375)"><svg width="35.3" height="12.8" viewBox="0.0 0.0 35.3 12.8"><path d="m34.3 0c.3 0 .5.1.7.3s.3.4.3.7v6c0 .3-.1.5-.3.7s-.4.3-.7.3c-3.6 0-16 0-18.4 0-.3 0-.5.1-.7.3-.8.8-3.3 3.3-4.2 4.2-.2.2-.4.3-.7.3-1.1 0-4.4 0-5.5 0-.3 0-.5-.1-.7-.3-.8-.8-3-3-3.8-3.8-.2-.2-.3-.4-.3-.7 0-1.3 0-5.1 0-6.9 0-.3.1-.5.3-.7s.4-.3.7-.3c5.1-.1 28.2-.1 33.3-.1z" fill="rgb(255,255,255)"/><path d="m12.2 2.7c.2 0 .3.1.5.2s.2.3.2.5v2.9c0 .2-.1.3-.2.5-.5.5-2 2-2.6 2.6-.1.1-.3.2-.5.2-.8 0-3.3 0-4.1 0-.2 0-.3-.1-.5-.2-.5-.5-2-2-2.5-2.5-.1-.1-.2-.3-.2-.5 0-.6 0-2 0-2.9 0-.4.3-.7.7-.7 1.9-.1 7.3-.1 9.2-.1z" fill="#00e6b3"/></svg></g><!--ITEM: Illustration component 5--><g transform="translate(1072.5 2411.25) rotate(0.0 423.75 103.125)  scale(6.070916905444126 5.976355364956101)"><svg width="139.6" height="34.511" viewBox="0.0 0.0 139.6 34.511"><g fill="#ff2e93"><path d="m117.3 3.111c5.2.8 9.5 1.7 12.7 2.8 2.3.7 4.1 1.5 5.2 2.2.2.2.4.3.5.5.1.1.2.1.2.2s-.1.1-.1.1c-.1.1-.2.2-.4.4-.6.5-1.4.9-2.5 1.3-4.3 1.7-11.8 3.2-21.5 4.3-11.5 1.3-26 2.1-41.8 2-15.8.1-30.3-.7-41.8-2-9.7-1.1-17.2-2.5-21.5-4.3-1.1-.4-1.9-.9-2.5-1.3-.2-.1-.3-.2-.4-.4 0-.1-.1-.1-.1-.2s.1-.1.2-.2c.2-.2.5-.4.8-.7.9-.6 2.1-1.1 3.7-1.7 2.7-.9 6.3-1.8 10.6-2.6.8-.1 1.4-.9 1.3-1.8s-.9-1.4-1.8-1.3c-5.6.9-10.1 2-13 3.2-1.8.7-3.1 1.5-3.9 2.4s-1.2 1.8-1.2 2.7c0 1.4 1.1 3.1 3.7 4.5 3.2 1.7 9.1 3.2 16.8 4.5 12.4 2 29.9 3.3 49.3 3.4 19.4-.1 36.8-1.3 49.3-3.3 7.7-1.2 13.5-2.8 16.8-4.5 2.6-1.4 3.7-3 3.7-4.5 0-1-.5-2-1.5-3-1-.8-2.5-1.7-4.7-2.5-3.6-1.3-8.9-2.4-15.5-3.3-.8-.1-1.6.5-1.8 1.3-.3.9.3 1.7 1.2 1.8z"/><path d="m116 24.911c.1-.8.7-1.4 1.5-1.4.9 0 1.6.7 1.6 1.6 0 1.1-.8 2.4-2.8 3.5-2.3 1.2-6.4 2.3-11.9 3.3-5.7 1-12.8 1.7-20.9 2.2-4.4.2-9.1.3-13.9.4-4.8 0-9.5-.1-13.9-.4-8-.4-15.2-1.2-20.9-2.2-5.5-.9-9.6-2.1-11.9-3.3-2-1-2.8-2.4-2.8-3.5 0-.9.7-1.6 1.6-1.6.8 0 1.5.6 1.5 1.4l.2.2c.4.3 1 .6 1.7.9 3 1.2 8.3 2.1 15.1 2.9 8.1.9 18.3 1.4 29.4 1.3 11.1.1 21.3-.4 29.4-1.3 6.8-.7 12-1.7 15.1-2.8.7-.3 1.3-.6 1.7-.9 0-.1.1-.2.2-.3-.1 0-.1 0 0 0v.2z"/></g></svg></g><!--ITEM: Illustration component 6--><g transform="translate(491.25 997.5) rotate(0.0 367.5 163.125)  scale(6.17252846921294 6.052875695732839)"><svg width="119.076" height="53.9" viewBox="0.0 0.0 119.076 53.9"><path d="m91.688 3.7c-.7-1.2-2.1-2-3.5-2-11.6 0-63.4 0-82.5 0-1.5 0-2.8.8-3.5 2-.7 1.3-.7 2.8 0 4.1 6.7 11.4 20.9 35.4 25.1 42.4.7 1.2 2.1 2 3.5 2h82.5c1.5 0 2.8-.8 3.5-2 .7-1.3.7-2.8 0-4.1-6.7-11.4-20.9-35.3-25.1-42.4z" fill="#fff"/><path d="m113.288 53.9h-82.5c-2 0-3.9-1.1-4.9-2.8l-25.1-42.4c-1-1.8-1.1-4 0-5.8 1-1.8 2.9-2.9 5-2.9h82.5c2 0 3.9 1.1 4.9 2.8l25.1 42.4c1 1.8 1.1 4 0 5.8-1 1.8-2.9 2.9-5 2.9zm-107.6-50.5c-.9 0-1.6.5-2.1 1.2-.4.7-.4 1.7 0 2.4l25.1 42.4c.4.7 1.2 1.2 2 1.2h82.5c.9 0 1.6-.5 2.1-1.2.4-.7.4-1.7 0-2.4l-25.1-42.4c-.4-.7-1.2-1.2-2-1.2z" fill="#ff2e93"/><path d="m86.588 10.9c-.7-1.2-2.1-2-3.5-2-9.8 0-47.8 0-63.8 0-1.5 0-2.8.8-3.5 2-.7 1.3-.7 2.8 0 4.1 4.9 8.3 13.4 22.7 16.5 28 .7 1.2 2.1 2 3.5 2h63.8c1.5 0 2.8-.8 3.5-2 .7-1.3.7-2.8 0-4.1-4.9-8.3-13.4-22.7-16.5-28z" fill="#ff2e93"/><g fill="#fff"><path d="m76.588 23.5h-7.9c-1.4 0-2.5-1.1-2.5-2.5s1.1-2.5 2.5-2.5h7.9c1.4 0 2.5 1.1 2.5 2.5 0 1.3-1.1 2.5-2.5 2.5z"/><path d="m55.788 23.5h-21.7c-1.4 0-2.5-1.1-2.5-2.5s1.1-2.5 2.5-2.5h21.7c1.4 0 2.5 1.1 2.5 2.5 0 1.3-1.1 2.5-2.5 2.5z"/><path d="m84.088 36.4h-33.2c-1.4 0-2.5-1.1-2.5-2.5s1.1-2.5 2.5-2.5h33.2c1.4 0 2.5 1.1 2.5 2.5s-1.2 2.5-2.5 2.5z"/></g></svg></g><!--ITEM: Illustration component 7--><g transform="translate(363.75 903.75) rotate(0.0 185.625 93.75)  scale(7.329713721618954 7.47011952191235)"><svg width="50.65" height="25.1" viewBox="0.0 0.0 50.65 25.1"><path d="m40.025 2c-.7-1.2-2.1-2-3.5-2-6.1 0-22.8 0-32.5 0-1.5 0-2.8.8-3.5 2-.7 1.3-.7 2.8 0 4.1 3.3 5.5 7.9 13.4 10.1 17 .7 1.2 2.1 2 3.5 2h32.5c1.5 0 2.8-.8 3.5-2 .7-1.3.7-2.8 0-4.1-3.3-5.5-7.9-13.4-10.1-17z" fill="#142664"/><path d="m21.625 6.1c3.6 0 8.1 2.9 10.2 6.5s.8 6.5-2.7 6.5c-3.6 0-8.1-2.9-10.2-6.5s-.9-6.5 2.7-6.5z" fill="#00e6b3"/></svg></g><!--ITEM: Illustration component 8--><g transform="translate(682.5 450.0) rotate(90.0 129.375 142.5)  scale(4.942315773388853 4.987923973537751)"><svg width="52.354" height="57.138" viewBox="0.0 0.0 52.354 57.138"><path d="m31.605 47.914a16.263 16.263 0 1 0 -27.63-17.163 16.263 16.263 0 0 0 27.63 17.163z" fill="#fff" stroke="#142664" stroke-linecap="round" stroke-linejoin="round" stroke-width="3"/><path d="m14.179 23.437a12.72 12.72 0 0 0 -3.034 3.276 12.233 12.233 0 1 0 20.782 12.91 11.524 11.524 0 0 0 1.593-4.172 15.68 15.68 0 0 0 -7.245-9.911 15.679 15.679 0 0 0 -12.1-2.1z" fill="#142664"/><path d="m21.018 51.826a2.051 2.051 0 1 0 -2.824.659 2.052 2.052 0 0 0 2.824-.659z" fill="#142664"/><path d="m20.573 24.332a12.139 12.139 0 0 0 -1.136 1.292 6.082 6.082 0 0 0 10.332 6.418 4.524 4.524 0 0 0 .655-1.591 14.918 14.918 0 0 0 -4.426-4 17.13 17.13 0 0 0 -5.425-2.121z" fill="#ff2e93"/><path d="m8.575 51.755a1.843 1.843 0 0 1 .214-1.282l7.462-12.014a1.7 1.7 0 0 1 2.884 1.791l-7.463 12.013a1.633 1.633 0 0 1 -2.337.547 2.084 2.084 0 0 1 -.76-1.055z" fill="#142664"/><g fill="#ff2e93"><path d="m19.864 16.563s.025-1.649-.183-3.86c-.078-1.214-.18-2.525-.378-3.814a18.637 18.637 0 0 0 -.426-2.262c-.585-2.944-1.229-5.258-1.229-5.258a1.557 1.557 0 0 0 -3.087.413s.06 2.451.233 5.388c.062.705.146 1.507.231 2.308.2 1.289.517 2.652.692 3.844l.888 3.8a1.512 1.512 0 0 0 1.75 1.337 1.865 1.865 0 0 0 1.509-1.893z"/><path d="m37.265 31.7s1.535-.462 3.706-1.277c1.146-.371 2.367-.861 3.587-1.352a18.869 18.869 0 0 0 2.126-1.01c2.665-1.341 4.722-2.644 4.722-2.644a1.628 1.628 0 1 0 -1.312-2.979s-2.292.741-5.145 1.715c-.659.257-1.415.536-2.171.816-1.2.588-2.395 1.176-3.4 1.718-2.006 1.085-3.353 1.913-3.353 1.913a1.677 1.677 0 0 0 -.834 2.146 1.514 1.514 0 0 0 2.072.954z"/><path d="m12.963 17.354a5.75 5.75 0 0 0 .019-1.237 4.89 4.89 0 0 0 -.176-1.191 1.841 1.841 0 0 0 -.354-.636 17.657 17.657 0 0 0 -.971-1.519 1.557 1.557 0 1 0 -2.95 1 10.668 10.668 0 0 0 .094 1.723l.16.682a5.26 5.26 0 0 0 .565 1.1 5.531 5.531 0 0 0 .76 1.055 1.554 1.554 0 0 0 1.974.976 1.637 1.637 0 0 0 .879-1.951z"/><path d="m39.711 38.215s.533.081 1.26.116a4.99 4.99 0 0 0 1.214-.078 1.48 1.48 0 0 0 .659-.253 9.468 9.468 0 0 0 1.541-.873 1.6 1.6 0 1 0 -.728-3.116 9.455 9.455 0 0 0 -1.769-.1c-.2.045-.51.016-.7.062a5.01 5.01 0 0 0 -1.123.467c-.637.354-1.078.663-1.078.663a1.58 1.58 0 0 0 -1.194 1.922 1.645 1.645 0 0 0 1.918 1.19z"/><path d="m31.216 20.616s1.21-1.568 2.844-3.819c.855-1.187 1.787-2.5 2.673-3.925a27.046 27.046 0 0 0 1.418-2.472c1.717-3.144 3.042-5.845 3.042-5.845a1.647 1.647 0 0 0 -.579-2.1 1.647 1.647 0 0 0 -2.14.412s-1.834 2.385-3.891 5.318c-.5.806-1.086 1.559-1.587 2.365-.848 1.364-1.649 2.843-2.334 4.136-1.255 2.4-2.164 4.242-2.164 4.242a1.647 1.647 0 0 0 .579 2.1 1.667 1.667 0 0 0 2.139-.412z"/></g></svg></g><!--ITEM: Illustration component 9--><g transform="translate(2092.5 412.5) rotate(127.72835531975132 193.125 322.5)  scale(5.4605988633471885 5.423175879058974)"><svg width="70.734" height="118.934" viewBox="0.0 0.0 70.734 118.934"><g fill="rgb(255,46,147)"><path d="m57.4 54.616s-6-.2-14-.3c-4.3-.1-9.1-.2-14-.2-2.8 0-5.7 0-8.4.1-10.7.2-19.6.4-19.6.4-.8 0-1.4.6-1.4 1.4s.6 1.4 1.4 1.4c0 0 8.9.3 19.6.4 2.7 0 5.6.1 8.4.1 4.9 0 9.7-.1 14-.2 8-.1 14-.3 14-.3.8 0 1.4-.6 1.4-1.4 0-.7-.6-1.4-1.4-1.4z"/><path d="m53.529 39.142s-1.7-1.5-4.2-3.4c-1.3-1-2.8-2.2-4.3-3.3-.9-.6-1.8-1.3-2.7-1.8-3.4-2.3-6.4-4.1-6.4-4.1-.6-.5-1.5-.3-2 .3s-.3 1.5.3 2c0 0 2.6 2.2 5.9 4.8.8.6 1.7 1.3 2.6 2 1.5 1.1 3.1 2.1 4.5 3 2.6 1.7 4.6 2.9 4.6 2.9.6.5 1.5.3 2-.3.5-.7.3-1.6-.3-2.1z"/><path d="m58.925 75.416s-1.9.7-4.4 1.8c-1.3.6-2.8 1.2-4.3 1.9-.9.4-1.7.9-2.5 1.3-3.2 1.7-5.7 3.3-5.7 3.3-.7.3-1 1.2-.6 1.9.3.7 1.2 1 1.9.6 0 0 2.8-1.1 6.1-2.5.8-.4 1.7-.7 2.6-1.2 1.5-.7 2.9-1.5 4.2-2.2 2.4-1.3 4.1-2.4 4.1-2.4.7-.3 1-1.2.6-1.9s-1.3-1-2-.6z"/><path d="m68.1 85.5s-2.4 3.2-5.5 7.6c-1.7 2.3-3.6 5-5.4 7.7-1.1 1.6-2.1 3.2-3.1 4.7-3.9 6.1-7 11.2-7 11.2-.4.6-.3 1.5.4 2 .7.4 1.5.3 2-.4 0 0 3.5-4.8 7.7-10.7 1.1-1.5 2.2-3.1 3.2-4.6 1.8-2.7 3.6-5.5 5.1-7.9 2.9-4.6 5-8 5-8 .4-.6.3-1.5-.4-2-.7-.4-1.6-.3-2 .4z"/><path d="m67.487 31.834s-2.1-3.4-5-8c-1.5-2.4-3.3-5.2-5.1-7.9-1.1-1.6-2.2-3.2-3.2-4.6-4.2-5.9-7.7-10.7-7.7-10.7-.4-.7-1.3-.8-2-.4-.6.4-.8 1.3-.4 2 0 0 3.1 5.1 7 11.2 1 1.5 2 3.2 3.1 4.7 1.8 2.7 3.7 5.4 5.4 7.7 3.1 4.4 5.5 7.6 5.5 7.6.4.6 1.3.8 2 .4s.9-1.3.4-2z"/></g></svg></g></svg>