<svg xmlns="http://www.w3.org/2000/svg" viewBox="0 0 512 512"><defs><style>.cls-1{fill:#00b529;}.cls-2{fill:#fff;}.cls-3{fill:#23a8fe;}.cls-4{fill:#d2edfc;}.cls-5{fill:#239ee2;}.cls-6{fill:#f92814;}.cls-7{fill:#ffda45;}.cls-8{fill:#76d67b;}</style></defs><title>Development</title><g id="BULINE"><circle class="cls-1" cx="256" cy="256" r="256"/></g><g id="Icons"><path class="cls-2" d="M478.45,100.82v194A31.15,31.15,0,0,1,447.31,326H64.68a31.14,31.14,0,0,1-31.13-31.14v-194A31.13,31.13,0,0,1,64.68,69.69H447.31A31.14,31.14,0,0,1,478.45,100.82Z"/><path class="cls-3" d="M478.45,100.82V119H33.55V100.82A31.13,31.13,0,0,1,64.68,69.69H447.31A31.14,31.14,0,0,1,478.45,100.82Z"/><path class="cls-4" d="M130.23,326H64.68a31.14,31.14,0,0,1-31.13-31.14v-194A31.13,31.13,0,0,1,64.68,69.69h65.55A31.13,31.13,0,0,0,99.1,100.82v194A31.14,31.14,0,0,0,130.23,326Z"/><path class="cls-5" d="M130.23,69.69A31.13,31.13,0,0,0,99.1,100.82V119H33.55V100.82A31.13,31.13,0,0,1,64.68,69.69Z"/><circle class="cls-6" cx="74.07" cy="94.33" r="12.4"/><circle class="cls-7" cx="113.26" cy="94.33" r="12.4"/><circle class="cls-8" cx="152.44" cy="94.33" r="12.4"/><path class="cls-6" d="M456.67,259.3l-8.82-1.65a74.64,74.64,0,0,0-5.53-13.17l3.91-5.71a13.53,13.53,0,0,0-1.6-17.2l-9.91-9.9a13.52,13.52,0,0,0-17.19-1.6L411.85,214a74.23,74.23,0,0,0-13.52-5.66l-1.69-9a13.52,13.52,0,0,0-13.29-11h-14a13.52,13.52,0,0,0-13.29,11l-1.69,9a74.24,74.24,0,0,0-14.21,6l-6.26-4.28a13.52,13.52,0,0,0-17.19,1.6l-9.91,9.9a13.52,13.52,0,0,0-1.59,17.2l4.63,6.77a74.24,74.24,0,0,0-5,12.11L296,259.3a13.52,13.52,0,0,0-11,13.29v14a13.5,13.5,0,0,0,11,13.28l8.66,1.63a73.74,73.74,0,0,0,5.4,13.17l-6.15,9a13.52,13.52,0,0,0,1.6,17.19l9.9,9.91a13.53,13.53,0,0,0,17.2,1.6l9-6.17a74.26,74.26,0,0,0,12.82,5.27l1.58,8.45a13.53,13.53,0,0,0,13.29,11h14a13.53,13.53,0,0,0,13.29-11l1.58-8.45a74.36,74.36,0,0,0,12.1-4.9l8.48,5.8a13.52,13.52,0,0,0,17.19-1.6l9.91-9.91a13.51,13.51,0,0,0,1.59-17.19l-5.43-7.94A73.63,73.63,0,0,0,448,301.51l8.66-1.63a13.5,13.5,0,0,0,11-13.28v-14A13.52,13.52,0,0,0,456.67,259.3Zm-80.32,49.27A28.7,28.7,0,1,1,405,279.87,28.7,28.7,0,0,1,376.35,308.57Z"/><path class="cls-6" d="M292.57,347.83l-6.71-1.26a55.68,55.68,0,0,0-4.2-10l3-4.34a10.27,10.27,0,0,0-1.21-13.06l-7.52-7.52a10.29,10.29,0,0,0-13.06-1.22l-4.31,3a56.67,56.67,0,0,0-10.27-4.3L247,302.24a10.26,10.26,0,0,0-10.09-8.37H226.25a10.26,10.26,0,0,0-10.09,8.37l-1.29,6.86a56.73,56.73,0,0,0-10.8,4.59l-4.74-3.25a10.29,10.29,0,0,0-13.06,1.22l-7.52,7.52a10.26,10.26,0,0,0-1.22,13.06l3.52,5.14a56.88,56.88,0,0,0-3.78,9.19l-6.71,1.26a10.27,10.27,0,0,0-8.37,10.09v10.64a10.27,10.27,0,0,0,8.37,10.09l6.58,1.23a56.25,56.25,0,0,0,4.1,10l-4.67,6.83a10.26,10.26,0,0,0,1.21,13l7.53,7.52a10.25,10.25,0,0,0,13.05,1.22l6.85-4.69a57.3,57.3,0,0,0,9.74,4l1.21,6.41a10.27,10.27,0,0,0,10.09,8.38h10.63A10.27,10.27,0,0,0,247,424.24l1.21-6.41a56.68,56.68,0,0,0,9.19-3.73l6.43,4.41a10.26,10.26,0,0,0,13.06-1.22l7.52-7.52a10.25,10.25,0,0,0,1.22-13l-4.13-6A56.59,56.59,0,0,0,286,379.88l6.58-1.23a10.27,10.27,0,0,0,8.37-10.09V357.92A10.27,10.27,0,0,0,292.57,347.83Zm-61,37.41a21.79,21.79,0,1,1,21.79-21.79A21.79,21.79,0,0,1,231.57,385.24Z"/></g></svg>