<?xml version="1.0" encoding="UTF-8"?><svg id="Layer_1" xmlns="http://www.w3.org/2000/svg" viewBox="0 0 210.05 204.04"><defs><style>.cls-1{fill:#f7f9ff;}.cls-2{fill:#ee658f;}.cls-3{fill:#e9ab1f;}.cls-4{fill:#fff;}.cls-5{fill:#f2bd34;}.cls-6{fill:#ffca57;}.cls-7{fill:#fefefb;}.cls-8{fill:#e83565;}.cls-9{fill:#98d5ff;}.cls-10{fill:#b186f4;}.cls-11{fill:#cfbcff;}.cls-12{fill:#c4cbd7;}.cls-13{fill:#d9e1f1;}.cls-14{fill:#4a535e;}.cls-15{fill:#5f6877;}.cls-16{fill:#795dd0;}.cls-17{fill:#4f93fc;}.cls-18{fill:#7b818d;}</style></defs><g><path class="cls-14" d="M128.21,2.75l-.2-1.21-1.57-1.15h0l-.02-.02h0c-.67-.49-1.59-.5-2.61,.08L22.38,59c-2.06,1.19-3.73,4.38-3.73,7.13v84.29c0,1.41,.45,2.42,1.15,2.92h0l1.47,1.08-.03-.79c.36-.05,.74-.17,1.14-.4l101.42-58.56c2.06-1.19,3.73-4.38,3.73-7.13V3.26c0-.21-.03-.4-.05-.59l.73,.08Z"/><path class="cls-18" d="M125.43,95.87L24,154.43c-2.06,1.19-3.73-.07-3.73-2.82V67.32c0-2.75,1.67-5.94,3.73-7.13L125.43,1.64c2.06-1.19,3.73,.07,3.73,2.82V88.75c0,2.75-1.67,5.94-3.73,7.12Z"/><polygon class="cls-13" points="123.41 89.28 26.02 145.51 26.02 66.78 123.41 10.55 123.41 89.28"/><polygon class="cls-18" points="24.24 155.51 24.24 158.26 26.27 158.26 24.24 155.51"/><path class="cls-18" d="M210.05,140.11s-1.53,.18-1.97-.07l-73-42.15c-2.38-1.37-5.98-1.52-8.04-.33L25.63,156.12c-.99,.57-1.44,1.34-1.39,2.15,.06,.87,.72,1.78,1.96,2.49l73,42.15c2.38,1.37,5.98,1.52,8.04,.33l101.42-58.56c1.01-.59,1.46-1.39,1.38-2.21h.02v-2.35Z"/><path class="cls-4" d="M75.75,34.22c0,.65-.46,1.45-1.03,1.78-.57,.33-1.03,.07-1.03-.59s.46-1.45,1.03-1.78c.57-.33,1.03-.07,1.03,.59Z"/><path class="cls-12" d="M107.24,200.71l101.42-58.56c2.06-1.19,1.8-3.27-.58-4.64l-73-42.15c-2.38-1.37-5.98-1.52-8.04-.33L25.63,153.59c-2.06,1.19-1.8,3.27,.58,4.64l73,42.15c2.38,1.37,5.98,1.52,8.04,.33Z"/><path class="cls-4" d="M83.94,181.5l92.16-53.21c1.45-.84,1.27-2.29-.41-3.26l-39.32-22.7c-1.67-.96-4.2-1.07-5.65-.23l-92.16,53.21c-1.45,.84-1.27,2.29,.41,3.26l39.32,22.7c1.67,.96,4.2,1.07,5.65,.23Z"/><path class="cls-4" d="M138.99,177.45l29.39-16.97c.43-.25,.38-.69-.12-.98l-13.35-7.71c-.5-.29-1.26-.32-1.69-.07l-29.39,16.97c-.43,.25-.38,.69,.12,.98l13.35,7.71c.5,.29,1.26,.32,1.69,.07Z"/><path class="cls-12" d="M147.87,165.61c.19-.11,.49-.11,.67,0l5.48,3.16-.67,.39-5.48-3.16c-.18-.11-.18-.28,0-.39Z"/><g><g><path class="cls-18" d="M132.86,108.22l4.88-2.82c.24-.14,.21-.38-.07-.54l-2.15-1.24c-.27-.16-.69-.18-.93-.04l-4.88,2.82c-.24,.14-.21,.38,.07,.54l2.15,1.24c.27,.16,.69,.18,.93,.04Z"/><path class="cls-18" d="M126.04,112.16l4.88-2.82c.24-.14,.21-.38-.07-.54l-2.15-1.24c-.27-.16-.69-.18-.93-.04l-4.88,2.82c-.24,.14-.21,.38,.07,.54l2.15,1.24c.27,.16,.69,.17,.93,.04Z"/><path class="cls-18" d="M119.23,116.09l4.88-2.81c.24-.14,.21-.38-.07-.54l-2.15-1.24c-.27-.16-.69-.18-.93-.04l-4.88,2.82c-.24,.14-.21,.38,.07,.54l2.15,1.24c.27,.16,.69,.18,.93,.04Z"/><path class="cls-18" d="M112.42,120.02l4.88-2.82c.24-.14,.21-.38-.07-.54l-2.15-1.24c-.27-.16-.69-.18-.93-.04l-4.88,2.82c-.24,.14-.21,.38,.07,.54l2.15,1.24c.27,.16,.69,.18,.93,.04Z"/><path class="cls-18" d="M105.61,123.96l4.88-2.82c.24-.14,.21-.38-.07-.54l-2.15-1.24c-.27-.16-.69-.18-.93-.04l-4.88,2.81c-.24,.14-.21,.38,.07,.54l2.15,1.24c.27,.16,.69,.18,.93,.04Z"/><path class="cls-18" d="M98.8,127.89l4.88-2.82c.24-.14,.21-.38-.07-.54l-2.15-1.24c-.27-.16-.69-.17-.93-.04l-4.88,2.82c-.24,.14-.21,.38,.07,.54l2.15,1.24c.27,.16,.69,.18,.93,.04Z"/><path class="cls-18" d="M91.98,131.82l4.88-2.82c.24-.14,.21-.38-.07-.54l-2.15-1.24c-.27-.16-.69-.18-.93-.04l-4.88,2.82c-.24,.14-.21,.38,.07,.54l2.15,1.24c.27,.16,.69,.17,.93,.04Z"/><path class="cls-18" d="M85.17,135.76l4.88-2.82c.24-.14,.21-.38-.07-.54l-2.15-1.24c-.27-.16-.69-.18-.93-.04l-4.88,2.82c-.24,.14-.21,.38,.07,.54l2.15,1.24c.27,.16,.69,.18,.93,.04Z"/><path class="cls-18" d="M78.36,139.69l4.88-2.82c.24-.14,.21-.38-.07-.54l-2.15-1.24c-.27-.16-.69-.18-.93-.04l-4.88,2.82c-.24,.14-.21,.38,.07,.54l2.15,1.24c.27,.16,.69,.17,.93,.04Z"/><path class="cls-18" d="M71.55,143.62l4.88-2.82c.24-.14,.21-.38-.07-.53l-2.15-1.24c-.27-.16-.69-.18-.93-.04l-4.88,2.82c-.24,.14-.21,.38,.07,.54l2.15,1.24c.27,.16,.69,.18,.93,.04Z"/><path class="cls-18" d="M64.74,147.55l4.88-2.82c.24-.14,.21-.38-.07-.54l-2.15-1.24c-.28-.16-.69-.18-.93-.04l-4.88,2.82c-.24,.14-.21,.38,.07,.54l2.15,1.24c.27,.16,.69,.18,.93,.04Z"/><path class="cls-18" d="M57.92,151.49l4.88-2.82c.24-.14,.21-.38-.07-.54l-2.15-1.24c-.27-.16-.69-.18-.93-.04l-4.88,2.81c-.24,.14-.21,.38,.07,.54l2.15,1.24c.27,.16,.69,.18,.93,.04Z"/><path class="cls-18" d="M51.11,155.42l4.88-2.82c.24-.14,.21-.38-.07-.54l-2.15-1.24c-.27-.16-.69-.17-.93-.04l-4.88,2.82c-.24,.14-.21,.38,.07,.54l2.15,1.24c.27,.16,.69,.18,.93,.04Z"/><path class="cls-18" d="M44.3,159.35l4.88-2.82c.24-.14,.21-.38-.07-.54l-2.15-1.24c-.27-.16-.69-.18-.93-.04l-4.88,2.82c-.24,.14-.21,.38,.07,.54l2.15,1.24c.27,.16,.69,.18,.93,.04Z"/><path class="cls-18" d="M145.71,117.66l6.24-3.6c.45-.26,.39-.71-.13-1.02l-3.51-2.03c-.52-.3-1.31-.33-1.76-.07l-6.23,3.6c-.45,.26-.39,.71,.13,1.02l3.51,2.03c.52,.3,1.31,.33,1.76,.07Z"/><path class="cls-18" d="M59.28,167.56l6.23-3.6c.45-.26,.39-.71-.13-1.02l-3.51-2.03c-.52-.3-1.31-.33-1.76-.07l-6.24,3.6c-.45,.26-.39,.71,.13,1.02l3.51,2.02c.52,.3,1.31,.33,1.76,.07Z"/><g><path class="cls-18" d="M137.62,122.33l4.1-2.37c.45-.26,.39-.71-.13-1.02l-3.51-2.02c-.52-.3-1.31-.33-1.76-.07l-4.1,2.37c-.45,.26-.39,.71,.13,1.02l3.51,2.03c.52,.3,1.31,.33,1.76,.07Z"/><path class="cls-18" d="M130.81,126.26l4.1-2.37c.45-.26,.39-.71-.13-1.02l-3.51-2.03c-.52-.3-1.31-.33-1.76-.07l-4.1,2.37c-.45,.26-.39,.71,.13,1.02l3.51,2.02c.52,.3,1.31,.33,1.76,.07Z"/><path class="cls-18" d="M123.99,130.19l4.1-2.37c.45-.26,.39-.71-.13-1.02l-3.51-2.03c-.52-.3-1.31-.33-1.76-.07l-4.1,2.37c-.45,.26-.39,.71,.13,1.02l3.51,2.03c.52,.3,1.31,.33,1.76,.07Z"/><path class="cls-18" d="M117.18,134.12l4.1-2.37c.45-.26,.39-.72-.13-1.02l-3.51-2.03c-.52-.3-1.31-.33-1.76-.07l-4.1,2.37c-.45,.26-.39,.72,.13,1.02l3.51,2.03c.52,.3,1.31,.33,1.76,.07Z"/><path class="cls-18" d="M110.37,138.06l4.1-2.37c.45-.26,.39-.71-.13-1.02l-3.51-2.03c-.52-.3-1.31-.33-1.76-.07l-4.1,2.37c-.45,.26-.39,.71,.13,1.02l3.51,2.03c.52,.3,1.31,.33,1.76,.07Z"/><path class="cls-18" d="M103.56,141.99l4.1-2.37c.45-.26,.39-.71-.13-1.02l-3.51-2.02c-.52-.3-1.31-.33-1.76-.07l-4.1,2.37c-.45,.26-.39,.71,.13,1.02l3.51,2.03c.52,.3,1.31,.33,1.76,.07Z"/><path class="cls-18" d="M96.75,145.92l4.1-2.37c.45-.26,.39-.71-.13-1.02l-3.51-2.03c-.52-.3-1.31-.33-1.76-.07l-4.1,2.37c-.45,.26-.39,.71,.13,1.02l3.51,2.02c.52,.3,1.31,.33,1.76,.07Z"/><path class="cls-18" d="M89.93,149.86l4.1-2.37c.45-.26,.39-.71-.13-1.02l-3.51-2.02c-.52-.3-1.31-.33-1.76-.07l-4.1,2.37c-.45,.26-.39,.71,.13,1.02l3.51,2.03c.52,.3,1.31,.33,1.76,.07Z"/><path class="cls-18" d="M83.12,153.79l4.1-2.37c.45-.26,.39-.71-.13-1.02l-3.51-2.03c-.52-.3-1.31-.33-1.76-.07l-4.1,2.37c-.45,.26-.39,.72,.13,1.02l3.51,2.02c.52,.3,1.31,.33,1.76,.07Z"/><path class="cls-18" d="M76.31,157.72l4.1-2.37c.45-.26,.39-.71-.13-1.02l-3.51-2.02c-.52-.3-1.31-.33-1.76-.07l-4.1,2.37c-.45,.26-.39,.71,.13,1.02l3.51,2.03c.52,.3,1.31,.33,1.76,.07Z"/><path class="cls-18" d="M69.5,161.66l4.1-2.37c.45-.26,.39-.72-.13-1.02l-3.51-2.03c-.52-.3-1.31-.33-1.76-.07l-4.1,2.37c-.45,.26-.39,.72,.13,1.02l3.51,2.02c.52,.3,1.31,.33,1.76,.07Z"/></g><path class="cls-18" d="M141.58,128.46l3.96-2.29c.49-.28,.43-.78-.14-1.1l-3.34-1.93c-.57-.33-1.42-.36-1.91-.08l-3.96,2.29c-.49,.28-.43,.78,.14,1.1l3.34,1.93c.57,.33,1.42,.36,1.91,.08Z"/><path class="cls-18" d="M134.77,132.4l3.96-2.29c.49-.28,.43-.78-.14-1.1l-3.34-1.93c-.57-.33-1.42-.36-1.91-.08l-3.96,2.29c-.49,.28-.43,.78,.14,1.1l3.34,1.93c.57,.33,1.42,.36,1.91,.08Z"/><path class="cls-18" d="M127.95,136.33l3.96-2.29c.49-.28,.43-.78-.14-1.1l-3.34-1.93c-.57-.33-1.42-.36-1.91-.08l-3.96,2.29c-.49,.28-.43,.78,.14,1.1l3.34,1.93c.57,.33,1.42,.36,1.91,.08Z"/><path class="cls-18" d="M121.14,140.26l3.96-2.29c.49-.28,.43-.78-.14-1.1l-3.34-1.93c-.57-.33-1.42-.36-1.91-.08l-3.96,2.29c-.49,.28-.43,.78,.14,1.1l3.34,1.93c.57,.33,1.42,.36,1.91,.08Z"/><path class="cls-18" d="M114.33,144.2l3.96-2.29c.49-.28,.43-.78-.14-1.1l-3.34-1.93c-.57-.33-1.42-.36-1.91-.08l-3.96,2.29c-.49,.28-.43,.78,.14,1.1l3.34,1.93c.57,.33,1.42,.36,1.91,.08Z"/><path class="cls-18" d="M107.52,148.13l3.96-2.29c.49-.28,.43-.78-.14-1.1l-3.34-1.93c-.57-.33-1.42-.36-1.91-.08l-3.96,2.29c-.49,.28-.43,.78,.14,1.1l3.34,1.93c.57,.33,1.42,.36,1.91,.08Z"/><path class="cls-18" d="M100.71,152.06l3.96-2.29c.49-.28,.43-.78-.14-1.1l-3.34-1.93c-.57-.33-1.42-.36-1.91-.08l-3.96,2.29c-.49,.28-.43,.78,.14,1.1l3.34,1.93c.57,.33,1.42,.36,1.91,.08Z"/><path class="cls-18" d="M93.89,155.99l3.96-2.29c.49-.28,.43-.78-.14-1.1l-3.34-1.93c-.57-.33-1.42-.36-1.91-.08l-3.96,2.29c-.49,.28-.43,.78,.14,1.1l3.34,1.93c.57,.33,1.42,.36,1.91,.08Z"/><path class="cls-18" d="M87.08,159.93l3.96-2.29c.49-.28,.43-.78-.14-1.1l-3.34-1.93c-.57-.33-1.42-.36-1.91-.08l-3.96,2.29c-.49,.28-.43,.78,.14,1.1l3.34,1.93c.57,.33,1.42,.36,1.91,.08Z"/><path class="cls-18" d="M80.27,163.86l3.96-2.29c.49-.28,.43-.78-.14-1.1l-3.34-1.93c-.57-.33-1.42-.36-1.91-.08l-3.96,2.29c-.49,.28-.43,.78,.14,1.1l3.34,1.93c.57,.33,1.42,.36,1.91,.08Z"/><path class="cls-18" d="M66.64,171.73l9.19-5.31c.49-.28,.43-.78-.14-1.1l-3.34-1.93c-.57-.33-1.42-.36-1.91-.08l-9.2,5.31c-.49,.28-.43,.78,.14,1.1l3.34,1.93c.57,.33,1.42,.36,1.91,.08Z"/><path class="cls-18" d="M149.97,123.62l9.2-5.31c.49-.28,.43-.78-.14-1.1l-3.34-1.93c-.57-.33-1.42-.36-1.91-.08l-9.19,5.31c-.49,.28-.43,.78,.14,1.1l3.34,1.93c.57,.33,1.42,.36,1.91,.08Z"/><path class="cls-18" d="M145.98,134.35l2.94-1.7c.77-.45,.67-1.22-.22-1.74l-2.17-1.25c-.89-.51-2.24-.57-3.01-.12l-2.94,1.7c-.77,.45-.67,1.22,.22,1.74l2.17,1.25c.89,.51,2.24,.57,3.01,.12Z"/><path class="cls-18" d="M139.17,138.28l2.94-1.7c.77-.45,.67-1.22-.22-1.74l-2.17-1.25c-.89-.51-2.24-.57-3.01-.12l-2.94,1.7c-.77,.45-.67,1.22,.22,1.74l2.17,1.25c.89,.51,2.24,.57,3.01,.12Z"/><path class="cls-18" d="M132.35,142.21l2.94-1.7c.77-.45,.67-1.22-.22-1.74l-2.17-1.25c-.89-.51-2.24-.57-3.01-.12l-2.94,1.7c-.77,.45-.68,1.22,.22,1.74l2.17,1.25c.89,.51,2.24,.57,3.01,.12Z"/><path class="cls-18" d="M125.54,146.15l2.94-1.7c.77-.45,.67-1.22-.22-1.74l-2.17-1.25c-.89-.51-2.24-.57-3.01-.12l-2.94,1.7c-.77,.45-.67,1.22,.22,1.74l2.17,1.25c.89,.51,2.24,.57,3.01,.12Z"/><path class="cls-18" d="M118.73,150.08l2.94-1.7c.77-.45,.67-1.22-.22-1.74l-2.17-1.25c-.89-.51-2.24-.57-3.01-.12l-2.94,1.7c-.77,.45-.67,1.22,.22,1.74l2.17,1.25c.89,.51,2.24,.57,3.01,.12Z"/><path class="cls-18" d="M111.92,154.01l2.94-1.7c.77-.45,.67-1.22-.22-1.74l-2.17-1.25c-.89-.51-2.24-.57-3.01-.12l-2.94,1.7c-.77,.45-.67,1.22,.22,1.74l2.17,1.25c.89,.51,2.24,.57,3.01,.12Z"/><path class="cls-18" d="M105.11,157.95l2.94-1.7c.77-.45,.67-1.22-.22-1.74l-2.17-1.25c-.89-.51-2.24-.57-3.01-.12l-2.94,1.7c-.77,.45-.67,1.22,.22,1.74l2.17,1.25c.89,.51,2.24,.57,3.01,.12Z"/><path class="cls-18" d="M98.29,161.88l2.94-1.7c.77-.45,.67-1.22-.22-1.74l-2.17-1.25c-.89-.51-2.24-.57-3.01-.12l-2.94,1.7c-.77,.45-.67,1.22,.22,1.74l2.17,1.25c.89,.51,2.24,.57,3.01,.12Z"/><path class="cls-18" d="M91.48,165.81l2.94-1.7c.77-.45,.67-1.22-.22-1.74l-2.17-1.25c-.89-.51-2.24-.57-3.01-.12l-2.94,1.7c-.77,.45-.67,1.22,.22,1.74l2.17,1.25c.89,.51,2.24,.57,3.01,.12Z"/><path class="cls-18" d="M154.27,129.56l11.68-6.74c.77-.45,.67-1.22-.22-1.74l-2.17-1.25c-.89-.51-2.24-.57-3.01-.12l-11.68,6.74c-.77,.45-.67,1.22,.22,1.74l2.17,1.25c.89,.51,2.24,.57,3.01,.12Z"/><path class="cls-18" d="M74.45,175.65l11.68-6.74c.77-.45,.67-1.22-.22-1.74l-2.17-1.25c-.89-.51-2.24-.57-3.01-.12l-11.68,6.74c-.77,.45-.67,1.22,.22,1.74l2.17,1.25c.89,.51,2.24,.57,3.01,.12Z"/><path class="cls-18" d="M140.55,112.21l4.09-2.36c.45-.26,.4-.72-.13-1.02l-3.49-2.02c-.53-.3-1.32-.34-1.77-.07l-4.09,2.36c-.45,.26-.4,.72,.13,1.02l3.49,2.02c.52,.3,1.32,.34,1.77,.07Z"/><path class="cls-18" d="M133.73,116.14l4.09-2.36c.45-.26,.4-.72-.13-1.02l-3.49-2.02c-.52-.3-1.32-.34-1.77-.07l-4.09,2.36c-.45,.26-.4,.72,.13,1.02l3.49,2.02c.53,.3,1.32,.34,1.77,.07Z"/><path class="cls-18" d="M126.92,120.08l4.09-2.36c.45-.26,.4-.72-.13-1.02l-3.49-2.02c-.52-.3-1.32-.34-1.77-.07l-4.09,2.36c-.46,.26-.4,.72,.13,1.02l3.49,2.02c.53,.3,1.32,.34,1.77,.07Z"/><path class="cls-18" d="M120.11,124.01l4.09-2.36c.45-.26,.4-.72-.13-1.02l-3.49-2.02c-.53-.3-1.32-.34-1.77-.07l-4.09,2.36c-.45,.26-.4,.72,.13,1.02l3.49,2.02c.52,.3,1.32,.34,1.77,.07Z"/><path class="cls-18" d="M113.3,127.94l4.09-2.36c.45-.26,.4-.72-.13-1.02l-3.49-2.02c-.52-.3-1.32-.34-1.77-.07l-4.09,2.36c-.45,.26-.4,.72,.13,1.02l3.49,2.02c.52,.3,1.32,.34,1.77,.07Z"/><path class="cls-18" d="M106.49,131.87l4.09-2.36c.45-.26,.4-.72-.13-1.02l-3.49-2.02c-.52-.3-1.32-.34-1.77-.07l-4.09,2.36c-.45,.26-.4,.72,.13,1.02l3.49,2.02c.53,.3,1.32,.34,1.77,.07Z"/><path class="cls-18" d="M99.67,135.81l4.09-2.36c.46-.26,.4-.72-.13-1.02l-3.49-2.02c-.52-.3-1.32-.34-1.77-.07l-4.09,2.36c-.45,.26-.4,.72,.13,1.02l3.49,2.02c.52,.3,1.32,.34,1.77,.07Z"/><path class="cls-18" d="M92.86,139.74l4.09-2.36c.45-.26,.4-.72-.13-1.02l-3.49-2.02c-.53-.3-1.32-.34-1.77-.07l-4.09,2.36c-.45,.26-.4,.72,.13,1.02l3.49,2.02c.52,.3,1.32,.34,1.77,.07Z"/><path class="cls-18" d="M86.05,143.67l4.09-2.36c.45-.26,.4-.72-.13-1.02l-3.49-2.02c-.52-.3-1.32-.34-1.77-.07l-4.09,2.36c-.45,.26-.4,.72,.13,1.02l3.49,2.02c.52,.3,1.32,.34,1.77,.07Z"/><path class="cls-18" d="M79.24,147.61l4.09-2.36c.45-.26,.4-.72-.13-1.02l-3.49-2.02c-.52-.3-1.32-.34-1.77-.07l-4.09,2.36c-.46,.26-.4,.72,.13,1.02l3.49,2.02c.53,.3,1.32,.34,1.77,.07Z"/><path class="cls-18" d="M72.42,151.54l4.09-2.36c.46-.26,.4-.72-.13-1.02l-3.49-2.02c-.53-.3-1.32-.34-1.77-.07l-4.09,2.36c-.45,.26-.4,.72,.13,1.02l3.49,2.02c.52,.3,1.32,.34,1.77,.07Z"/><path class="cls-18" d="M65.61,155.47l4.09-2.36c.45-.26,.4-.72-.13-1.02l-3.49-2.02c-.53-.3-1.32-.34-1.77-.07l-4.09,2.36c-.45,.26-.4,.72,.13,1.02l3.49,2.02c.52,.3,1.32,.34,1.77,.07Z"/><path class="cls-18" d="M58.8,159.41l4.09-2.36c.45-.26,.4-.72-.13-1.02l-3.49-2.02c-.52-.3-1.32-.34-1.77-.07l-4.09,2.36c-.46,.26-.4,.72,.13,1.02l3.49,2.02c.53,.3,1.32,.34,1.77,.07Z"/><path class="cls-18" d="M51.99,163.34l4.09-2.36c.46-.26,.4-.72-.13-1.02l-3.49-2.02c-.52-.3-1.32-.34-1.77-.07l-4.09,2.36c-.46,.26-.4,.72,.13,1.02l3.49,2.02c.52,.3,1.32,.34,1.77,.07Z"/><path class="cls-18" d="M169.95,128.93l3.65-2.11c.58-.33,.5-.91-.16-1.3l-2.99-1.72c-.66-.38-1.67-.42-2.24-.09l-3.65,2.11c-.58,.33-.5,.91,.16,1.29l2.99,1.73c.66,.38,1.67,.42,2.24,.09Z"/><path class="cls-18" d="M163.14,132.87l3.65-2.11c.57-.33,.5-.91-.16-1.3l-2.99-1.73c-.66-.38-1.67-.42-2.24-.09l-3.65,2.11c-.58,.33-.5,.91,.16,1.3l2.99,1.72c.66,.38,1.67,.43,2.24,.09Z"/><path class="cls-18" d="M156.33,136.8l3.65-2.11c.58-.33,.5-.91-.16-1.3l-2.99-1.72c-.66-.38-1.67-.43-2.24-.09l-3.65,2.11c-.58,.33-.5,.91,.16,1.29l2.99,1.73c.66,.38,1.67,.42,2.24,.09Z"/><path class="cls-18" d="M149.51,140.73l3.65-2.11c.58-.33,.5-.91-.16-1.29l-2.99-1.73c-.66-.38-1.67-.42-2.24-.09l-3.65,2.11c-.58,.33-.5,.91,.16,1.3l2.99,1.72c.66,.38,1.67,.42,2.24,.09Z"/><path class="cls-18" d="M101.83,168.26l3.65-2.11c.58-.33,.5-.91-.16-1.29l-2.99-1.73c-.67-.38-1.67-.42-2.24-.09l-3.65,2.11c-.58,.33-.5,.91,.16,1.3l2.99,1.72c.66,.38,1.67,.42,2.24,.09Z"/><path class="cls-18" d="M95.02,172.2l3.65-2.11c.58-.33,.5-.91-.16-1.3l-2.99-1.72c-.66-.38-1.67-.43-2.24-.09l-3.65,2.11c-.58,.33-.5,.91,.16,1.29l2.99,1.73c.66,.38,1.67,.42,2.24,.09Z"/><path class="cls-18" d="M88.2,176.13l3.65-2.11c.58-.33,.5-.91-.16-1.3l-2.99-1.72c-.66-.38-1.67-.42-2.24-.09l-3.65,2.11c-.58,.33-.5,.91,.16,1.3l2.99,1.72c.66,.38,1.67,.42,2.24,.09Z"/><path class="cls-18" d="M81.39,180.06l3.65-2.11c.58-.33,.5-.91-.16-1.3l-2.99-1.72c-.66-.38-1.67-.43-2.24-.09l-3.65,2.11c-.58,.33-.5,.91,.16,1.3l2.99,1.73c.66,.38,1.67,.42,2.24,.09Z"/><path class="cls-18" d="M108.64,164.33l37.71-21.77c.58-.33,.5-.91-.16-1.3l-2.99-1.72c-.66-.38-1.67-.43-2.24-.09l-37.71,21.78c-.58,.33-.5,.91,.16,1.29l2.99,1.73c.66,.38,1.67,.42,2.24,.09Z"/></g><g><path class="cls-12" d="M132.93,107.86l4.88-2.82c.24-.14,.21-.38-.07-.54l-2.15-1.24c-.27-.16-.69-.18-.93-.04l-4.88,2.81c-.24,.14-.21,.38,.07,.54l2.15,1.24c.27,.16,.69,.18,.93,.04Z"/><path class="cls-12" d="M126.12,111.8l4.88-2.82c.24-.14,.21-.38-.07-.54l-2.15-1.24c-.27-.16-.69-.17-.93-.04l-4.88,2.82c-.24,.14-.21,.38,.07,.54l2.15,1.24c.27,.16,.69,.18,.93,.04Z"/><path class="cls-12" d="M119.31,115.73l4.88-2.82c.24-.14,.21-.38-.07-.54l-2.15-1.24c-.27-.16-.69-.18-.93-.04l-4.88,2.81c-.24,.14-.21,.38,.07,.54l2.15,1.24c.27,.16,.69,.18,.93,.04Z"/><path class="cls-12" d="M112.5,119.66l4.88-2.81c.24-.14,.21-.38-.07-.54l-2.15-1.24c-.27-.16-.69-.18-.93-.04l-4.88,2.82c-.24,.14-.21,.38,.07,.54l2.15,1.24c.27,.16,.69,.18,.93,.04Z"/><path class="cls-12" d="M105.68,123.6l4.88-2.82c.24-.14,.21-.38-.07-.54l-2.15-1.24c-.27-.16-.69-.18-.93-.04l-4.88,2.82c-.24,.14-.21,.38,.07,.54l2.15,1.24c.27,.16,.69,.18,.93,.04Z"/><path class="cls-12" d="M98.87,127.53l4.88-2.82c.24-.14,.21-.38-.07-.54l-2.15-1.24c-.27-.16-.69-.18-.93-.04l-4.88,2.82c-.24,.14-.21,.38,.07,.54l2.15,1.24c.27,.16,.69,.18,.93,.04Z"/><path class="cls-12" d="M92.06,131.46l4.88-2.82c.24-.14,.21-.38-.07-.54l-2.15-1.24c-.27-.16-.69-.18-.93-.04l-4.88,2.82c-.24,.14-.21,.38,.07,.54l2.15,1.24c.27,.16,.69,.18,.93,.04Z"/><path class="cls-12" d="M85.25,135.4l4.88-2.82c.24-.14,.21-.38-.07-.54l-2.15-1.24c-.27-.16-.69-.18-.93-.04l-4.88,2.82c-.24,.14-.21,.38,.07,.53l2.15,1.24c.27,.16,.69,.18,.93,.04Z"/><path class="cls-12" d="M78.44,139.33l4.88-2.82c.24-.14,.21-.38-.07-.54l-2.15-1.24c-.27-.16-.69-.17-.93-.04l-4.88,2.82c-.24,.14-.21,.38,.07,.54l2.15,1.24c.27,.16,.69,.18,.93,.04Z"/><path class="cls-12" d="M71.62,143.26l4.88-2.82c.24-.14,.21-.38-.07-.54l-2.15-1.24c-.27-.16-.69-.18-.93-.04l-4.88,2.81c-.24,.14-.21,.38,.07,.54l2.15,1.24c.27,.16,.69,.18,.93,.04Z"/><path class="cls-12" d="M64.81,147.2l4.88-2.81c.24-.14,.21-.38-.07-.54l-2.15-1.24c-.27-.16-.69-.18-.93-.04l-4.88,2.82c-.24,.14-.21,.38,.07,.54l2.15,1.24c.27,.16,.69,.18,.93,.04Z"/><path class="cls-12" d="M58,151.13l4.88-2.82c.24-.14,.21-.38-.07-.54l-2.15-1.24c-.27-.16-.69-.18-.93-.04l-4.88,2.82c-.24,.14-.21,.38,.07,.54l2.15,1.24c.27,.16,.69,.17,.93,.04Z"/><path class="cls-12" d="M51.19,155.06l4.88-2.82c.24-.14,.21-.38-.07-.54l-2.15-1.24c-.27-.16-.69-.18-.93-.04l-4.88,2.82c-.24,.14-.21,.38,.07,.54l2.15,1.24c.27,.16,.69,.18,.93,.04Z"/><path class="cls-12" d="M44.37,158.99l4.88-2.82c.24-.14,.21-.38-.07-.54l-2.15-1.24c-.27-.16-.69-.17-.93-.04l-4.88,2.82c-.24,.14-.21,.38,.07,.54l2.15,1.24c.27,.16,.69,.18,.93,.04Z"/><path class="cls-12" d="M145.78,117.3l6.23-3.6c.45-.26,.39-.71-.13-1.02l-3.51-2.03c-.52-.3-1.31-.33-1.76-.07l-6.24,3.6c-.45,.26-.39,.72,.13,1.02l3.51,2.03c.52,.3,1.31,.33,1.76,.07Z"/><path class="cls-12" d="M59.35,167.2l6.24-3.6c.45-.26,.39-.71-.13-1.02l-3.51-2.03c-.52-.3-1.31-.33-1.76-.07l-6.23,3.6c-.45,.26-.39,.71,.13,1.02l3.51,2.03c.52,.3,1.31,.33,1.76,.07Z"/><g><path class="cls-12" d="M137.69,121.97l4.1-2.37c.45-.26,.39-.71-.13-1.02l-3.51-2.03c-.52-.3-1.31-.33-1.76-.07l-4.1,2.37c-.45,.26-.39,.71,.13,1.02l3.51,2.03c.52,.3,1.31,.33,1.76,.07Z"/><path class="cls-12" d="M130.88,125.9l4.1-2.37c.45-.26,.39-.71-.13-1.02l-3.51-2.02c-.52-.3-1.31-.33-1.76-.07l-4.1,2.37c-.45,.26-.39,.71,.13,1.02l3.51,2.03c.52,.3,1.31,.33,1.76,.07Z"/><path class="cls-12" d="M124.07,129.83l4.1-2.37c.45-.26,.39-.71-.13-1.02l-3.51-2.03c-.52-.3-1.31-.33-1.76-.07l-4.1,2.37c-.45,.26-.39,.71,.13,1.02l3.51,2.02c.52,.3,1.31,.33,1.76,.07Z"/><path class="cls-12" d="M117.26,133.77l4.1-2.37c.45-.26,.39-.71-.13-1.02l-3.51-2.02c-.52-.3-1.31-.33-1.76-.07l-4.1,2.37c-.45,.26-.39,.71,.13,1.02l3.51,2.03c.52,.3,1.31,.33,1.76,.07Z"/><path class="cls-12" d="M110.44,137.7l4.1-2.37c.45-.26,.39-.71-.13-1.02l-3.51-2.03c-.52-.3-1.31-.33-1.76-.07l-4.1,2.37c-.45,.26-.39,.71,.13,1.02l3.51,2.02c.52,.3,1.31,.33,1.76,.07Z"/><path class="cls-12" d="M103.63,141.63l4.1-2.37c.45-.26,.39-.71-.13-1.02l-3.51-2.03c-.52-.3-1.31-.33-1.76-.07l-4.1,2.37c-.45,.26-.39,.71,.13,1.02l3.51,2.03c.52,.3,1.31,.33,1.76,.07Z"/><path class="cls-12" d="M96.82,145.57l4.1-2.37c.45-.26,.39-.72-.13-1.02l-3.51-2.03c-.52-.3-1.31-.33-1.76-.07l-4.1,2.37c-.45,.26-.39,.72,.13,1.02l3.51,2.03c.52,.3,1.31,.33,1.76,.07Z"/><path class="cls-12" d="M90.01,149.5l4.1-2.37c.45-.26,.39-.71-.13-1.02l-3.51-2.03c-.52-.3-1.31-.33-1.76-.07l-4.1,2.37c-.45,.26-.39,.71,.13,1.02l3.51,2.03c.52,.3,1.31,.33,1.76,.07Z"/><path class="cls-12" d="M83.2,153.43l4.1-2.37c.45-.26,.39-.72-.13-1.02l-3.51-2.02c-.52-.3-1.31-.33-1.76-.07l-4.1,2.37c-.45,.26-.39,.72,.13,1.02l3.51,2.03c.52,.3,1.31,.33,1.76,.07Z"/><path class="cls-12" d="M76.38,157.36l4.1-2.37c.45-.26,.39-.71-.13-1.02l-3.51-2.03c-.52-.3-1.31-.33-1.76-.07l-4.1,2.37c-.45,.26-.39,.71,.13,1.02l3.51,2.02c.52,.3,1.31,.33,1.76,.07Z"/><path class="cls-12" d="M69.57,161.3l4.1-2.37c.45-.26,.39-.71-.13-1.02l-3.51-2.02c-.52-.3-1.31-.33-1.76-.07l-4.1,2.37c-.45,.26-.39,.71,.13,1.02l3.51,2.03c.52,.3,1.31,.33,1.76,.07Z"/></g><path class="cls-12" d="M141.65,128.11l3.96-2.29c.49-.28,.43-.78-.14-1.1l-3.34-1.93c-.57-.33-1.42-.36-1.91-.08l-3.96,2.29c-.49,.28-.43,.78,.14,1.1l3.34,1.93c.57,.33,1.42,.36,1.91,.08Z"/><path class="cls-12" d="M134.84,132.04l3.96-2.29c.49-.28,.43-.78-.14-1.1l-3.34-1.93c-.57-.33-1.42-.36-1.91-.08l-3.96,2.29c-.49,.28-.43,.78,.14,1.1l3.34,1.93c.57,.33,1.42,.36,1.91,.08Z"/><path class="cls-12" d="M128.03,135.97l3.96-2.29c.49-.28,.43-.78-.14-1.1l-3.34-1.93c-.57-.33-1.42-.36-1.91-.08l-3.96,2.29c-.49,.28-.43,.78,.14,1.1l3.34,1.93c.57,.33,1.42,.36,1.91,.08Z"/><path class="cls-12" d="M121.22,139.9l3.96-2.29c.49-.28,.43-.78-.14-1.1l-3.34-1.93c-.57-.33-1.42-.36-1.91-.08l-3.96,2.29c-.49,.28-.43,.78,.14,1.1l3.34,1.93c.57,.33,1.42,.36,1.91,.08Z"/><path class="cls-12" d="M114.41,143.84l3.96-2.29c.49-.28,.43-.78-.14-1.1l-3.34-1.93c-.57-.33-1.42-.36-1.91-.08l-3.96,2.29c-.49,.28-.43,.78,.14,1.1l3.34,1.93c.57,.33,1.42,.36,1.91,.08Z"/><path class="cls-12" d="M107.59,147.77l3.96-2.29c.49-.28,.43-.78-.14-1.1l-3.34-1.93c-.57-.33-1.42-.36-1.91-.08l-3.96,2.29c-.49,.28-.43,.78,.14,1.1l3.34,1.93c.57,.33,1.42,.36,1.91,.08Z"/><path class="cls-12" d="M100.78,151.7l3.96-2.29c.49-.28,.43-.78-.14-1.1l-3.34-1.93c-.57-.33-1.42-.36-1.91-.08l-3.96,2.29c-.49,.28-.43,.78,.14,1.1l3.34,1.93c.57,.33,1.42,.36,1.91,.08Z"/><path class="cls-12" d="M93.97,155.64l3.96-2.29c.49-.28,.43-.78-.14-1.1l-3.34-1.93c-.57-.33-1.42-.36-1.91-.08l-3.96,2.29c-.49,.28-.43,.78,.14,1.1l3.34,1.93c.57,.33,1.42,.36,1.91,.08Z"/><path class="cls-12" d="M87.16,159.57l3.96-2.29c.49-.28,.43-.78-.14-1.1l-3.34-1.93c-.57-.33-1.42-.36-1.91-.08l-3.96,2.29c-.49,.28-.43,.78,.14,1.1l3.34,1.93c.57,.33,1.42,.36,1.91,.08Z"/><path class="cls-12" d="M80.34,163.5l3.96-2.29c.49-.28,.43-.78-.14-1.1l-3.34-1.93c-.57-.33-1.42-.36-1.91-.08l-3.96,2.29c-.49,.28-.43,.78,.14,1.1l3.34,1.93c.57,.33,1.42,.36,1.91,.08Z"/><path class="cls-12" d="M66.72,171.37l9.19-5.31c.49-.28,.43-.78-.14-1.1l-3.34-1.93c-.57-.33-1.42-.36-1.91-.08l-9.19,5.31c-.49,.28-.43,.78,.14,1.1l3.34,1.93c.57,.33,1.42,.36,1.91,.08Z"/><path class="cls-12" d="M150.05,123.26l9.19-5.31c.49-.28,.43-.78-.14-1.1l-3.34-1.93c-.57-.33-1.42-.36-1.91-.08l-9.2,5.31c-.49,.28-.43,.78,.14,1.1l3.34,1.93c.57,.33,1.42,.36,1.91,.08Z"/><path class="cls-12" d="M146.05,133.99l2.94-1.7c.77-.45,.67-1.22-.22-1.74l-2.17-1.25c-.89-.51-2.24-.57-3.01-.12l-2.94,1.7c-.77,.45-.67,1.22,.22,1.74l2.17,1.25c.89,.51,2.24,.57,3.01,.12Z"/><path class="cls-12" d="M139.24,137.92l2.94-1.7c.77-.45,.67-1.22-.22-1.74l-2.17-1.25c-.89-.51-2.24-.57-3.01-.12l-2.94,1.7c-.77,.45-.67,1.22,.22,1.74l2.17,1.25c.89,.51,2.24,.57,3.01,.12Z"/><path class="cls-12" d="M132.43,141.86l2.94-1.7c.77-.45,.67-1.22-.22-1.74l-2.17-1.25c-.89-.51-2.24-.57-3.01-.12l-2.94,1.7c-.77,.45-.67,1.22,.22,1.74l2.17,1.25c.89,.51,2.24,.57,3.01,.12Z"/><path class="cls-12" d="M125.62,145.79l2.94-1.7c.77-.45,.67-1.22-.22-1.74l-2.17-1.25c-.89-.51-2.24-.57-3.01-.12l-2.94,1.7c-.77,.45-.67,1.22,.22,1.74l2.17,1.25c.89,.51,2.24,.57,3.01,.12Z"/><path class="cls-12" d="M118.81,149.72l2.94-1.7c.77-.45,.67-1.22-.22-1.74l-2.17-1.25c-.89-.51-2.24-.57-3.01-.12l-2.94,1.7c-.77,.45-.68,1.22,.22,1.74l2.17,1.25c.89,.51,2.24,.57,3.01,.12Z"/><path class="cls-12" d="M111.99,153.66l2.94-1.7c.77-.45,.67-1.22-.22-1.74l-2.17-1.25c-.89-.51-2.24-.57-3.01-.12l-2.94,1.7c-.77,.45-.67,1.22,.22,1.74l2.17,1.25c.89,.51,2.24,.57,3.01,.12Z"/><path class="cls-12" d="M105.18,157.59l2.94-1.7c.77-.45,.67-1.22-.22-1.74l-2.17-1.25c-.89-.51-2.24-.57-3.01-.12l-2.94,1.7c-.77,.45-.67,1.22,.22,1.74l2.17,1.25c.89,.51,2.24,.57,3.01,.12Z"/><path class="cls-12" d="M98.37,161.52l2.94-1.7c.77-.45,.67-1.22-.22-1.74l-2.17-1.25c-.89-.51-2.24-.57-3.01-.12l-2.94,1.7c-.77,.45-.67,1.22,.22,1.74l2.17,1.25c.89,.51,2.24,.57,3.01,.12Z"/><path class="cls-12" d="M91.56,165.45l2.94-1.7c.77-.45,.67-1.22-.22-1.74l-2.17-1.25c-.89-.51-2.24-.57-3.01-.12l-2.94,1.7c-.77,.45-.67,1.22,.22,1.74l2.17,1.25c.89,.51,2.24,.57,3.01,.12Z"/><path class="cls-12" d="M154.35,129.2l11.68-6.74c.77-.45,.67-1.22-.22-1.74l-2.17-1.25c-.89-.51-2.24-.57-3.01-.12l-11.68,6.74c-.77,.45-.67,1.22,.22,1.74l2.17,1.25c.89,.51,2.24,.57,3.01,.12Z"/><path class="cls-12" d="M74.53,175.29l11.68-6.74c.77-.45,.67-1.22-.22-1.74l-2.17-1.25c-.89-.51-2.24-.57-3.01-.12l-11.68,6.74c-.77,.45-.67,1.22,.22,1.74l2.17,1.25c.89,.51,2.24,.57,3.01,.12Z"/><path class="cls-12" d="M140.62,111.85l4.09-2.36c.45-.26,.4-.72-.13-1.02l-3.49-2.02c-.52-.3-1.32-.34-1.77-.07l-4.09,2.36c-.46,.26-.4,.72,.13,1.02l3.49,2.02c.53,.3,1.32,.34,1.77,.07Z"/><path class="cls-12" d="M133.81,115.78l4.09-2.36c.45-.26,.4-.72-.13-1.02l-3.49-2.02c-.53-.3-1.32-.34-1.77-.07l-4.09,2.36c-.46,.26-.4,.72,.13,1.02l3.49,2.02c.52,.3,1.32,.34,1.77,.07Z"/><path class="cls-12" d="M127,119.72l4.09-2.36c.45-.26,.4-.72-.13-1.02l-3.49-2.02c-.53-.3-1.32-.34-1.77-.07l-4.09,2.36c-.45,.26-.4,.72,.13,1.02l3.49,2.02c.52,.3,1.32,.34,1.77,.07Z"/><path class="cls-12" d="M120.19,123.65l4.09-2.36c.45-.26,.4-.72-.13-1.02l-3.49-2.02c-.52-.3-1.32-.34-1.77-.07l-4.09,2.36c-.45,.26-.4,.72,.13,1.02l3.49,2.02c.53,.3,1.32,.34,1.77,.07Z"/><path class="cls-12" d="M113.37,127.58l4.09-2.36c.45-.26,.4-.72-.13-1.02l-3.49-2.02c-.52-.3-1.32-.34-1.77-.07l-4.09,2.36c-.45,.26-.4,.72,.13,1.02l3.49,2.02c.53,.3,1.32,.34,1.77,.07Z"/><path class="cls-12" d="M106.56,131.52l4.09-2.36c.46-.26,.4-.72-.13-1.02l-3.49-2.02c-.53-.3-1.32-.34-1.77-.07l-4.09,2.36c-.45,.26-.4,.72,.13,1.02l3.49,2.02c.52,.3,1.32,.34,1.77,.07Z"/><path class="cls-12" d="M99.75,135.45l4.09-2.36c.45-.26,.4-.72-.13-1.02l-3.49-2.02c-.52-.3-1.32-.34-1.77-.07l-4.09,2.36c-.45,.26-.4,.72,.13,1.02l3.49,2.02c.52,.3,1.32,.34,1.77,.07Z"/><path class="cls-12" d="M92.94,139.38l4.09-2.36c.45-.26,.4-.72-.13-1.02l-3.49-2.02c-.52-.3-1.32-.34-1.77-.07l-4.09,2.36c-.46,.26-.4,.72,.13,1.02l3.49,2.02c.53,.3,1.32,.34,1.77,.07Z"/><path class="cls-12" d="M86.12,143.32l4.09-2.36c.46-.26,.4-.72-.13-1.02l-3.49-2.02c-.53-.3-1.32-.34-1.77-.07l-4.09,2.36c-.46,.26-.4,.72,.13,1.02l3.49,2.02c.53,.3,1.32,.34,1.77,.07Z"/><path class="cls-12" d="M79.31,147.25l4.09-2.36c.45-.26,.4-.72-.13-1.02l-3.49-2.02c-.52-.3-1.32-.34-1.77-.07l-4.09,2.36c-.45,.26-.4,.72,.13,1.02l3.49,2.02c.52,.3,1.32,.34,1.77,.07Z"/><path class="cls-12" d="M72.5,151.18l4.09-2.36c.45-.26,.4-.72-.13-1.02l-3.49-2.02c-.52-.3-1.32-.34-1.77-.07l-4.09,2.36c-.45,.26-.4,.72,.13,1.02l3.49,2.02c.53,.3,1.32,.34,1.77,.07Z"/><path class="cls-12" d="M65.69,155.11l4.09-2.36c.46-.26,.4-.72-.13-1.02l-3.49-2.02c-.52-.3-1.32-.34-1.77-.07l-4.09,2.36c-.46,.26-.4,.72,.13,1.02l3.49,2.02c.53,.3,1.32,.34,1.77,.07Z"/><path class="cls-12" d="M58.87,159.05l4.09-2.36c.46-.26,.4-.72-.13-1.02l-3.49-2.02c-.53-.3-1.32-.34-1.77-.07l-4.09,2.36c-.45,.26-.4,.72,.13,1.02l3.49,2.02c.52,.3,1.32,.34,1.77,.07Z"/><path class="cls-12" d="M52.06,162.98l4.09-2.36c.45-.26,.4-.72-.13-1.02l-3.49-2.02c-.53-.3-1.32-.34-1.77-.07l-4.09,2.36c-.45,.26-.4,.72,.13,1.02l3.49,2.02c.52,.3,1.32,.34,1.77,.07Z"/><path class="cls-12" d="M170.03,128.57l3.65-2.11c.58-.33,.5-.91-.16-1.3l-2.99-1.72c-.66-.38-1.67-.43-2.24-.09l-3.65,2.11c-.58,.33-.5,.91,.16,1.3l2.99,1.73c.67,.38,1.67,.42,2.24,.09Z"/><path class="cls-12" d="M163.21,132.51l3.65-2.11c.58-.33,.5-.91-.16-1.29l-2.99-1.73c-.66-.38-1.67-.42-2.24-.09l-3.65,2.11c-.58,.33-.5,.91,.16,1.3l2.99,1.72c.66,.38,1.67,.42,2.24,.09Z"/><path class="cls-12" d="M156.4,136.44l3.65-2.11c.58-.33,.5-.91-.16-1.3l-2.99-1.73c-.66-.38-1.67-.42-2.24-.09l-3.65,2.11c-.58,.33-.5,.91,.16,1.3l2.99,1.72c.66,.38,1.67,.43,2.24,.09Z"/><path class="cls-12" d="M149.59,140.37l3.65-2.11c.57-.33,.5-.91-.16-1.3l-2.99-1.72c-.66-.38-1.67-.42-2.24-.09l-3.65,2.11c-.58,.33-.5,.91,.16,1.29l2.99,1.73c.66,.38,1.67,.42,2.24,.09Z"/><path class="cls-12" d="M101.9,167.91l3.65-2.11c.57-.33,.5-.91-.16-1.3l-2.99-1.72c-.66-.38-1.67-.42-2.24-.09l-3.65,2.11c-.58,.33-.5,.91,.16,1.29l2.99,1.73c.66,.38,1.67,.42,2.24,.09Z"/><path class="cls-12" d="M95.09,171.84l3.65-2.11c.58-.33,.5-.91-.16-1.3l-2.99-1.73c-.66-.38-1.67-.42-2.24-.09l-3.65,2.11c-.58,.33-.5,.91,.16,1.3l2.99,1.72c.66,.38,1.67,.43,2.24,.09Z"/><path class="cls-12" d="M88.28,175.77l3.65-2.11c.58-.33,.5-.91-.16-1.3l-2.99-1.72c-.66-.38-1.67-.42-2.24-.09l-3.65,2.11c-.58,.33-.5,.91,.16,1.29l2.99,1.73c.66,.38,1.67,.42,2.24,.09Z"/><path class="cls-12" d="M81.47,179.7l3.65-2.11c.58-.33,.5-.91-.16-1.29l-2.99-1.73c-.66-.38-1.67-.42-2.24-.09l-3.65,2.11c-.58,.33-.5,.91,.16,1.3l2.99,1.72c.66,.38,1.67,.43,2.24,.09Z"/><path class="cls-12" d="M108.72,163.97l37.71-21.78c.58-.33,.5-.91-.16-1.3l-2.99-1.73c-.66-.38-1.67-.42-2.24-.09l-37.71,21.77c-.58,.33-.5,.91,.16,1.3l2.99,1.72c.66,.38,1.67,.43,2.24,.09Z"/></g></g><path class="cls-18" d="M138.25,177.81c-.37,0-.75-.09-1.05-.27l-13.35-7.71c-.33-.19-.51-.45-.51-.72,0-.24,.14-.45,.39-.59l29.39-16.97c.49-.29,1.32-.26,1.88,.07l13.35,7.71c.33,.19,.51,.45,.51,.72,0,.24-.14,.45-.39,.59l-29.39,16.97c-.23,.13-.52,.2-.83,.2Zm15.77-26.17c-.24,0-.47,.05-.64,.14l-29.65,17.12c-.09,.05-.2,.14-.2,.26,0,.13,.12,.27,.32,.39l13.46,7.77c.44,.25,1.13,.29,1.51,.07l29.65-17.12c.09-.05,.2-.14,.2-.26,0-.13-.12-.27-.32-.39l-13.46-7.77c-.25-.14-.57-.21-.87-.21Z"/><path class="cls-14" d="M36.84,166.38l-3.18-1.84c-.15-.08-.26-.31-.26-.5v-.39c0-.19,.12-.28,.26-.2l3.18,1.84c.15,.08,.26,.31,.26,.5v.39c0,.19-.12,.28-.26,.2Z"/><path class="cls-14" d="M79.52,190.88l-3.18-1.84c-.15-.08-.26-.31-.26-.5v-.39c0-.19,.12-.28,.26-.2l3.18,1.84c.15,.08,.26,.31,.26,.5v.39c0,.19-.12,.28-.26,.2Z"/><path class="cls-14" d="M32.36,163.8l-3.18-1.84c-.15-.08-.26-.31-.26-.5v-.39c0-.19,.12-.28,.26-.2l3.18,1.84c.15,.08,.26,.31,.26,.5v.39c0,.19-.12,.28-.26,.2Z"/><path class="cls-14" d="M27.73,161.13l-.13-.08c-.23-.13-.41-.48-.41-.78h0c0-.3,.18-.44,.41-.31l.13,.08c.23,.13,.41,.48,.41,.78h0c0,.3-.18,.44-.41,.31Z"/></g><g><path class="cls-12" d="M32.97,131.77c-.71-.59-1.16-1.68-1.16-3.16v-53.51c0-3.08,1.87-6.66,4.18-7.99L115.97,20.93c1.53-.88,2.91-.11,2.91-.11l-1.64-.97c-.76-.6-1.82-.64-2.99,.04L34.28,66.06c-2.31,1.33-4.18,4.91-4.18,7.99v53.51c0,1.59,.5,2.73,1.3,3.29,.21,.15,1.57,.92,1.57,.92Z"/><path class="cls-4" d="M115.97,85.6l-79.97,46.17c-2.31,1.33-4.18-.08-4.18-3.16v-53.51c0-3.08,1.87-6.66,4.18-7.99L115.97,20.93c2.31-1.33,4.18,.08,4.18,3.16v53.51c0,3.08-1.87,6.66-4.18,7.99Z"/><path class="cls-17" d="M115.97,20.93L36,67.1c-2.31,1.33-4.18,4.91-4.18,7.99v2.67L120.16,26.76v-2.67c0-3.08-1.87-4.5-4.18-3.16Z"/><g><path class="cls-5" d="M103.59,51.83l11.97-7.01c.38-.22,.69-.76,.69-1.2h0c0-.44-.32-.61-.7-.38l-11.96,7.01c-.38,.22-.69,.76-.69,1.19h0c0,.44,.31,.62,.7,.39Z"/><path class="cls-15" d="M66.95,73.3l31.94-18.73c.38-.22,.69-.76,.69-1.19h0c0-.44-.31-.62-.7-.39l-31.94,18.73c-.38,.22-.69,.76-.69,1.19h0c0,.44,.31,.62,.7,.39Z"/><path class="cls-17" d="M61.06,75.17l-20.12,11.79c-.38,.22-.69,.76-.69,1.2h0c0,.44,.32,.61,.7,.38l20.12-11.79c.38-.22,.69-.76,.69-1.19h0c0-.44-.31-.62-.7-.39Z"/><path class="cls-5" d="M90.73,64.46l-11.84,6.94c-.38,.22-.69,.76-.69,1.19h0c0,.44,.31,.62,.7,.39l11.84-6.94c.38-.22,.69-.76,.69-1.19h0c0-.44-.31-.62-.7-.39Z"/><path class="cls-17" d="M97.82,61.89l17.73-10.39c.38-.22,.69-.76,.69-1.2h0c0-.44-.32-.61-.7-.38l-17.73,10.39c-.38,.22-.69,.76-.69,1.19h0c0,.44,.31,.62,.7,.39Z"/><path class="cls-5" d="M49.59,88.57l-8.65,5.07c-.38,.22-.69,.76-.69,1.2h0c0,.44,.32,.61,.7,.38l8.65-5.07c.38-.22,.69-.76,.69-1.19h0c0-.44-.31-.62-.7-.39Z"/><path class="cls-15" d="M53.84,87.68l17.98-10.54c.38-.22,.69-.76,.69-1.19h0c0-.44-.31-.62-.7-.39l-17.98,10.54c-.38,.22-.69,.76-.69,1.19h0c0,.44,.31,.62,.7,.39Z"/><path class="cls-17" d="M90.48,72.88l25.08-14.7c.38-.22,.69-.76,.69-1.2h0c0-.44-.32-.61-.7-.39l-25.08,14.7c-.38,.22-.69,.76-.69,1.19h0c0,.44,.31,.62,.7,.39Z"/><path class="cls-17" d="M63.53,88.68l17.76-10.41c.38-.22,.69-.76,.69-1.19h0c0-.44-.31-.62-.7-.39l-17.76,10.41c-.38,.22-.69,.76-.69,1.19h0c0,.44,.31,.62,.7,.39Z"/><path class="cls-15" d="M54.32,92.49l-13.38,7.84c-.38,.22-.69,.76-.69,1.2h0c0,.44,.32,.61,.7,.38l13.38-7.84c.38-.22,.69-.76,.69-1.19h0c0-.44-.31-.62-.7-.39Z"/><path class="cls-15" d="M98.18,75.05l17.37-10.18c.38-.22,.69-.76,.69-1.2h0c0-.44-.32-.61-.7-.39l-17.37,10.18c-.38,.22-.69,.76-.69,1.19h0c0,.44,.31,.62,.7,.39Z"/><path class="cls-17" d="M74.28,89.06l16.82-9.86c.38-.22,.69-.76,.69-1.19h0c0-.44-.31-.62-.7-.39l-16.82,9.86c-.38,.22-.69,.76-.69,1.19h0c0,.44,.31,.62,.7,.39Z"/><path class="cls-5" d="M67.91,91.21l-26.97,15.81c-.38,.22-.69,.76-.69,1.2h0c0,.44,.32,.61,.7,.38l26.97-15.81c.38-.22,.69-.76,.69-1.19h0c0-.44-.31-.62-.7-.39Z"/><path class="cls-5" d="M85.98,88.89l29.57-17.34c.38-.23,.69-.76,.69-1.2h0c0-.44-.32-.61-.7-.39l-29.57,17.34c-.38,.22-.69,.76-.69,1.19h0c0,.44,.31,.62,.7,.39Z"/><path class="cls-17" d="M49.59,108.63l-8.65,5.07c-.38,.23-.69,.76-.69,1.2h0c0,.44,.32,.61,.7,.38l8.65-5.07c.38-.22,.69-.76,.69-1.19h0c0-.44-.31-.62-.7-.39Z"/><path class="cls-15" d="M53.84,107.73l26.02-15.25c.38-.22,.69-.76,.69-1.19h0c0-.44-.31-.62-.7-.39l-26.02,15.25c-.38,.22-.69,.76-.69,1.19h0c0,.44,.31,.62,.7,.39Z"/><path class="cls-17" d="M101.13,44.99l-12.56,7.36c-.38,.22-.69,.76-.69,1.19h0c0,.44,.31,.62,.7,.39l12.56-7.36c.38-.22,.69-.76,.69-1.19h0c0-.44-.31-.62-.7-.39Z"/><path class="cls-17" d="M106.54,43.41l9.01-5.28c.38-.22,.69-.76,.69-1.2h0c0-.44-.32-.61-.7-.38l-9.01,5.28c-.38,.22-.69,.76-.69,1.19h0c0,.44,.31,.62,.7,.39Z"/><path class="cls-15" d="M66.97,65.02l-26.03,15.26c-.38,.22-.69,.76-.69,1.2h0c0,.44,.32,.61,.7,.39l26.03-15.26c.38-.22,.69-.76,.69-1.19h0c0-.44-.31-.62-.7-.39Z"/><path class="cls-5" d="M76.06,61.28l7.12-4.17c.38-.22,.69-.76,.69-1.19h0c0-.44-.31-.62-.7-.39l-7.12,4.17c-.38,.22-.69,.76-.69,1.19h0c0,.44,.31,.62,.7,.39Z"/><path class="cls-15" d="M86.1,93.91l-7.12,4.17c-.38,.22-.69,.76-.69,1.19h0c0,.44,.31,.62,.7,.39l7.12-4.17c.38-.22,.69-.76,.69-1.19h0c0-.44-.31-.62-.7-.39Z"/><path class="cls-17" d="M55.62,111.78l-14.68,8.6c-.38,.23-.69,.76-.69,1.2h0c0,.44,.32,.61,.7,.39l14.68-8.61c.38-.22,.69-.76,.69-1.19h0c0-.44-.31-.62-.7-.39Z"/><path class="cls-5" d="M95.19,90.18l20.36-11.94c.38-.22,.69-.76,.69-1.2h0c0-.44-.32-.61-.7-.39l-20.36,11.94c-.38,.22-.69,.76-.69,1.19h0c0,.44,.31,.62,.7,.39Z"/><path class="cls-17" d="M61.03,110.2l12.56-7.36c.38-.22,.69-.76,.69-1.19h0c0-.44-.31-.62-.7-.39l-12.56,7.36c-.38,.22-.69,.76-.69,1.19h0c0,.44,.31,.62,.7,.39Z"/><path class="cls-15" d="M37.32,83.05c0,.5-.36,1.12-.79,1.37-.44,.25-.79,.05-.79-.45s.36-1.12,.79-1.37c.44-.25,.79-.05,.79,.45Z"/><path class="cls-15" d="M37.32,89.76c0,.5-.36,1.12-.79,1.37-.44,.25-.79,.05-.79-.45s.36-1.12,.79-1.37c.44-.25,.79-.05,.79,.45Z"/><path class="cls-15" d="M37.32,96.47c0,.5-.36,1.12-.79,1.37-.44,.25-.79,.05-.79-.45s.36-1.12,.79-1.37c.44-.25,.79-.05,.79,.45Z"/><path class="cls-15" d="M37.32,103.18c0,.5-.36,1.12-.79,1.37-.44,.25-.79,.05-.79-.45s.36-1.12,.79-1.37c.44-.25,.79-.05,.79,.45Z"/><path class="cls-15" d="M37.32,109.89c0,.5-.36,1.12-.79,1.37-.44,.25-.79,.05-.79-.45s.36-1.12,.79-1.37c.44-.25,.79-.05,.79,.45Z"/><path class="cls-15" d="M37.32,116.61c0,.5-.36,1.12-.79,1.37-.44,.25-.79,.05-.79-.45s.36-1.12,.79-1.37c.44-.25,.79-.05,.79,.45Z"/><path class="cls-15" d="M37.32,123.32c0,.5-.36,1.12-.79,1.37-.44,.25-.79,.05-.79-.45s.36-1.12,.79-1.37c.44-.25,.79-.05,.79,.45Z"/></g><g><path class="cls-7" d="M45.27,66.02c0,.96,.68,1.34,1.51,.86,.83-.48,1.51-1.65,1.51-2.6s-.68-1.34-1.51-.86c-.83,.48-1.51,1.65-1.51,2.6Z"/><path class="cls-7" d="M40.29,68.9c0,.96,.68,1.34,1.51,.86,.83-.48,1.51-1.65,1.51-2.6s-.68-1.34-1.51-.86c-.83,.48-1.51,1.65-1.51,2.6Z"/><path class="cls-7" d="M35.32,71.77c0,.96,.68,1.34,1.51,.86,.83-.48,1.51-1.65,1.51-2.6s-.68-1.34-1.51-.86c-.83,.48-1.51,1.65-1.51,2.6Z"/></g></g><g><path class="cls-3" d="M41.68,174.99h-1.28l.21,.28s-.02,0-.03,0l-3.26,.13c-.32-.42-.71-.83-1.16-1.21l1.88-1.6c.06-.05,.07-.11,.07-.16h.01l.05-1.65-1.08,.94-.52-.3c-.17-.1-.43-.11-.62-.03l-2.7,1.06c-.63-.27-1.32-.51-2.05-.71l.24-1.93,.04-1.73-.31,1.47s-.05-.03-.09-.04l-1.92-.3c-.23-.04-.46,.03-.56,.15l-1.41,1.7c-.8-.05-1.6-.06-2.39-.03l-1.47-1.75c-.1-.12-.34-.19-.57-.15l-1.85,.28,.19-.72-.57-.63-.05,1.63h.01s-.01,.02-.01,.03l.25,1.89c-.73,.18-1.43,.4-2.09,.66l-2.78-1.09c-.19-.08-.45-.06-.62,.03l-.15,.09,.12-.31-1.46-.45-.05,1.65h0v.04h.02c0,.06,.01,.11,.06,.15l1.85,1.57c-.47,.36-.88,.76-1.23,1.18l-3.16-.14,.03-.21-1.2-.09-.05,1.69h.03c.01,.11,.09,.2,.25,.25l2.95,.83c-.09,.46-.1,.92-.04,1.38l-2.47,.68,.05-.26-.82-.98-.05,1.66h.02s-.02,.04,0,.06l.52,1.11c.06,.13,.27,.22,.51,.21l3.26-.13c.32,.42,.71,.83,1.16,1.21l-.44,.37v-.13l-1.47-.13-.05,1.62h.02c-.01,.07,.02,.15,.12,.21l1.41,.82c.17,.1,.43,.11,.62,.04l2.7-1.06c.63,.27,1.32,.51,2.05,.71l-.04,.32-.15-.04-.05,1.66c-.02,.13,.13,.26,.36,.29l1.92,.3c.23,.04,.46-.03,.56-.15l1.41-1.7c.8,.05,1.6,.06,2.39,.03l1.47,1.75c.1,.12,.34,.18,.57,.15l1.92-.29c.23-.04,.38-.16,.36-.29l.05-1.6-.24,.15-.06-.43c.73-.18,1.43-.4,2.09-.66l2.78,1.09c.19,.08,.45,.06,.62-.03l1.4-.81c.08-.05,.13-.11,.14-.17h0l.05-1.65-1.46,.26v.08l-.52-.44c.47-.36,.88-.76,1.23-1.18l3.35,.15c.23,.01,.45-.08,.51-.21l.51-1.11s0-.03,0-.04h.02l.05-1.71-1,1.16,.05,.09-2.32-.65c.09-.46,.1-.92,.04-1.38l3.01-.84c.19-.05,.27-.17,.25-.28l.03,.03,.05-1.67Zm-7.55,5.3c-1.89,2.65-7.18,3.91-11.79,2.8-4.61-1.11-6.82-4.17-4.93-6.82,1.89-2.65,7.18-3.91,11.79-2.8,4.61,1.11,6.82,4.17,4.93,6.82Z"/><path class="cls-6" d="M37.83,182.54l-1.85-1.57c.47-.36,.88-.76,1.23-1.18l3.35,.15c.23,.01,.45-.08,.51-.21l.51-1.11c.06-.13-.05-.27-.26-.33l-2.95-.83c.09-.46,.1-.92,.03-1.38l3.01-.84c.21-.06,.32-.2,.26-.33l-.52-1.11c-.06-.13-.27-.22-.51-.21l-3.26,.13c-.32-.42-.71-.83-1.16-1.21l1.88-1.6c.13-.11,.11-.26-.06-.36l-1.41-.82c-.17-.1-.43-.11-.62-.04l-2.7,1.06c-.63-.27-1.32-.51-2.05-.71l.24-1.93c.02-.13-.13-.26-.36-.29l-1.92-.3c-.23-.04-.46,.03-.56,.15l-1.41,1.7c-.8-.05-1.6-.06-2.39-.03l-1.47-1.75c-.1-.12-.34-.18-.57-.15l-1.92,.29c-.23,.04-.38,.16-.36,.29l.25,1.89c-.73,.18-1.43,.4-2.09,.66l-2.78-1.09c-.19-.08-.45-.06-.62,.03l-1.4,.81c-.16,.1-.19,.25-.06,.36l1.85,1.57c-.47,.36-.88,.76-1.23,1.18l-3.35-.15c-.23,0-.45,.08-.51,.21l-.51,1.11c-.06,.13,.05,.27,.26,.33l2.95,.83c-.09,.46-.1,.92-.04,1.38l-3.01,.84c-.21,.06-.32,.2-.26,.33l.52,1.11c.06,.13,.27,.22,.51,.21l3.26-.13c.32,.42,.71,.83,1.16,1.21l-1.87,1.6c-.13,.11-.11,.26,.06,.36l1.41,.82c.17,.1,.43,.11,.62,.03l2.7-1.06c.63,.27,1.32,.51,2.05,.71l-.24,1.93c-.02,.13,.13,.26,.36,.29l1.92,.3c.23,.04,.46-.03,.56-.15l1.41-1.7c.8,.05,1.6,.06,2.39,.03l1.47,1.75c.1,.12,.34,.19,.57,.15l1.92-.29c.23-.04,.38-.16,.36-.29l-.25-1.89c.73-.18,1.43-.4,2.09-.66l2.78,1.09c.19,.08,.45,.06,.62-.03l1.4-.81c.16-.09,.19-.25,.06-.36Zm-15.44-1.11c-4.61-1.11-6.82-4.17-4.93-6.82,1.89-2.65,7.18-3.91,11.79-2.8,4.61,1.11,6.82,4.17,4.93,6.82-1.89,2.65-7.18,3.91-11.79,2.8Z"/></g><g><path class="cls-10" d="M59.99,185.12h-.82l.13,.18s-.01,0-.02,0l-2.09,.09c-.21-.27-.45-.53-.74-.78l1.2-1.02s.05-.07,.05-.1h0l.03-1.06-.7,.6-.33-.19c-.11-.06-.27-.07-.4-.02l-1.73,.68c-.41-.17-.85-.33-1.32-.46l.15-1.24,.03-1.11-.2,.95s-.03-.02-.06-.02l-1.24-.19c-.14-.02-.3,.02-.36,.1l-.91,1.09c-.51-.03-1.03-.04-1.54-.02l-.94-1.12c-.07-.08-.22-.12-.36-.1l-1.19,.18,.12-.46-.37-.4-.03,1.04h0s0,.01,0,.02l.16,1.21c-.47,.12-.92,.26-1.34,.42l-1.78-.7c-.12-.05-.29-.04-.4,.02l-.09,.05,.07-.2-.94-.29-.03,1.06h0v.02h.01s0,.07,.04,.1l1.19,1c-.3,.23-.56,.49-.79,.76l-2.03-.09,.02-.14-.77-.06-.03,1.08h.02c0,.07,.05,.13,.16,.16l1.89,.53c-.06,.3-.06,.59-.02,.89l-1.58,.44,.03-.17-.53-.63-.03,1.07h.02s0,.02,0,.04l.33,.71c.04,.08,.18,.14,.33,.13l2.09-.08c.21,.27,.45,.53,.75,.78l-.28,.24v-.08l-.94-.08-.03,1.04h.01s.01,.1,.08,.14l.91,.52c.11,.06,.27,.07,.4,.02l1.73-.68c.41,.17,.85,.33,1.32,.46l-.03,.21-.09-.03-.03,1.06c-.01,.09,.09,.17,.23,.19l1.24,.19c.14,.02,.3-.02,.36-.1l.91-1.09c.51,.04,1.03,.04,1.54,.02l.94,1.12c.07,.08,.22,.12,.36,.1l1.23-.19c.14-.02,.24-.1,.23-.19l.03-1.03-.15,.1-.04-.28c.47-.12,.92-.26,1.34-.42l1.78,.7c.12,.05,.29,.04,.4-.02l.9-.52c.05-.03,.08-.07,.09-.11h0l.03-1.06-.93,.16v.05l-.34-.29c.3-.23,.56-.49,.79-.76l2.15,.09c.15,0,.29-.05,.32-.13l.33-.71s0-.02,0-.03h.01l.04-1.09-.64,.74,.03,.05-1.49-.42c.06-.3,.06-.59,.02-.89l1.94-.54c.12-.03,.17-.11,.16-.18l.02,.02,.03-1.07Zm-4.85,3.4c-1.21,1.7-4.61,2.51-7.57,1.8-2.96-.71-4.38-2.68-3.16-4.38,1.21-1.7,4.61-2.51,7.57-1.8,2.96,.71,4.38,2.68,3.16,4.38Z"/><path class="cls-11" d="M57.51,189.97l-1.19-1c.3-.23,.56-.49,.79-.76l2.15,.1c.15,0,.29-.05,.33-.13l.33-.71c.04-.08-.03-.17-.17-.21l-1.89-.53c.06-.3,.06-.59,.02-.89l1.94-.54c.14-.04,.2-.13,.16-.21l-.33-.71c-.04-.08-.18-.14-.33-.13l-2.1,.09c-.2-.27-.45-.53-.74-.78l1.2-1.03c.08-.07,.07-.17-.04-.23l-.91-.52c-.11-.06-.27-.07-.4-.02l-1.73,.68c-.41-.17-.85-.33-1.32-.46l.15-1.24c.01-.09-.09-.17-.23-.19l-1.24-.19c-.15-.02-.3,.02-.36,.1l-.91,1.09c-.51-.04-1.03-.04-1.54-.02l-.94-1.12c-.07-.08-.22-.12-.36-.1l-1.23,.19c-.15,.02-.24,.1-.23,.19l.16,1.21c-.47,.12-.92,.26-1.34,.42l-1.78-.7c-.12-.05-.29-.04-.4,.02l-.9,.52c-.11,.06-.12,.16-.04,.23l1.19,1.01c-.3,.23-.56,.49-.79,.76l-2.15-.09c-.15,0-.29,.05-.33,.13l-.33,.71c-.04,.08,.03,.17,.17,.21l1.89,.53c-.06,.3-.06,.59-.02,.89l-1.94,.54c-.14,.04-.2,.12-.16,.21l.33,.71c.04,.08,.18,.14,.33,.13l2.1-.09c.2,.27,.45,.53,.74,.78l-1.2,1.03c-.08,.07-.07,.17,.04,.23l.91,.52c.11,.06,.27,.07,.4,.02l1.73-.68c.41,.17,.85,.33,1.32,.46l-.15,1.24c-.01,.09,.09,.17,.23,.19l1.24,.19c.15,.02,.3-.02,.36-.09l.91-1.09c.51,.03,1.03,.04,1.54,.02l.94,1.12c.07,.08,.22,.12,.36,.1l1.23-.19c.15-.02,.24-.1,.23-.19l-.16-1.21c.47-.12,.92-.26,1.34-.43l1.78,.7c.12,.05,.29,.04,.4-.02l.9-.52c.11-.06,.12-.16,.04-.23Zm-9.91-.71c-2.96-.71-4.38-2.68-3.16-4.38,1.21-1.7,4.61-2.51,7.57-1.8,2.96,.71,4.38,2.68,3.16,4.38-1.21,1.7-4.61,2.51-7.57,1.8Z"/></g><g><path class="cls-10" d="M149.93,13.62l-1.56-.78h0c-.18-.09-.41-.09-.67,.06l-14.32,8.27c-.57,.33-1.04,1.22-1.04,1.98v16.05c0,.48,.19,.8,.47,.88l1.57,.79,.72-1.56-.4-.09,13-7.5c.57-.33,1.04-1.22,1.04-1.98V14.86h.42l.77-1.25Z"/><path class="cls-16" d="M149.23,32.47l-14.32,8.27c-.57,.33-1.04-.02-1.04-.78V23.9c0-.76,.46-1.65,1.04-1.98l14.32-8.27c.57-.33,1.04,.02,1.04,.78V30.49c0,.76-.46,1.65-1.04,1.98Z"/><g><path class="cls-1" d="M136.92,30.83l-.97,.56v1.69c0,.24-.05,.45-.15,.64-.1,.18-.23,.32-.38,.4-.16,.09-.29,.1-.38,.04-.1-.07-.15-.22-.15-.46v-4.6c0-.27,.05-.49,.16-.66,.11-.18,.28-.33,.51-.46l1.35-.78c.4-.23,.71-.37,.92-.43,.21-.06,.4-.05,.55,.02,.16,.07,.27,.19,.35,.37,.08,.18,.12,.42,.12,.7,0,.61-.16,1.16-.49,1.67-.33,.5-.81,.94-1.46,1.31Zm-.26-2.59l-.71,.41v1.82l.71-.41c.25-.14,.46-.29,.62-.45,.17-.16,.29-.33,.38-.51s.13-.39,.13-.61c0-.26-.07-.44-.2-.53-.15-.09-.46,0-.93,.27Z"/><path class="cls-1" d="M140.81,25.57v1.71l2.27-1.31v-1.71c0-.24,.05-.46,.14-.63s.22-.31,.38-.4c.16-.09,.29-.11,.38-.04,.1,.06,.15,.22,.15,.47v4.7c0,.25-.05,.46-.15,.64-.1,.18-.23,.31-.38,.4-.16,.09-.29,.1-.38,.03-.09-.07-.14-.23-.14-.47v-2.01l-2.27,1.31v2.01c0,.25-.05,.46-.15,.64s-.23,.31-.38,.41c-.16,.09-.29,.1-.38,.03-.09-.07-.14-.23-.14-.47v-4.7c0-.25,.05-.46,.14-.63,.09-.18,.22-.31,.38-.4,.16-.09,.29-.1,.39-.04,.1,.06,.15,.22,.15,.47Z"/><path class="cls-1" d="M147.3,24.84l-.97,.56v1.69c0,.24-.05,.45-.15,.64-.1,.18-.22,.32-.38,.4-.16,.09-.29,.1-.38,.04-.1-.07-.15-.22-.15-.46v-4.6c0-.27,.05-.49,.16-.66,.11-.18,.28-.33,.51-.46l1.35-.78c.4-.23,.71-.37,.92-.43,.21-.06,.4-.05,.55,.02,.16,.07,.27,.19,.35,.37,.08,.18,.12,.42,.12,.7,0,.61-.16,1.16-.49,1.67-.33,.5-.81,.94-1.46,1.31Zm-.26-2.59l-.71,.41v1.83l.71-.41c.25-.14,.46-.29,.62-.45,.17-.16,.29-.33,.38-.51,.09-.19,.13-.39,.13-.61,0-.26-.07-.44-.2-.53-.15-.09-.46,0-.93,.27Z"/></g></g><g><path class="cls-9" d="M25.42,119.2l-1.56-.78h0c-.18-.09-.41-.09-.67,.06l-14.32,8.27c-.57,.33-1.04,1.22-1.04,1.98v16.05c0,.48,.19,.8,.47,.88l1.57,.79,.72-1.56-.4-.09,13-7.5c.57-.33,1.04-1.22,1.04-1.98v-14.86h.42l.77-1.25Z"/><path class="cls-17" d="M24.72,138.05l-14.32,8.27c-.57,.33-1.04-.02-1.04-.78v-16.05c0-.76,.46-1.65,1.04-1.98l14.32-8.27c.57-.33,1.04,.02,1.04,.78v16.05c0,.76-.46,1.65-1.04,1.98Z"/><g><path class="cls-1" d="M15.6,135.51c0,.19-.04,.42-.12,.69-.08,.27-.21,.56-.39,.87-.17,.31-.4,.62-.67,.91-.27,.29-.59,.54-.95,.75-.27,.16-.52,.27-.75,.34-.22,.07-.43,.1-.61,.08s-.35-.09-.51-.21c-.14-.11-.25-.25-.35-.43-.1-.18-.17-.38-.22-.62-.05-.24-.07-.5-.07-.8,0-.48,.06-.95,.18-1.4,.12-.45,.3-.88,.52-1.28,.23-.4,.49-.76,.8-1.08,.3-.32,.63-.58,.98-.78,.42-.24,.8-.36,1.12-.36,.33,0,.58,.1,.76,.28,.17,.18,.26,.4,.26,.65,0,.14-.04,.29-.13,.44-.09,.16-.19,.27-.31,.34-.14,.08-.24,.1-.3,.06-.07-.03-.14-.12-.23-.25-.14-.22-.3-.34-.48-.38-.19-.04-.41,.02-.69,.18-.43,.25-.78,.64-1.03,1.16-.26,.53-.39,1.14-.39,1.83,0,.46,.06,.82,.17,1.06,.11,.24,.27,.38,.48,.41,.21,.03,.45-.03,.73-.19,.3-.17,.56-.41,.77-.7,.21-.29,.37-.64,.47-1.03,.04-.18,.1-.34,.17-.48,.07-.14,.17-.25,.32-.33,.13-.07,.23-.08,.32-.04,.09,.05,.13,.15,.13,.3Z"/><path class="cls-1" d="M18.55,134.83l-.92,.53v-1.55l-1.36,.79v-1.07l1.36-.79v-1.56l.92-.53v1.56l1.37-.79v1.07l-1.37,.79v1.55Z"/><path class="cls-1" d="M22.79,132.38l-.92,.53v-1.55l-1.36,.79v-1.07l1.36-.79v-1.56l.92-.53v1.56l1.37-.79v1.07l-1.37,.79v1.55Z"/></g></g><g><path class="cls-6" d="M143.7,59.74l-1.48-.74h0c-.17-.09-.39-.09-.63,.05l-13.54,7.82c-.54,.31-.98,1.15-.98,1.87v15.18c0,.46,.18,.75,.44,.84l1.48,.74,.68-1.47-.37-.09,12.29-7.1c.54-.31,.98-1.15,.98-1.87v-14.05h.4l.73-1.18Z"/><path class="cls-5" d="M143.04,77.56l-13.54,7.82c-.54,.31-.98-.02-.98-.74v-15.18c0-.72,.44-1.56,.98-1.87l13.54-7.82c.54-.31,.98,.02,.98,.74v15.18c0,.72-.44,1.56-.98,1.87Z"/><g><path class="cls-1" d="M134.13,74.95c0,.17-.04,.37-.11,.61-.07,.24-.19,.5-.34,.77-.16,.28-.35,.55-.59,.8-.24,.26-.52,.48-.84,.66-.24,.14-.46,.24-.66,.3-.2,.06-.38,.08-.54,.07-.16-.02-.31-.08-.45-.18-.12-.1-.23-.22-.31-.38-.08-.16-.15-.34-.19-.54-.04-.21-.06-.44-.06-.71,0-.42,.05-.84,.16-1.24,.11-.4,.26-.77,.46-1.13,.2-.35,.44-.67,.71-.95,.27-.28,.56-.51,.86-.69,.37-.21,.7-.32,1-.32,.29,0,.51,.09,.67,.25,.16,.16,.23,.35,.23,.58,0,.12-.04,.25-.11,.39-.08,.14-.17,.24-.27,.3-.12,.07-.21,.09-.27,.06-.06-.03-.13-.1-.2-.22-.12-.19-.26-.3-.43-.34-.16-.04-.37,.02-.61,.16-.38,.22-.69,.56-.92,1.03-.23,.46-.34,1-.34,1.62,0,.41,.05,.72,.15,.94,.1,.21,.24,.34,.43,.36,.18,.03,.4-.03,.65-.17,.27-.16,.49-.36,.68-.62,.19-.26,.33-.56,.42-.91,.04-.16,.09-.3,.15-.43,.06-.12,.15-.22,.28-.29,.11-.06,.21-.08,.29-.03,.08,.04,.12,.13,.12,.26Z"/><path class="cls-1" d="M138.47,72.53c0,.32-.07,.65-.21,.98-.14,.34-.35,.66-.63,.96-.28,.3-.6,.56-.98,.78-.45,.26-.83,.38-1.12,.35-.21-.02-.38-.11-.51-.27-.13-.16-.2-.35-.2-.58,0-.13,.04-.26,.12-.4,.08-.14,.18-.24,.3-.31,.1-.06,.18-.07,.25-.04,.07,.03,.13,.11,.17,.22,.06,.13,.12,.24,.19,.31,.07,.07,.16,.11,.29,.11,.12,0,.29-.06,.49-.17,.28-.16,.5-.36,.67-.61,.17-.25,.26-.48,.26-.7,0-.17-.05-.29-.14-.35-.09-.06-.21-.07-.36-.04-.15,.03-.34,.08-.59,.16-.33,.1-.61,.16-.83,.17-.22,.01-.4-.05-.53-.18-.13-.13-.2-.35-.2-.65s.07-.59,.21-.89c.14-.3,.34-.59,.6-.87,.26-.27,.57-.51,.92-.71,.28-.16,.53-.26,.73-.3,.21-.04,.38-.03,.51,.02,.14,.05,.24,.14,.3,.25,.06,.11,.09,.23,.09,.37,0,.13-.04,.26-.12,.41-.08,.15-.18,.25-.29,.32-.11,.06-.19,.08-.24,.05-.05-.03-.12-.09-.18-.2-.08-.15-.18-.25-.3-.29s-.31,0-.56,.16c-.24,.14-.43,.31-.58,.52-.15,.21-.22,.39-.22,.57,0,.11,.03,.18,.08,.23,.05,.05,.12,.07,.21,.08,.09,0,.18,0,.27-.02,.09-.02,.24-.06,.45-.12,.26-.08,.49-.14,.7-.18,.21-.04,.39-.04,.54,0,.15,.04,.26,.12,.34,.26,.08,.14,.12,.34,.12,.6Z"/><path class="cls-1" d="M142.76,70.06c0,.32-.07,.65-.21,.99-.14,.34-.35,.66-.63,.96-.28,.3-.6,.56-.98,.78-.45,.26-.83,.38-1.12,.35-.21-.02-.38-.11-.51-.27-.13-.16-.2-.35-.2-.58,0-.13,.04-.26,.12-.4,.08-.14,.18-.24,.3-.31,.1-.06,.18-.07,.25-.04,.07,.03,.13,.11,.17,.22,.06,.13,.12,.24,.19,.31,.07,.07,.16,.11,.29,.11,.12,0,.29-.05,.49-.17,.28-.16,.5-.36,.67-.61,.17-.25,.26-.48,.26-.7,0-.18-.05-.29-.14-.35-.09-.05-.21-.07-.36-.04-.15,.03-.34,.08-.59,.16-.33,.1-.61,.16-.83,.17-.22,0-.4-.05-.53-.18-.13-.13-.2-.35-.2-.65s.07-.59,.21-.89c.14-.31,.34-.59,.6-.87,.26-.27,.57-.51,.92-.71,.28-.16,.53-.26,.73-.3,.21-.04,.38-.03,.51,.02,.14,.05,.24,.14,.3,.25,.06,.11,.09,.24,.09,.37,0,.13-.04,.26-.12,.41-.08,.15-.18,.25-.29,.32-.11,.06-.19,.08-.24,.05-.05-.03-.12-.09-.18-.2-.08-.15-.18-.25-.3-.29-.12-.04-.31,0-.56,.16-.24,.14-.44,.31-.58,.52-.15,.21-.22,.4-.22,.57,0,.11,.02,.18,.08,.23,.05,.05,.12,.07,.21,.08,.09,0,.18,0,.27-.02,.09-.02,.24-.06,.45-.12,.26-.08,.49-.14,.7-.18,.21-.04,.39-.04,.54,0,.15,.03,.26,.12,.34,.26,.08,.14,.12,.34,.12,.6Z"/></g></g><g><path class="cls-2" d="M13.75,85.02l-1.22-.61h0c-.14-.07-.32-.07-.52,.04L.81,90.91c-.45,.26-.81,.95-.81,1.55v12.54c0,.38,.14,.62,.36,.69l1.23,.61,.56-1.22-.31-.07,10.16-5.86c.45-.26,.81-.95,.81-1.55v-11.61h.33l.6-.97Z"/><path class="cls-8" d="M13.2,99.74l-11.19,6.46c-.45,.26-.81-.02-.81-.61v-12.54c0-.6,.36-1.29,.81-1.55l11.19-6.46c.45-.26,.81,.02,.81,.61v12.54c0,.6-.36,1.29-.81,1.55Z"/><g><path class="cls-1" d="M4.17,96.74v1.87c0,.16,0,.3-.02,.42-.01,.12-.04,.25-.08,.39-.07,.24-.19,.46-.35,.66s-.36,.37-.59,.51c-.21,.12-.39,.19-.53,.19-.14,0-.25-.05-.34-.17-.05-.06-.08-.15-.11-.25-.03-.1-.04-.21-.04-.31,0-.11,.03-.22,.08-.31,.05-.09,.13-.16,.21-.21,.08-.05,.15-.06,.19-.03,.04,.03,.08,.1,.1,.2,.02,.11,.05,.2,.07,.26,.02,.06,.06,.1,.12,.12,.06,.02,.14,0,.24-.06,.28-.16,.42-.48,.42-.95v-1.98c0-.15,.03-.27,.08-.38,.06-.11,.13-.19,.23-.24,.1-.06,.17-.06,.23-.02,.06,.04,.09,.13,.09,.28Z"/><path class="cls-1" d="M6.74,98.05l-.15-.36-1.27,.73-.15,.54c-.06,.21-.11,.36-.15,.45-.04,.09-.11,.16-.2,.21-.08,.05-.15,.05-.21,.02-.06-.03-.09-.09-.09-.17,0-.05,0-.1,.02-.16,.01-.06,.04-.15,.07-.26l.8-2.78c.02-.08,.05-.18,.08-.29,.03-.11,.07-.21,.1-.29,.04-.08,.08-.16,.14-.23,.06-.07,.13-.13,.22-.18,.09-.05,.16-.07,.22-.07,.06,0,.11,.03,.14,.07,.04,.04,.07,.09,.09,.14,.02,.05,.06,.13,.09,.22l.81,1.84c.06,.14,.1,.25,.1,.33,0,.08-.03,.18-.09,.28-.06,.1-.13,.18-.22,.23-.05,.03-.09,.04-.13,.04s-.07,0-.09-.03c-.02-.02-.05-.06-.08-.12-.03-.06-.05-.11-.07-.15Zm-1.25-.27l.93-.54-.47-1.2-.46,1.74Z"/><path class="cls-1" d="M8.12,94.5l.71,1.99,.71-2.82c.04-.15,.06-.25,.08-.31,.02-.06,.05-.12,.09-.19,.04-.06,.1-.12,.17-.16,.05-.03,.1-.04,.15-.04,.05,0,.08,.02,.11,.06,.03,.04,.04,.08,.04,.13,0,.04,0,.08-.01,.12,0,.05-.02,.09-.03,.14-.01,.05-.03,.1-.04,.15l-.75,2.77c-.03,.11-.05,.21-.08,.3-.03,.1-.06,.18-.09,.27-.04,.08-.08,.16-.14,.23-.06,.07-.13,.13-.21,.18-.09,.05-.16,.07-.22,.07-.06,0-.11-.03-.14-.07-.04-.04-.07-.09-.09-.16-.03-.06-.05-.13-.08-.21l-.74-1.89s-.03-.07-.04-.1c-.01-.03-.03-.07-.03-.11,0-.04-.01-.08-.01-.11,0-.08,.03-.18,.09-.28,.06-.1,.13-.18,.22-.23,.11-.06,.18-.07,.23-.02s.09,.14,.14,.28Z"/><path class="cls-1" d="M12.43,94.77l-.15-.36-1.27,.73-.15,.54c-.06,.21-.11,.36-.15,.45-.04,.09-.11,.16-.2,.21-.08,.05-.15,.05-.21,.02-.06-.03-.09-.09-.09-.17,0-.05,0-.1,.02-.16,.01-.06,.04-.15,.07-.26l.8-2.78c.02-.08,.05-.18,.08-.29,.03-.11,.07-.21,.1-.29,.04-.08,.08-.16,.14-.23,.06-.07,.13-.13,.22-.18,.09-.05,.16-.07,.22-.07,.06,0,.11,.03,.14,.06,.04,.04,.07,.09,.09,.14,.02,.05,.06,.13,.09,.22l.81,1.84c.06,.14,.1,.25,.1,.33s-.03,.18-.09,.28c-.06,.1-.13,.18-.22,.23-.05,.03-.09,.04-.13,.04s-.07-.01-.09-.03c-.02-.02-.05-.06-.08-.12-.03-.06-.05-.11-.07-.15Zm-1.25-.27l.93-.54-.47-1.2-.46,1.74Z"/></g></g></svg>