<svg xmlns="http://www.w3.org/2000/svg" viewBox="0 0 512 512"><defs><style>.cls-1{fill:#06ccab;}.cls-2{fill:#e8ba64;}.cls-3{fill:#fff;}.cls-4{fill:#d1a359;}.cls-5{fill:#d8d8d8;}.cls-6{fill:#72360e;}.cls-7{fill:#8a4711;}.cls-8{fill:#3a3f49;}</style></defs><title>Development</title><g id="BULINE"><circle class="cls-1" cx="256" cy="256" r="256"/></g><g id="Icons"><path class="cls-2" d="M471.65,232.07a33.67,33.67,0,0,1,0,47.86C433.71,317.48,351.42,386,256,386S78.29,317.48,40.35,279.93a33.67,33.67,0,0,1,0-47.86C78.29,194.52,160.58,126,256,126S433.71,194.52,471.65,232.07Z"/><path class="cls-3" d="M428.31,231.28a36.58,36.58,0,0,1,0,54.87c-34.9,30.73-99,76.28-172.31,76.28S118.59,316.88,83.69,286.15a36.58,36.58,0,0,1,0-54.87C118.59,200.55,182.7,155,256,155S393.41,200.55,428.31,231.28Z"/><path class="cls-4" d="M283.55,360.33A286.32,286.32,0,0,0,322,375.54,222.3,222.3,0,0,1,256,386c-95.42,0-177.71-68.52-215.65-106.07a33.67,33.67,0,0,1,0-47.86C78.29,194.52,160.58,126,256,126a222.3,222.3,0,0,1,66,10.46A292.18,292.18,0,0,0,274.87,156c-44.76,23.11-80.86,54.64-102.52,76.07a33.67,33.67,0,0,0,0,47.86C195.39,302.73,234.79,337,283.55,360.33Z"/><path class="cls-5" d="M283.55,360.33a184.4,184.4,0,0,1-27.55,2.1c-73.3,0-137.41-45.55-172.31-76.28a36.58,36.58,0,0,1,0-54.87C118.59,200.55,182.7,155,256,155a178.57,178.57,0,0,1,18.87,1c-44.76,23.11-80.86,54.64-102.52,76.07a33.67,33.67,0,0,0,0,47.86C195.39,302.73,234.79,337,283.55,360.33Z"/><circle class="cls-6" cx="256" cy="258.72" r="96"/><circle class="cls-7" cx="256" cy="258.72" r="60"/><circle class="cls-8" cx="256" cy="258.72" r="39.38"/><circle class="cls-3" cx="285.07" cy="212.97" r="21.97"/><circle class="cls-3" cx="273.41" cy="258.72" r="11.66"/></g></svg>