<?xml version="1.0" encoding="UTF-8"?><svg id="Layer_1" xmlns="http://www.w3.org/2000/svg" viewBox="0 0 194.72 211.15"><defs><style>.cls-1{fill:#f2bd34;}.cls-2{fill:#e83565;}.cls-3{fill:#98d5ff;}.cls-4{fill:#302d70;}.cls-5{fill:#b186f4;}.cls-6{fill:#cfbcff;}.cls-7{fill:#463e8c;}.cls-8{fill:#534f9d;}.cls-9{fill:#795dd0;}.cls-10{fill:#4f93fc;}.cls-11{fill:#7ae55a;}.cls-12{fill:#3378dc;}</style></defs><path class="cls-3" d="M152.66,23.67L125.94,6.33c-.68-.47-1.39-.89-2.14-1.25l-.04-.02h0c-4.45-2.11-10.05-2.15-16.26,.22-3.26-5.77-10.11-7.09-18.03-2.52-2.75,1.59-5.38,3.74-7.77,6.28-5.43-6.13-14.65-6.91-25.11-.87-15.5,8.95-28.26,29.7-30.02,47.96C11.63,66.63,0,87.87,0,105.52v.22c.03,5.49,2.05,9.26,5.27,10.97l2.45,1.44,21.44,13.83,9.97-29.15L116.6,58.1c8.81-5.09,16.36-16.95,17.36-27.57,.02-.23,.03-.45,.05-.67l14.96,3.35,3.69-9.54Z"/><path class="cls-4" d="M74.08,166.92c-.11,0-.23-.03-.34-.09l-26.21-15.61c-.2-.12-.32-.33-.32-.57v-51.55c0-.36,.29-.66,.66-.66s.66,.29,.66,.66v51.17l25.88,15.42c.31,.19,.41,.59,.23,.9-.12,.21-.34,.32-.57,.32Z"/><path class="cls-4" d="M144.13,126.12c-.12,0-.24-.03-.34-.09l-26.78-15.96c-.2-.12-.33-.34-.33-.58V56.81c0-.37,.3-.67,.67-.67s.67,.3,.67,.67v52.3l26.45,15.76c.32,.19,.42,.6,.23,.92-.13,.21-.35,.33-.58,.33Z"/><path class="cls-10" d="M141.67,74.12c8.81-5.09,16.36-16.95,17.36-27.57,.14-1.47,.21-2.92,.21-4.35,0-18.21-11.52-26.68-26.66-20.92-3.26-5.77-10.11-7.09-18.03-2.52-2.75,1.59-5.38,3.74-7.77,6.28-5.43-6.13-14.65-6.91-25.11-.87-15.5,8.95-28.26,29.7-30.02,47.96-14.95,10.51-26.58,31.75-26.58,49.4,0,.07,0,.15,0,.22,.06,10.9,7.97,15.07,17.5,9.57l99.1-57.22Z"/><g><g><path class="cls-4" d="M105.42,207c-9.63,5.56-25.28,5.53-34.97-.06-9.69-5.59-9.74-14.63-.11-20.19,9.63-5.56,25.28-5.53,34.97,.06s9.74,14.63,.11,20.19Z"/><rect class="cls-4" x="63.14" y="182.84" width="49.46" height="14"/><path class="cls-8" d="M105.42,193.11c-9.63,5.56-25.28,5.53-34.97-.06-9.69-5.59-9.74-14.63-.11-20.19,9.63-5.56,25.28-5.53,34.97,.06s9.74,14.63,.11,20.19Z"/><path class="cls-11" d="M88.04,204.64c-6.46,0-12.93-1.42-17.86-4.27-.26-.15-.35-.48-.2-.74,.15-.26,.48-.35,.74-.2,9.52,5.5,24.97,5.53,34.43,.06,1.95-1.13,3.53-2.42,4.69-3.83,.19-.23,.53-.27,.76-.08,.23,.19,.27,.53,.08,.76-1.24,1.52-2.92,2.89-4.98,4.09-4.86,2.81-11.25,4.21-17.66,4.21Z"/><path class="cls-11" d="M66.8,197.18c0,.33-.23,.46-.52,.3-.29-.17-.52-.57-.52-.9s.23-.46,.52-.3,.52,.57,.52,.9Z"/><path class="cls-1" d="M65.33,195.33c0,.33-.23,.46-.52,.3s-.52-.57-.52-.9,.23-.46,.52-.3c.29,.17,.52,.57,.52,.9Z"/><path class="cls-5" d="M68.6,198.77c0,.33-.23,.46-.52,.3-.29-.17-.52-.57-.52-.9s.23-.46,.52-.3c.29,.17,.52,.57,.52,.9Z"/><path class="cls-4" d="M103.31,191.89c-8.47,4.89-22.24,4.86-30.76-.06-8.52-4.92-8.56-12.87-.1-17.76,8.47-4.89,22.24-4.86,30.76,.06,8.52,4.92,8.56,12.87,.1,17.76Z"/></g><path class="cls-9" d="M107.45,181.93h0v-11.08h-16.23c-2.31-.24-4.67-.24-6.97,0h-15.96v11.08h0c.02,2.89,1.94,5.79,5.78,8,7.67,4.43,20.06,4.45,27.68,.05,3.84-2.22,5.73-5.14,5.69-8.05Z"/><g><path class="cls-4" d="M105.42,185.77c-9.63,5.56-25.28,5.53-34.97-.06-9.69-5.59-9.74-14.63-.11-20.19,9.63-5.56,25.28-5.53,34.97,.06,9.69,5.59,9.74,14.63,.11,20.19Z"/><rect class="cls-4" x="63.14" y="161.6" width="49.46" height="14"/><path class="cls-8" d="M105.42,171.88c-9.63,5.56-25.28,5.53-34.97-.06-9.69-5.59-9.74-14.63-.11-20.19,9.63-5.56,25.28-5.53,34.97,.06,9.69,5.59,9.74,14.63,.11,20.19Z"/><path class="cls-11" d="M88.04,183.4c-6.46,0-12.93-1.42-17.86-4.27-.26-.15-.35-.48-.2-.74,.15-.26,.48-.35,.74-.2,9.52,5.5,24.97,5.53,34.43,.06,1.95-1.13,3.53-2.42,4.69-3.83,.19-.23,.53-.26,.76-.08,.23,.19,.27,.53,.08,.76-1.24,1.52-2.92,2.89-4.98,4.09-4.86,2.81-11.25,4.21-17.66,4.21Z"/><path class="cls-11" d="M66.8,175.94c0,.33-.23,.46-.52,.3s-.52-.57-.52-.9,.23-.46,.52-.3c.29,.17,.52,.57,.52,.9Z"/><path class="cls-1" d="M65.33,174.1c0,.33-.23,.46-.52,.3-.29-.17-.52-.57-.52-.9s.23-.46,.52-.3,.52,.57,.52,.9Z"/><path class="cls-5" d="M68.6,177.53c0,.33-.23,.46-.52,.3-.29-.17-.52-.57-.52-.9s.23-.46,.52-.3c.29,.17,.52,.57,.52,.9Z"/><path class="cls-4" d="M103.31,170.66c-8.47,4.89-22.24,4.86-30.76-.06-8.52-4.92-8.56-12.87-.1-17.76,8.47-4.89,22.24-4.86,30.76,.06,8.52,4.92,8.56,12.87,.1,17.76Z"/></g><path class="cls-9" d="M107.45,160.69h0v-11.08h-16.23c-2.31-.24-4.67-.24-6.97,0h-15.96v11.08h0c.02,2.89,1.94,5.79,5.78,8,7.67,4.43,20.06,4.45,27.68,.05,3.84-2.22,5.73-5.14,5.69-8.05Z"/><g><path class="cls-4" d="M105.42,165.05c-9.63,5.56-25.28,5.53-34.97-.06-9.69-5.59-9.74-14.63-.11-20.19,9.63-5.56,25.28-5.53,34.97,.06,9.69,5.59,9.74,14.63,.11,20.19Z"/><rect class="cls-4" x="63.14" y="140.88" width="49.46" height="14"/><path class="cls-8" d="M105.42,151.16c-9.63,5.56-25.28,5.53-34.97-.06-9.69-5.59-9.74-14.63-.11-20.19,9.63-5.56,25.28-5.53,34.97,.06s9.74,14.63,.11,20.19Z"/><path class="cls-11" d="M88.04,162.69c-6.46,0-12.93-1.42-17.86-4.27-.26-.15-.35-.48-.2-.74,.15-.26,.48-.35,.74-.2,9.52,5.5,24.97,5.53,34.43,.06,1.95-1.13,3.53-2.42,4.69-3.83,.19-.23,.53-.26,.76-.08,.23,.19,.27,.53,.08,.76-1.24,1.52-2.92,2.89-4.98,4.09-4.86,2.81-11.25,4.21-17.66,4.21Z"/><path class="cls-11" d="M66.8,155.23c0,.33-.23,.46-.52,.3s-.52-.57-.52-.9,.23-.46,.52-.3c.29,.17,.52,.57,.52,.9Z"/><path class="cls-1" d="M65.33,153.38c0,.33-.23,.46-.52,.3-.29-.17-.52-.57-.52-.9s.23-.46,.52-.3c.29,.17,.52,.57,.52,.9Z"/><path class="cls-5" d="M68.6,156.82c0,.33-.23,.46-.52,.3-.29-.17-.52-.57-.52-.9s.23-.46,.52-.3c.29,.17,.52,.57,.52,.9Z"/><path class="cls-4" d="M103.31,149.94c-8.47,4.89-22.24,4.86-30.76-.06-8.52-4.92-8.56-12.87-.1-17.76,8.47-4.89,22.24-4.86,30.76,.06,8.52,4.92,8.56,12.87,.1,17.76Z"/></g></g><path class="cls-9" d="M107.73,58.79l-.02-.02h0s-.05-.03-.08-.04l-1.89-.33c.17-.94,.29-1.86,.34-2.75l2.3-1.83c.21-.17,.36-.46,.36-.71v-.63c.63-.25,1.38-.55,1.38-.55l-1.47-1.15h-.02v-.02h-.01c-.06-.03-.14-.05-.23-.01l-2.47,.89c-.12-.7-.29-1.36-.51-2l2.18-2.9c.13-.17,.19-.36,.2-.53l.68-.65-1.48-1.15h-.02v-.02h0c-.1-.06-.25-.03-.41,.09l-2.74,2.23c-.34-.41-.7-.77-1.1-1.08l1.59-3.59v.17l1.09,.56,.33-.25-1.43-1.12h0s-.02-.02-.03-.02l-1.28-.73c-.15-.09-.39,.03-.56,.27l-2.52,3.43c-.46-.1-.93-.17-1.42-.19l.42-2.58,.16,.14,1.44-.59-1.52-1.19h0s-.09-.03-.14-.03l-1.68,.17c-.2,.02-.42,.23-.54,.5l-1.78,4.13c-.5,.16-1.01,.34-1.52,.57l-.31-1.67,1.04-.69-1.48-1.15h0c-.08-.04-.18-.03-.3,.04l-1.81,1.05c-.21,.12-.4,.4-.44,.67l-.61,4.02s0,.05,0,.07c-.5,.37-.99,.78-1.48,1.21,0-.01,0-.03-.02-.05l-.57-.67,.24-.28-1.51-1.18h0c-.12-.08-.32-.02-.49,.16l-1.68,1.77c-.2,.21-.31,.51-.27,.73l.66,3.28s.02,.03,.02,.04c-.44,.55-.87,1.12-1.27,1.69h0l-2.69-.55c-.18-.04-.41,.13-.56,.39l-1.28,2.21c-.15,.26-.17,.54-.05,.68l1.8,1.99c-.33,.68-.63,1.36-.92,2.04l-3.07,1.04c-.21,.07-.42,.32-.5,.59l-.69,2.32c-.06,.21-.04,.38,.06,.47h0l1.43,1.1,.28-.77,.91,.16c-.17,.74-.29,1.47-.4,2.2l-2.86,2.28c-.21,.17-.36,.46-.36,.71v2.08c0,.09,.03,.16,.06,.21h0l.02,.02s.04,.04,.07,.05l1.42,1.13,.39-1.69,1.09-.39c.06,.71,.17,1.38,.32,2.04l-2.21,2.94c-.18,.24-.25,.54-.17,.72l.69,1.52s.04,.05,.05,.07h0l.03,.03h.02l1.42,1.12,.57-1.4-.91-.34,1.75-1.43c.33,.55,.72,1.04,1.13,1.46l-1.33,3.01c-.12,.27-.1,.53,.05,.62l1.43,1.12,.76-.72-.24-.08,1.73-2.35c.6,.23,1.25,.38,1.92,.45l-.43,2.64c-.03,.15,0,.27,.07,.34h0l.06,.05h.01l1.41,1.12,1.35-1.81-.38-.03,1.08-2.51c.79-.18,1.6-.46,2.43-.81l.37,2c.01,.07,.04,.11,.08,.15l1.53,1.2,.67-1.54-.31-.53,.29-.16c.21-.12,.4-.4,.44-.67l.36-2.38c.84-.59,1.67-1.25,2.5-2.01l1.04,1.21c.12,.14,.34,.09,.54-.12l1.68-1.77c.2-.21,.31-.51,.26-.73l-.39-1.94c.74-.91,1.44-1.86,2.08-2.84l1.6,.33c.18,.04,.41-.13,.56-.39l1.28-2.21c.15-.26,.17-.55,.05-.68l-1.16-1.28c.48-1.02,.91-2.06,1.28-3.09l2.07-.7c.21-.07,.42-.32,.5-.59l.41-1.38,1.68-.27-1.46-1.14h0Zm-15.02-8.51c3.27-1.48,6.29-1.04,7.96,1.44l-6.18,5.88c-.88,.83-1.78,.6-1.78-.46v-6.86Zm-5.07,3.77c.77-.81,1.56-1.51,2.36-2.11v6.88c0,1.06-.9,2.33-1.78,2.51l-5.79,1.18c1.09-3.01,2.88-6.01,5.21-8.46Zm-3.47,21.31c-.89-.54-1.63-1.36-2.15-2.49-.85-1.87-.98-4.3-.52-6.88l5.97-1.22c.88-.18,1.22,.84,.68,2.01l-3.98,8.59Zm11.43-3.88c-3.14,3.31-6.56,4.86-9.29,4.57l4.1-8.84c.54-1.17,1.66-1.81,2.2-1.27l4.17,4.18c-.38,.47-.77,.93-1.18,1.36Zm3.35-4.5l-4.19-4.2c-.54-.54-.2-1.96,.68-2.79l6.25-5.94c.91,3.6-.19,8.55-2.74,12.93Z"/><g><path class="cls-6" d="M105.97,50.86h0c-.23-.69-1-.69-1.71-.01l-8.31,7.89c-.88,.83-1.78,.6-1.78-.46v-9.91c0-.86-.61-1.21-1.36-.77h0c-.75,.43-1.36,1.48-1.36,2.34v10.02c0,1.06-.9,2.33-1.78,2.51l-8.21,1.68c-.71,.15-1.48,1.04-1.71,1.99h0c-.23,.95,.16,1.61,.87,1.46l8.31-1.7c.88-.18,1.22,.84,.68,2.01l-5.08,10.95c-.44,.95-.31,1.85,.3,2.01h0c.61,.16,1.46-.49,1.9-1.44l5.13-11.07c.54-1.17,1.66-1.81,2.2-1.27l5.08,5.09c.44,.44,1.29,.11,1.9-.75h0c.61-.86,.74-1.91,.3-2.35l-5.13-5.14c-.54-.54-.2-1.96,.68-2.79l8.21-7.8c.71-.68,1.1-1.78,.87-2.47Z"/><g><g><path class="cls-6" d="M94.33,47.27l-3.03,1.75c-.28,.16-.49,0-.44-.35l.61-4.02c.04-.26,.22-.54,.44-.67l1.81-1.05c.21-.12,.4-.06,.44,.16l.61,3.32c.05,.28-.16,.7-.44,.86Z"/><path class="cls-6" d="M89.16,50.77l-2.8,2.95c-.26,.27-.55,.26-.61-.02l-.66-3.28c-.04-.21,.07-.52,.27-.73l1.68-1.76c.2-.21,.42-.26,.54-.12l1.79,2.09c.15,.18,.06,.6-.2,.87Z"/><path class="cls-6" d="M84.55,56.18l-2.15,3.7c-.2,.34-.52,.49-.68,.32l-1.83-2.03c-.12-.13-.1-.42,.05-.68l1.28-2.21c.15-.26,.39-.42,.56-.39l2.69,.55c.23,.05,.26,.41,.06,.75Z"/><path class="cls-6" d="M81.22,62.67l-1.16,3.89c-.11,.36-.42,.65-.65,.61l-2.72-.48c-.18-.03-.25-.25-.17-.53l.69-2.32c.08-.27,.29-.52,.5-.59l3.19-1.08c.27-.09,.43,.15,.32,.51Z"/><path class="cls-6" d="M79.66,69.26v3.48c0,.32-.25,.71-.53,.81l-3.2,1.15c-.21,.08-.36-.05-.36-.29v-2.08c0-.25,.15-.54,.36-.71l3.2-2.55c.27-.22,.53-.12,.53,.2Z"/><path class="cls-6" d="M80.11,74.93l1.16,2.55c.11,.23-.05,.66-.32,.88l-3.19,2.6c-.21,.17-.42,.16-.5-.02l-.69-1.52c-.08-.18-.01-.48,.17-.72l2.72-3.62c.23-.31,.55-.38,.66-.15Z"/><path class="cls-6" d="M82.5,78.83l2.15,1.22c.2,.11,.17,.51-.06,.82l-2.69,3.66c-.18,.24-.41,.35-.56,.26l-1.28-.73c-.15-.09-.17-.34-.05-.62l1.83-4.15c.16-.36,.49-.58,.68-.47Z"/><path class="cls-6" d="M86.48,80.37l2.8-.29c.26-.03,.35,.28,.2,.63l-1.79,4.16c-.12,.27-.34,.48-.54,.5l-1.68,.17c-.2,.02-.31-.16-.26-.42l.66-4.04c.06-.35,.35-.69,.61-.72Z"/><path class="cls-6" d="M91.43,79.3l3.03-1.75c.28-.16,.49,0,.44,.35l-.61,4.02c-.04,.26-.22,.54-.44,.67l-1.81,1.05c-.21,.12-.4,.05-.44-.16l-.61-3.32c-.05-.28,.16-.7,.44-.86Z"/><path class="cls-6" d="M96.6,75.8l2.8-2.95c.26-.27,.55-.26,.61,.02l.66,3.28c.04,.21-.07,.52-.27,.73l-1.68,1.76c-.2,.21-.42,.26-.54,.12l-1.79-2.09c-.15-.18-.06-.6,.2-.87Z"/><path class="cls-6" d="M101.21,70.39l2.15-3.7c.2-.34,.52-.49,.68-.32l1.83,2.03c.12,.13,.1,.42-.05,.68l-1.28,2.21c-.15,.26-.39,.42-.56,.39l-2.69-.55c-.23-.05-.26-.4-.06-.75Z"/><path class="cls-6" d="M104.55,63.9l1.16-3.89c.11-.36,.42-.65,.65-.61l2.72,.48c.18,.03,.25,.25,.17,.53l-.69,2.32c-.08,.27-.29,.52-.5,.59l-3.19,1.08c-.27,.09-.43-.15-.32-.51Z"/><path class="cls-6" d="M106.11,57.31v-3.48c0-.32,.25-.71,.53-.81l3.2-1.15c.21-.08,.36,.05,.36,.29v2.08c0,.24-.15,.54-.36,.71l-3.2,2.55c-.27,.22-.53,.12-.53-.2Z"/><path class="cls-6" d="M105.66,51.64l-1.16-2.55c-.11-.23,.05-.66,.32-.88l3.19-2.6c.21-.17,.42-.16,.5,.02l.69,1.52c.08,.18,.01,.48-.17,.72l-2.72,3.62c-.23,.31-.55,.38-.65,.15Z"/><path class="cls-6" d="M103.26,47.74l-2.15-1.22c-.2-.11-.17-.51,.06-.82l2.69-3.66c.18-.24,.41-.35,.56-.26l1.28,.73c.15,.09,.17,.34,.05,.62l-1.83,4.15c-.16,.36-.48,.58-.68,.47Z"/><path class="cls-6" d="M99.28,46.2l-2.8,.29c-.26,.03-.35-.28-.2-.63l1.79-4.16c.12-.27,.34-.48,.54-.5l1.68-.17c.2-.02,.31,.16,.26,.42l-.66,4.04c-.06,.35-.35,.69-.61,.72Z"/></g><path class="cls-6" d="M98.63,76.09c-7.39,7.78-15.9,8.65-18.97,1.94-3.06-6.72,.46-18.52,7.86-26.3,7.4-7.79,15.9-8.65,18.97-1.94,3.06,6.72-.46,18.52-7.86,26.3Zm-9.53-20.9c-5.29,5.57-7.81,14.01-5.62,18.82,2.19,4.81,8.28,4.19,13.57-1.39s7.81-14.01,5.62-18.82c-2.19-4.81-8.28-4.19-13.57,1.39Z"/></g></g><g><path class="cls-4" d="M132.16,58.92h-.02s-.03-.03-.05-.03l-1.12-.2c.1-.55,.17-1.1,.2-1.63l1.36-1.08c.12-.1,.21-.27,.21-.42v-.38c.37-.15,.81-.33,.81-.33l-.87-.68h-.02s-.08-.04-.14-.02l-1.46,.52c-.07-.41-.17-.81-.3-1.18l1.29-1.71c.07-.1,.11-.21,.12-.31l.4-.38-.87-.68h-.01c-.06-.04-.15-.03-.24,.05l-1.62,1.32c-.2-.24-.41-.46-.65-.64l.94-2.12v.1l.65,.33,.2-.15-.84-.66h0s-.01,0-.02-.01l-.76-.43c-.09-.05-.23,.02-.33,.16l-1.49,2.02c-.27-.06-.55-.1-.84-.11l.25-1.52,.09,.08,.85-.35-.9-.7h0s-.05-.02-.08-.02l-.99,.1c-.12,.01-.25,.14-.32,.3l-1.05,2.44c-.3,.09-.6,.2-.9,.34l-.18-.99,.61-.41-.87-.68h0s-.11-.02-.18,.02l-1.07,.62c-.13,.07-.23,.24-.26,.39l-.36,2.38s0,.03,0,.04c-.29,.22-.58,.46-.88,.72,0,0,0-.02-.01-.03l-.34-.39,.14-.17-.89-.7h0c-.07-.05-.19-.01-.29,.09l-.99,1.04c-.12,.12-.18,.3-.16,.43l.39,1.94s0,.02,.01,.02c-.26,.33-.51,.66-.75,1h0l-1.59-.33c-.1-.02-.24,.07-.33,.23l-.76,1.31c-.09,.15-.1,.32-.03,.4l1.06,1.18c-.2,.4-.37,.8-.54,1.2l-1.81,.61c-.12,.04-.25,.19-.3,.35l-.41,1.37c-.04,.12-.02,.23,.04,.28h0l.84,.65,.17-.45,.53,.09c-.1,.44-.17,.87-.23,1.3l-1.69,1.34c-.12,.1-.21,.27-.21,.42v1.23c0,.05,.02,.09,.04,.12h0s.02,.03,.04,.04l.84,.67,.23-1,.64-.23c.03,.42,.1,.82,.19,1.2l-1.3,1.73c-.11,.14-.15,.32-.1,.42l.41,.9s.02,.03,.03,.04h.01v.02l.85,.65,.34-.83-.54-.2,1.03-.84c.2,.33,.42,.61,.67,.86l-.78,1.77c-.07,.16-.06,.31,.03,.36l.84,.66,.45-.42-.14-.05,1.02-1.39c.36,.14,.74,.22,1.13,.26l-.25,1.56c-.01,.09,0,.16,.04,.2h0l.03,.03h0l.83,.66,.79-1.07-.22-.02,.64-1.48c.47-.1,.95-.27,1.43-.48l.22,1.18s.02,.07,.05,.09l.9,.71,.39-.91-.18-.31,.17-.1c.13-.07,.23-.24,.26-.39l.21-1.4c.49-.35,.99-.74,1.48-1.19l.61,.72c.07,.08,.2,.05,.32-.07l.99-1.04c.12-.12,.18-.3,.16-.43l-.23-1.15c.44-.54,.85-1.1,1.23-1.68l.95,.19c.1,.02,.24-.07,.33-.23l.76-1.31c.09-.15,.1-.32,.03-.4l-.68-.76c.28-.6,.54-1.21,.75-1.83l1.22-.41c.12-.04,.25-.19,.29-.35l.24-.82,.99-.16-.86-.67h0Zm-7.11,7.66c-3.26,3.43-7,3.81-8.35,.85-1.35-2.96,.2-8.15,3.46-11.58,3.26-3.43,7-3.81,8.35-.85,1.35,2.96-.2,8.15-3.46,11.58Z"/><g><g><path class="cls-9" d="M124.25,52.12l-1.79,1.03c-.16,.1-.29,0-.26-.21l.36-2.38c.02-.16,.13-.32,.26-.39l1.07-.62c.13-.07,.23-.03,.26,.1l.36,1.96c.03,.17-.09,.41-.26,.51Z"/><path class="cls-9" d="M121.2,54.18l-1.66,1.74c-.15,.16-.32,.16-.36-.01l-.39-1.94c-.03-.13,.04-.31,.16-.43l.99-1.04c.12-.12,.25-.15,.32-.07l1.06,1.23c.09,.11,.03,.35-.12,.51Z"/><path class="cls-9" d="M118.48,57.38l-1.27,2.18c-.12,.2-.31,.29-.4,.19l-1.08-1.2c-.07-.08-.06-.25,.03-.4l.76-1.31c.09-.15,.23-.25,.33-.23l1.59,.32c.14,.03,.15,.24,.04,.44Z"/><path class="cls-9" d="M116.51,61.21l-.69,2.29c-.06,.21-.25,.38-.39,.36l-1.61-.28c-.11-.02-.15-.15-.1-.31l.41-1.37c.05-.16,.17-.31,.3-.35l1.88-.64c.16-.05,.25,.09,.19,.3Z"/><path class="cls-9" d="M115.59,65.1v2.06c0,.19-.15,.42-.31,.48l-1.89,.68c-.12,.04-.21-.03-.21-.17v-1.23c0-.14,.09-.32,.21-.42l1.89-1.5c.16-.13,.31-.07,.31,.12Z"/><path class="cls-9" d="M115.85,68.45l.69,1.5c.06,.14-.03,.39-.19,.52l-1.88,1.53c-.12,.1-.25,.1-.3,0l-.41-.9c-.05-.11,0-.28,.1-.42l1.61-2.14c.14-.18,.32-.22,.39-.09Z"/><path class="cls-9" d="M117.27,70.75l1.27,.72c.12,.07,.1,.3-.04,.48l-1.59,2.16c-.1,.14-.24,.21-.33,.16l-.76-.43c-.09-.05-.1-.2-.03-.36l1.08-2.45c.09-.21,.29-.34,.4-.28Z"/><path class="cls-9" d="M119.62,71.65l1.66-.17c.15-.02,.21,.16,.12,.37l-1.05,2.45c-.07,.16-.2,.29-.32,.3l-.99,.1c-.12,.01-.18-.09-.16-.25l.39-2.39c.03-.2,.21-.41,.36-.42Z"/><path class="cls-9" d="M122.54,71.02l1.79-1.03c.16-.1,.29,0,.26,.21l-.36,2.38c-.02,.16-.13,.32-.26,.39l-1.07,.62c-.13,.07-.23,.03-.26-.1l-.36-1.96c-.03-.17,.09-.41,.26-.51Z"/><path class="cls-9" d="M125.59,68.96l1.66-1.74c.15-.16,.32-.15,.36,.01l.39,1.93c.03,.13-.04,.31-.16,.43l-.99,1.04c-.12,.12-.25,.15-.32,.07l-1.05-1.23c-.09-.11-.03-.35,.12-.51Z"/><path class="cls-9" d="M128.31,65.76l1.27-2.18c.12-.2,.31-.29,.4-.19l1.08,1.2c.07,.08,.06,.25-.03,.4l-.76,1.31c-.09,.15-.23,.25-.33,.23l-1.59-.32c-.14-.03-.16-.24-.04-.44Z"/><path class="cls-9" d="M130.28,61.93l.69-2.29c.06-.21,.25-.38,.39-.36l1.61,.28c.11,.02,.15,.15,.1,.31l-.41,1.37c-.05,.16-.17,.31-.3,.35l-1.88,.64c-.16,.05-.25-.09-.19-.3Z"/><path class="cls-9" d="M131.2,58.05v-2.06c0-.19,.15-.42,.31-.48l1.89-.68c.12-.04,.21,.03,.21,.17v1.23c0,.14-.09,.32-.21,.42l-1.89,1.5c-.16,.13-.31,.07-.31-.12Z"/><path class="cls-9" d="M130.94,54.7l-.69-1.5c-.06-.14,.03-.39,.19-.52l1.88-1.53c.12-.1,.25-.1,.3,0l.41,.9c.05,.11,0,.28-.1,.42l-1.61,2.14c-.14,.18-.32,.22-.39,.09Z"/><path class="cls-9" d="M129.52,52.39l-1.27-.72c-.12-.07-.1-.3,.04-.48l1.59-2.16c.1-.14,.24-.21,.33-.16l.76,.43c.09,.05,.1,.2,.03,.36l-1.08,2.45c-.09,.21-.29,.34-.4,.28Z"/><path class="cls-9" d="M127.18,51.49l-1.66,.17c-.15,.02-.21-.16-.12-.37l1.06-2.45c.07-.16,.2-.29,.32-.3l.99-.1c.12-.01,.18,.09,.16,.25l-.39,2.39c-.03,.2-.21,.41-.36,.42Z"/></g><path class="cls-9" d="M126.79,69.13c-4.37,4.6-9.39,5.11-11.2,1.14-1.81-3.97,.27-10.93,4.64-15.53,4.37-4.6,9.39-5.11,11.2-1.14,1.81,3.97-.27,10.93-4.64,15.53Zm-5.63-12.34c-3.12,3.29-4.61,8.27-3.32,11.11,1.29,2.84,4.89,2.47,8.01-.82,3.12-3.29,4.61-8.27,3.32-11.11-1.29-2.84-4.89-2.47-8.01,.82Z"/></g></g><g><g><path class="cls-12" d="M194.72,146.49l-11.43,.53-17.27-9.97c-.46-.26-1.02-.26-1.48,0l-20.41,11.78-13.4,.62v7.92h0c-.02,.51,.23,1.03,.73,1.33l27.96,16.14c.46,.26,1.02,.26,1.48,0l33.06-19.09c.51-.3,.75-.83,.73-1.35h0v-7.92Z"/><path class="cls-3" d="M159.44,166.88l-27.96-16.14c-.99-.57-.99-1.99,0-2.56l33.06-19.09c.46-.26,1.02-.26,1.48,0l27.96,16.14c.99,.57,.99,1.99,0,2.56l-33.06,19.09c-.46,.26-1.02,.26-1.48,0Z"/><g><path class="cls-4" d="M193.31,155.13l-29.43,16.99c-.24,.14-.43,0-.43-.32v-4.48c0-.31,.19-.68,.43-.81l29.43-16.99c.24-.14,.43,0,.43,.32v4.48c0,.31-.19,.68-.43,.81Z"/><path class="cls-7" d="M179.07,162.43l-14.3,8.26c-.13,.08-.24,0-.24-.18v-3.12c0-.18,.11-.39,.24-.47l14.3-8.26c.13-.08,.24,0,.24,.19v3.12c0,.18-.11,.39-.24,.47Z"/><path class="cls-7" d="M183.19,157.69l-.72,.42c-.09,.05-.16,0-.16-.12v-.77c0-.12,.07-.26,.16-.31l.72-.42c.09-.05,.16,0,.16,.12v.77c0,.12-.07,.26-.16,.31Z"/><path class="cls-1" d="M185.27,156.47l-.72,.42c-.09,.05-.16,0-.16-.12v-.77c0-.12,.07-.26,.16-.31l.72-.42c.09-.05,.16,0,.16,.12v.77c0,.12-.07,.26-.16,.31Z"/><path class="cls-7" d="M187.36,155.26l-.72,.42c-.09,.05-.16,0-.16-.12v-.77c0-.12,.07-.26,.16-.31l.72-.42c.09-.05,.16,0,.16,.12v.77c0,.12-.07,.26-.16,.31Z"/><path class="cls-11" d="M189.45,154.06l-.72,.42c-.09,.05-.16,0-.16-.12v-.77c0-.12,.07-.26,.16-.31l.72-.42c.09-.05,.16,0,.16,.12v.77c0,.12-.07,.26-.16,.31Z"/><path class="cls-7" d="M191.54,152.85l-.72,.42c-.09,.05-.16,0-.16-.12v-.77c0-.12,.07-.26,.16-.31l.72-.42c.09-.05,.16,0,.16,.12v.77c0,.12-.07,.26-.16,.31Z"/><path class="cls-2" d="M183.19,159.69l-.72,.42c-.09,.05-.16,0-.16-.12v-.77c0-.12,.07-.26,.16-.31l.72-.42c.09-.05,.16,0,.16,.12v.77c0,.12-.07,.26-.16,.31Z"/><path class="cls-7" d="M185.27,158.47l-.72,.42c-.09,.05-.16,0-.16-.12v-.77c0-.12,.07-.26,.16-.31l.72-.42c.09-.05,.16,0,.16,.12v.77c0,.12-.07,.26-.16,.31Z"/><path class="cls-1" d="M187.36,157.27l-.72,.42c-.09,.05-.16,0-.16-.12v-.77c0-.12,.07-.26,.16-.31l.72-.42c.09-.05,.16,0,.16,.12v.77c0,.12-.07,.26-.16,.31Z"/><path class="cls-7" d="M189.45,156.06l-.72,.42c-.09,.05-.16,0-.16-.12v-.77c0-.12,.07-.26,.16-.31l.72-.42c.09-.05,.16,0,.16,.12v.77c0,.12-.07,.26-.16,.31Z"/><path class="cls-11" d="M191.54,154.86l-.72,.42c-.09,.05-.16,0-.16-.12v-.77c0-.12,.07-.26,.16-.31l.72-.42c.09-.05,.16,0,.16,.12v.77c0,.12-.07,.26-.16,.31Z"/></g><g><path class="cls-7" d="M158.01,171.62l-6.47-3.74c-.14-.08-.26-.31-.26-.5v-2.57c0-.19,.12-.28,.26-.2l6.47,3.74c.14,.08,.26,.31,.26,.5v2.57c0,.19-.12,.28-.26,.2Z"/><g><path class="cls-1" d="M153.28,167.77l-.63-.36c-.08-.04-.14-.16-.14-.27v-.67c0-.1,.06-.15,.14-.11l.63,.36c.08,.04,.14,.16,.14,.27v.67c0,.1-.06,.15-.14,.11Z"/><path class="cls-2" d="M155.09,168.82l-.63-.36c-.08-.04-.14-.16-.14-.27v-.67c0-.1,.06-.15,.14-.11l.63,.36c.08,.04,.14,.16,.14,.27v.67c0,.1-.06,.15-.14,.11Z"/><path class="cls-11" d="M156.89,169.86l-.63-.36c-.08-.04-.14-.16-.14-.27v-.67c0-.1,.06-.15,.14-.11l.63,.36c.08,.04,.14,.16,.14,.27v.67c0,.1-.06,.15-.14,.11Z"/></g></g></g><g><path class="cls-12" d="M194.72,136.71l-11.43,.53-17.27-9.97c-.46-.26-1.02-.26-1.48,0l-20.41,11.78-13.4,.62v7.92h0c-.02,.51,.23,1.03,.73,1.33l27.96,16.14c.46,.26,1.02,.26,1.48,0l33.06-19.09c.51-.3,.75-.83,.73-1.35h0v-7.92Z"/><path class="cls-3" d="M159.44,157.1l-27.96-16.14c-.99-.57-.99-1.99,0-2.56l33.06-19.09c.46-.26,1.02-.26,1.48,0l27.96,16.14c.99,.57,.99,1.99,0,2.56l-33.06,19.09c-.46,.26-1.02,.26-1.48,0Z"/><g><path class="cls-4" d="M193.31,145.35l-29.43,16.99c-.24,.14-.43,0-.43-.32v-4.48c0-.31,.19-.68,.43-.81l29.43-16.99c.24-.14,.43,0,.43,.32v4.48c0,.31-.19,.68-.43,.81Z"/><path class="cls-7" d="M179.07,152.65l-14.3,8.26c-.13,.08-.24,0-.24-.18v-3.12c0-.18,.11-.39,.24-.47l14.3-8.26c.13-.08,.24,0,.24,.19v3.12c0,.18-.11,.39-.24,.47Z"/><path class="cls-7" d="M183.19,147.9l-.72,.42c-.09,.05-.16,0-.16-.12v-.77c0-.12,.07-.26,.16-.31l.72-.42c.09-.05,.16,0,.16,.12v.77c0,.12-.07,.26-.16,.31Z"/><path class="cls-1" d="M185.27,146.69l-.72,.42c-.09,.05-.16,0-.16-.12v-.77c0-.12,.07-.26,.16-.31l.72-.42c.09-.05,.16,0,.16,.12v.77c0,.12-.07,.26-.16,.31Z"/><path class="cls-7" d="M187.36,145.48l-.72,.42c-.09,.05-.16,0-.16-.12v-.77c0-.12,.07-.26,.16-.31l.72-.42c.09-.05,.16,0,.16,.12v.77c0,.12-.07,.26-.16,.31Z"/><path class="cls-11" d="M189.45,144.27l-.72,.42c-.09,.05-.16,0-.16-.12v-.77c0-.12,.07-.26,.16-.31l.72-.42c.09-.05,.16,0,.16,.12v.77c0,.12-.07,.26-.16,.31Z"/><path class="cls-7" d="M191.54,143.07l-.72,.42c-.09,.05-.16,0-.16-.12v-.77c0-.12,.07-.26,.16-.31l.72-.42c.09-.05,.16,0,.16,.12v.77c0,.12-.07,.26-.16,.31Z"/><path class="cls-2" d="M183.19,149.91l-.72,.42c-.09,.05-.16,0-.16-.12v-.77c0-.12,.07-.26,.16-.31l.72-.42c.09-.05,.16,0,.16,.12v.77c0,.12-.07,.26-.16,.31Z"/><path class="cls-7" d="M185.27,148.69l-.72,.42c-.09,.05-.16,0-.16-.12v-.77c0-.12,.07-.26,.16-.31l.72-.42c.09-.05,.16,0,.16,.12v.77c0,.12-.07,.26-.16,.31Z"/><path class="cls-1" d="M187.36,147.49l-.72,.42c-.09,.05-.16,0-.16-.12v-.77c0-.12,.07-.26,.16-.31l.72-.42c.09-.05,.16,0,.16,.12v.77c0,.12-.07,.26-.16,.31Z"/><path class="cls-7" d="M189.45,146.28l-.72,.42c-.09,.05-.16,0-.16-.12v-.77c0-.12,.07-.26,.16-.31l.72-.42c.09-.05,.16,0,.16,.12v.77c0,.12-.07,.26-.16,.31Z"/><path class="cls-11" d="M191.54,145.07l-.72,.42c-.09,.05-.16,0-.16-.12v-.77c0-.12,.07-.26,.16-.31l.72-.42c.09-.05,.16,0,.16,.12v.77c0,.12-.07,.26-.16,.31Z"/></g><g><path class="cls-7" d="M158.01,161.84l-6.47-3.74c-.14-.08-.26-.31-.26-.5v-2.57c0-.19,.12-.28,.26-.2l6.47,3.74c.14,.08,.26,.31,.26,.5v2.57c0,.19-.12,.28-.26,.2Z"/><g><path class="cls-1" d="M153.28,157.99l-.63-.36c-.08-.04-.14-.16-.14-.27v-.67c0-.1,.06-.15,.14-.11l.63,.36c.08,.04,.14,.16,.14,.27v.67c0,.1-.06,.15-.14,.11Z"/><path class="cls-2" d="M155.09,159.04l-.63-.36c-.08-.04-.14-.16-.14-.27v-.67c0-.1,.06-.15,.14-.11l.63,.36c.08,.04,.14,.16,.14,.27v.67c0,.1-.06,.15-.14,.11Z"/><path class="cls-11" d="M156.89,160.08l-.63-.36c-.08-.04-.14-.16-.14-.27v-.67c0-.1,.06-.15,.14-.11l.63,.36c.08,.04,.14,.16,.14,.27v.67c0,.1-.06,.15-.14,.11Z"/></g></g></g><g><path class="cls-12" d="M194.72,126.54l-11.43,.53-17.27-9.97c-.46-.26-1.02-.26-1.48,0l-20.41,11.78-13.4,.62v7.92h0c-.02,.51,.23,1.03,.73,1.33l27.96,16.14c.46,.26,1.02,.26,1.48,0l33.06-19.09c.51-.3,.75-.83,.73-1.35h0v-7.92Z"/><path class="cls-3" d="M159.44,146.93l-27.96-16.14c-.99-.57-.99-1.99,0-2.56l33.06-19.09c.46-.26,1.02-.26,1.48,0l27.96,16.14c.99,.57,.99,1.99,0,2.56l-33.06,19.09c-.46,.26-1.02,.26-1.48,0Z"/><g><path class="cls-4" d="M193.31,135.18l-29.43,16.99c-.24,.14-.43,0-.43-.32v-4.48c0-.31,.19-.68,.43-.81l29.43-16.99c.24-.14,.43,0,.43,.32v4.48c0,.31-.19,.68-.43,.81Z"/><path class="cls-7" d="M179.07,142.48l-14.3,8.26c-.13,.08-.24,0-.24-.18v-3.12c0-.18,.11-.39,.24-.47l14.3-8.26c.13-.08,.24,0,.24,.18v3.12c0,.18-.11,.39-.24,.47Z"/><path class="cls-7" d="M183.19,137.74l-.72,.42c-.09,.05-.16,0-.16-.12v-.77c0-.12,.07-.26,.16-.31l.72-.42c.09-.05,.16,0,.16,.12v.77c0,.12-.07,.26-.16,.31Z"/><path class="cls-1" d="M185.27,136.52l-.72,.42c-.09,.05-.16,0-.16-.12v-.77c0-.12,.07-.26,.16-.31l.72-.42c.09-.05,.16,0,.16,.12v.77c0,.12-.07,.26-.16,.31Z"/><path class="cls-7" d="M187.36,135.31l-.72,.42c-.09,.05-.16,0-.16-.12v-.77c0-.12,.07-.26,.16-.31l.72-.42c.09-.05,.16,0,.16,.12v.77c0,.12-.07,.26-.16,.31Z"/><path class="cls-11" d="M189.45,134.11l-.72,.42c-.09,.05-.16,0-.16-.12v-.77c0-.12,.07-.26,.16-.31l.72-.42c.09-.05,.16,0,.16,.12v.77c0,.12-.07,.26-.16,.31Z"/><path class="cls-7" d="M191.54,132.9l-.72,.42c-.09,.05-.16,0-.16-.12v-.77c0-.12,.07-.26,.16-.31l.72-.42c.09-.05,.16,0,.16,.12v.77c0,.12-.07,.26-.16,.31Z"/><path class="cls-2" d="M183.19,139.74l-.72,.42c-.09,.05-.16,0-.16-.12v-.77c0-.12,.07-.26,.16-.31l.72-.42c.09-.05,.16,0,.16,.12v.77c0,.12-.07,.26-.16,.31Z"/><path class="cls-7" d="M185.27,138.53l-.72,.42c-.09,.05-.16,0-.16-.12v-.77c0-.12,.07-.26,.16-.31l.72-.42c.09-.05,.16,0,.16,.12v.77c0,.12-.07,.26-.16,.31Z"/><path class="cls-1" d="M187.36,137.32l-.72,.42c-.09,.05-.16,0-.16-.12v-.77c0-.12,.07-.26,.16-.31l.72-.42c.09-.05,.16,0,.16,.12v.77c0,.12-.07,.26-.16,.31Z"/><path class="cls-7" d="M189.45,136.11l-.72,.42c-.09,.05-.16,0-.16-.12v-.77c0-.12,.07-.26,.16-.31l.72-.42c.09-.05,.16,0,.16,.12v.77c0,.12-.07,.26-.16,.31Z"/><path class="cls-11" d="M191.54,134.91l-.72,.42c-.09,.05-.16,0-.16-.12v-.77c0-.12,.07-.26,.16-.31l.72-.42c.09-.05,.16,0,.16,.12v.77c0,.12-.07,.26-.16,.31Z"/></g><g><path class="cls-7" d="M158.01,151.67l-6.47-3.74c-.14-.08-.26-.31-.26-.5v-2.57c0-.19,.12-.28,.26-.2l6.47,3.74c.14,.08,.26,.31,.26,.5v2.57c0,.19-.12,.28-.26,.2Z"/><g><path class="cls-1" d="M153.28,147.82l-.63-.36c-.08-.04-.14-.16-.14-.27v-.67c0-.1,.06-.15,.14-.11l.63,.36c.08,.04,.14,.16,.14,.27v.67c0,.1-.06,.15-.14,.11Z"/><path class="cls-2" d="M155.09,148.87l-.63-.36c-.08-.04-.14-.16-.14-.27v-.67c0-.1,.06-.15,.14-.11l.63,.36c.08,.04,.14,.16,.14,.27v.67c0,.1-.06,.15-.14,.11Z"/><path class="cls-11" d="M156.89,149.91l-.63-.36c-.08-.04-.14-.16-.14-.27v-.67c0-.1,.06-.15,.14-.11l.63,.36c.08,.04,.14,.16,.14,.27v.67c0,.1-.06,.15-.14,.11Z"/></g></g></g><g><path class="cls-12" d="M194.72,116.51l-11.43,.53-17.27-9.97c-.46-.26-1.02-.26-1.48,0l-20.41,11.78-13.4,.62v7.92h0c-.02,.51,.23,1.03,.73,1.33l27.96,16.14c.46,.26,1.02,.26,1.48,0l33.06-19.09c.51-.3,.75-.83,.73-1.35h0v-7.92Z"/><path class="cls-3" d="M159.44,136.9l-27.96-16.14c-.99-.57-.99-1.99,0-2.56l33.06-19.09c.46-.26,1.02-.26,1.48,0l27.96,16.14c.99,.57,.99,1.99,0,2.56l-33.06,19.09c-.46,.26-1.02,.26-1.48,0Z"/><g><path class="cls-4" d="M193.31,125.15l-29.43,16.99c-.24,.14-.43,0-.43-.32v-4.48c0-.31,.19-.68,.43-.81l29.43-16.99c.24-.14,.43,0,.43,.32v4.48c0,.31-.19,.68-.43,.81Z"/><path class="cls-7" d="M179.07,132.45l-14.3,8.26c-.13,.08-.24,0-.24-.19v-3.12c0-.18,.11-.39,.24-.47l14.3-8.26c.13-.08,.24,0,.24,.19v3.12c0,.18-.11,.39-.24,.47Z"/><path class="cls-7" d="M183.19,127.71l-.72,.42c-.09,.05-.16,0-.16-.12v-.77c0-.12,.07-.26,.16-.31l.72-.42c.09-.05,.16,0,.16,.12v.77c0,.12-.07,.26-.16,.31Z"/><path class="cls-1" d="M185.27,126.49l-.72,.42c-.09,.05-.16,0-.16-.12v-.77c0-.12,.07-.26,.16-.31l.72-.42c.09-.05,.16,0,.16,.12v.77c0,.12-.07,.26-.16,.31Z"/><path class="cls-7" d="M187.36,125.29l-.72,.42c-.09,.05-.16,0-.16-.12v-.77c0-.12,.07-.26,.16-.31l.72-.42c.09-.05,.16,0,.16,.12v.77c0,.12-.07,.26-.16,.31Z"/><path class="cls-11" d="M189.45,124.08l-.72,.42c-.09,.05-.16,0-.16-.12v-.77c0-.12,.07-.26,.16-.31l.72-.42c.09-.05,.16,0,.16,.12v.77c0,.12-.07,.26-.16,.31Z"/><path class="cls-7" d="M191.54,122.87l-.72,.42c-.09,.05-.16,0-.16-.12v-.77c0-.12,.07-.26,.16-.31l.72-.42c.09-.05,.16,0,.16,.12v.77c0,.12-.07,.26-.16,.31Z"/><path class="cls-2" d="M183.19,129.71l-.72,.42c-.09,.05-.16,0-.16-.12v-.77c0-.12,.07-.26,.16-.31l.72-.42c.09-.05,.16,0,.16,.12v.77c0,.12-.07,.26-.16,.31Z"/><path class="cls-7" d="M185.27,128.5l-.72,.42c-.09,.05-.16,0-.16-.12v-.77c0-.12,.07-.26,.16-.31l.72-.42c.09-.05,.16,0,.16,.12v.77c0,.12-.07,.26-.16,.31Z"/><path class="cls-1" d="M187.36,127.29l-.72,.42c-.09,.05-.16,0-.16-.12v-.77c0-.12,.07-.26,.16-.31l.72-.42c.09-.05,.16,0,.16,.12v.77c0,.12-.07,.26-.16,.31Z"/><path class="cls-7" d="M189.45,126.09l-.72,.42c-.09,.05-.16,0-.16-.12v-.77c0-.12,.07-.26,.16-.31l.72-.42c.09-.05,.16,0,.16,.12v.77c0,.12-.07,.26-.16,.31Z"/><path class="cls-11" d="M191.54,124.88l-.72,.42c-.09,.05-.16,0-.16-.12v-.77c0-.12,.07-.26,.16-.31l.72-.42c.09-.05,.16,0,.16,.12v.77c0,.12-.07,.26-.16,.31Z"/></g><g><path class="cls-7" d="M158.01,141.64l-6.47-3.74c-.14-.08-.26-.31-.26-.5v-2.57c0-.19,.12-.28,.26-.2l6.47,3.74c.14,.08,.26,.31,.26,.5v2.57c0,.19-.12,.28-.26,.2Z"/><g><path class="cls-1" d="M153.28,137.8l-.63-.36c-.08-.04-.14-.16-.14-.27v-.67c0-.1,.06-.15,.14-.11l.63,.36c.08,.04,.14,.16,.14,.27v.67c0,.1-.06,.15-.14,.11Z"/><path class="cls-2" d="M155.09,138.84l-.63-.36c-.08-.04-.14-.16-.14-.27v-.67c0-.1,.06-.15,.14-.11l.63,.36c.08,.04,.14,.16,.14,.27v.67c0,.1-.06,.15-.14,.11Z"/><path class="cls-11" d="M156.89,139.88l-.63-.36c-.08-.04-.14-.16-.14-.27v-.67c0-.1,.06-.15,.14-.11l.63,.36c.08,.04,.14,.16,.14,.27v.67c0,.1-.06,.15-.14,.11Z"/></g></g></g><g><path class="cls-12" d="M194.72,106.35l-11.43,.53-17.27-9.97c-.46-.26-1.02-.26-1.48,0l-20.41,11.78-13.4,.62v7.92h0c-.02,.51,.23,1.03,.73,1.33l27.96,16.14c.46,.26,1.02,.26,1.48,0l33.06-19.09c.51-.3,.75-.83,.73-1.35h0v-7.92Z"/><path class="cls-3" d="M159.44,126.73l-27.96-16.14c-.99-.57-.99-1.99,0-2.56l33.06-19.09c.46-.26,1.02-.26,1.48,0l27.96,16.14c.99,.57,.99,1.99,0,2.56l-33.06,19.09c-.46,.26-1.02,.26-1.48,0Z"/><g><path class="cls-4" d="M193.31,114.98l-29.43,16.99c-.24,.14-.43,0-.43-.32v-4.48c0-.31,.19-.68,.43-.81l29.43-16.99c.24-.14,.43,0,.43,.32v4.48c0,.31-.19,.68-.43,.81Z"/><path class="cls-7" d="M179.07,122.28l-14.3,8.26c-.13,.08-.24,0-.24-.18v-3.12c0-.18,.11-.39,.24-.47l14.3-8.26c.13-.08,.24,0,.24,.19v3.12c0,.18-.11,.39-.24,.47Z"/><path class="cls-7" d="M183.19,117.54l-.72,.42c-.09,.05-.16,0-.16-.12v-.77c0-.12,.07-.26,.16-.31l.72-.42c.09-.05,.16,0,.16,.12v.77c0,.12-.07,.26-.16,.31Z"/><path class="cls-1" d="M185.27,116.32l-.72,.42c-.09,.05-.16,0-.16-.12v-.77c0-.12,.07-.26,.16-.31l.72-.42c.09-.05,.16,0,.16,.12v.77c0,.12-.07,.26-.16,.31Z"/><path class="cls-7" d="M187.36,115.12l-.72,.42c-.09,.05-.16,0-.16-.12v-.77c0-.12,.07-.26,.16-.31l.72-.42c.09-.05,.16,0,.16,.12v.77c0,.12-.07,.26-.16,.31Z"/><path class="cls-11" d="M189.45,113.91l-.72,.42c-.09,.05-.16,0-.16-.12v-.77c0-.12,.07-.26,.16-.31l.72-.42c.09-.05,.16,0,.16,.12v.77c0,.12-.07,.26-.16,.31Z"/><path class="cls-7" d="M191.54,112.71l-.72,.42c-.09,.05-.16,0-.16-.12v-.77c0-.12,.07-.26,.16-.31l.72-.42c.09-.05,.16,0,.16,.12v.77c0,.12-.07,.26-.16,.31Z"/><path class="cls-2" d="M183.19,119.55l-.72,.42c-.09,.05-.16,0-.16-.12v-.77c0-.12,.07-.26,.16-.31l.72-.42c.09-.05,.16,0,.16,.12v.77c0,.12-.07,.26-.16,.31Z"/><path class="cls-7" d="M185.27,118.33l-.72,.42c-.09,.05-.16,0-.16-.12v-.77c0-.12,.07-.26,.16-.31l.72-.42c.09-.05,.16,0,.16,.12v.77c0,.12-.07,.26-.16,.31Z"/><path class="cls-1" d="M187.36,117.12l-.72,.42c-.09,.05-.16,0-.16-.12v-.77c0-.12,.07-.26,.16-.31l.72-.42c.09-.05,.16,0,.16,.12v.77c0,.12-.07,.26-.16,.31Z"/><path class="cls-7" d="M189.45,115.92l-.72,.42c-.09,.05-.16,0-.16-.12v-.77c0-.12,.07-.26,.16-.31l.72-.42c.09-.05,.16,0,.16,.12v.77c0,.12-.07,.26-.16,.31Z"/><path class="cls-11" d="M191.54,114.71l-.72,.42c-.09,.05-.16,0-.16-.12v-.77c0-.12,.07-.26,.16-.31l.72-.42c.09-.05,.16,0,.16,.12v.77c0,.12-.07,.26-.16,.31Z"/></g><g><path class="cls-7" d="M158.01,131.48l-6.47-3.74c-.14-.08-.26-.31-.26-.5v-2.57c0-.19,.12-.28,.26-.2l6.47,3.74c.14,.08,.26,.31,.26,.5v2.57c0,.19-.12,.28-.26,.2Z"/><g><path class="cls-1" d="M153.28,127.63l-.63-.36c-.08-.04-.14-.16-.14-.27v-.67c0-.1,.06-.15,.14-.11l.63,.36c.08,.04,.14,.16,.14,.27v.67c0,.1-.06,.15-.14,.11Z"/><path class="cls-2" d="M155.09,128.67l-.63-.36c-.08-.04-.14-.16-.14-.27v-.67c0-.1,.06-.15,.14-.11l.63,.36c.08,.04,.14,.16,.14,.27v.67c0,.1-.06,.15-.14,.11Z"/><path class="cls-11" d="M156.89,129.72l-.63-.36c-.08-.04-.14-.16-.14-.27v-.67c0-.1,.06-.15,.14-.11l.63,.36c.08,.04,.14,.16,.14,.27v.67c0,.1-.06,.15-.14,.11Z"/></g></g></g></g></svg>