<svg xmlns="http://www.w3.org/2000/svg" viewBox="0 0 512 512"><defs><style>.cls-1{fill:#10a18c;}.cls-2{fill:#474c54;}.cls-3{fill:#636978;}.cls-4{fill:#5a606b;}.cls-5{fill:#ffda45;}.cls-6{fill:#76d67b;}.cls-7{fill:#f92814;}</style></defs><title>Development</title><g id="BULINE"><circle class="cls-1" cx="256" cy="256" r="256"/></g><g id="Icons"><rect class="cls-2" x="117.37" y="142.25" width="276" height="222.09"/><rect class="cls-3" x="89.87" y="339.48" width="331" height="111.04" rx="24.74"/><rect class="cls-4" x="280.87" y="383.21" width="116" height="23.59" rx="11.79"/><circle class="cls-5" cx="171.23" cy="395" r="10.12"/><circle class="cls-6" cx="203.19" cy="395" r="10.12"/><rect class="cls-3" x="89.87" y="200.48" width="331" height="111.04" rx="24.74"/><rect class="cls-4" x="280.87" y="244.21" width="116" height="23.59" rx="11.79"/><circle class="cls-5" cx="171.23" cy="256" r="10.12"/><circle class="cls-6" cx="203.19" cy="256" r="10.12"/><rect class="cls-3" x="89.87" y="61.47" width="331" height="111.04" rx="24.74"/><path class="cls-4" d="M162.48,450.52H114.6a24.73,24.73,0,0,1-24.73-24.74V364.21a24.73,24.73,0,0,1,24.73-24.73h47.88a24.73,24.73,0,0,0-24.73,24.73v61.57A24.73,24.73,0,0,0,162.48,450.52Z"/><path class="cls-4" d="M162.48,311.52H114.6a24.74,24.74,0,0,1-24.73-24.74V225.21a24.74,24.74,0,0,1,24.73-24.74h47.88a24.74,24.74,0,0,0-24.73,24.74v61.57A24.74,24.74,0,0,0,162.48,311.52Z"/><path class="cls-4" d="M162.48,172.51H114.6a24.73,24.73,0,0,1-24.73-24.73V86.21A24.73,24.73,0,0,1,114.6,61.47h47.88a24.73,24.73,0,0,0-24.73,24.74v61.57A24.73,24.73,0,0,0,162.48,172.51Z"/><rect class="cls-4" x="280.87" y="105.2" width="116" height="23.59" rx="11.79"/><circle class="cls-7" cx="139.26" cy="117" r="10.12"/><circle class="cls-5" cx="171.23" cy="117" r="10.12"/><circle class="cls-6" cx="203.19" cy="117" r="10.12"/><circle class="cls-7" cx="139.26" cy="395" r="10.12"/><circle class="cls-7" cx="139.26" cy="256" r="10.12"/></g></svg>