<?xml version="1.0" encoding="UTF-8"?><svg id="Layer_1" xmlns="http://www.w3.org/2000/svg" xmlns:xlink="http://www.w3.org/1999/xlink" viewBox="0 0 210.01 162.57"><defs><style>.cls-1{fill:none;}.cls-2{fill:url(#linear-gradient);}.cls-3{clip-path:url(#clippath);}.cls-4{fill:#f7f9ff;}.cls-5{fill:#66b64b;}.cls-6{fill:#e9ab1f;}.cls-7{fill:#fff;}.cls-8{fill:#f2bd34;}.cls-9{fill:#ffca57;}.cls-10{fill:#e83565;}.cls-11{fill:#98d5ff;}.cls-12{fill:#302d70;}.cls-13{fill:#b1e99f;}.cls-14{fill:#534f9d;}.cls-15{fill:#4f93fc;}.cls-16{fill:#7ae55a;}.cls-17{fill:#3378dc;}.cls-18{clip-path:url(#clippath-1);}</style><clipPath id="clippath"><path class="cls-1" d="M210.01,105.39h-6.78v1.84L77.91,34.87c-2.75-1.59-6.91-1.76-9.29-.38L6.78,70.19v-2.08H0v7.49H0c.04,1.02,.81,2.1,2.26,2.94l129.83,74.96c2.75,1.59,6.91,1.76,9.29,.38l67.01-38.69c1-.58,1.52-1.34,1.59-2.14h.01v-7.65Z"/></clipPath><linearGradient id="linear-gradient" x1="0" y1="94.18" x2="210.01" y2="94.18" gradientTransform="matrix(1, 0, 0, 1, 0, 0)" gradientUnits="userSpaceOnUse"><stop offset="0" stop-color="#b3b3b3"/><stop offset="1" stop-color="#666"/></linearGradient><clipPath id="clippath-1"><path class="cls-1" d="M110.8,32.68c-10.56-6.02-10.56-15.91,0-22.09,10.56-6.18,27.69-6.3,38.26-.28,10.56,6.02,10.56,15.91,0,22.09-10.56,6.18-27.69,6.3-38.26,.28Z"/></clipPath></defs><g><path class="cls-15" d="M67.66,134.78l-8.59,4.96c6.27,3.62,6.3,9.46,.07,13.06-5.01,2.89-12.54,3.44-18.56,1.66l-5.5,6.26c11.11,3.28,23.93,2.13,32.71-2.93,10.97-6.33,10.92-16.64-.12-23.01Z"/><path class="cls-16" d="M36.64,152.8c-6.27-3.62-6.3-9.46-.07-13.06,1.22-.7,2.58-1.26,4.04-1.69l-5.57-6.28c-5.54,1.62-9.47,3.89-12.28,7.09-7.02,7.99-1.46,17.8,12.44,21.91l5.5-6.26c-1.46-.43-2.83-1-4.06-1.7Z"/><g><g><path class="cls-8" d="M48.45,111.33h-7.82v39.13c6-1.75,13.53-1.17,18.56,1.73v-39.17l-10.74-1.7Z"/><polygon class="cls-6" points="67.78 147.28 67.78 114.38 59.19 113.02 59.19 152.19 67.7 147.27 67.78 147.28"/><path class="cls-6" d="M35.04,111.33v32.85l5.57,6.28h.01v-39.13h-5.58Z"/><path class="cls-6" d="M35.04,111.33v32.85l5.57,6.28h.01v-39.13h-5.58Z"/></g><path class="cls-9" d="M59.19,119.34l8.59-4.96c-8.83-5.1-21.66-6.29-32.74-3.05l5.57,6.28c6-1.76,13.54-1.18,18.58,1.73Z"/></g><rect class="cls-17" x="59.19" y="124.32" width="8.8" height="15.08"/><rect class="cls-5" x="31.82" y="111.99" width="8.8" height="21.27"/><polygon class="cls-16" points="35.2 159.08 19.73 145.92 19.73 120.5 35.2 134.7 35.2 159.08"/><polygon class="cls-5" points="35.21 160.76 40.7 154.56 40.7 128.44 35.21 128.44 35.21 160.76"/><path class="cls-13" d="M36.64,126.74c-6.27-3.62-6.3-9.46-.07-13.06,1.22-.7,2.58-1.26,4.04-1.69l-5.57-6.28c-5.54,1.62-9.47,3.89-12.28,7.09-7.02,8-1.46,17.8,12.44,21.91l5.5-6.26c-1.46-.43-2.83-1-4.06-1.7Z"/><polygon class="cls-15" points="75.98 146.28 58.06 157.22 35.2 160.76 35.2 145.11 56.13 140.23 76.1 130.95 75.98 146.28"/><path class="cls-11" d="M67.78,119.36l-8.59,4.96c6.27,3.62,6.3,9.46,.07,13.06-5.01,2.89-12.54,3.44-18.56,1.66l-5.5,6.26c11.11,3.28,23.93,2.13,32.71-2.93,10.97-6.33,10.92-16.64-.12-23.01Z"/></g><g><g><g class="cls-3"><polygon class="cls-2" points="207.91 33.11 205.81 33.11 203.71 33.11 201.61 33.11 199.51 33.11 197.41 33.11 195.31 33.11 193.21 33.11 191.11 33.11 189.01 33.11 186.91 33.11 184.81 33.11 182.71 33.11 180.61 33.11 178.51 33.11 176.41 33.11 174.31 33.11 172.21 33.11 170.11 33.11 168.01 33.11 165.91 33.11 163.81 33.11 161.71 33.11 159.61 33.11 157.51 33.11 155.4 33.11 153.31 33.11 151.21 33.11 149.11 33.11 147 33.11 144.9 33.11 142.8 33.11 140.7 33.11 138.6 33.11 136.5 33.11 134.4 33.11 132.3 33.11 130.2 33.11 128.1 33.11 126 33.11 123.9 33.11 121.8 33.11 119.7 33.11 117.6 33.11 115.5 33.11 113.4 33.11 111.3 33.11 109.2 33.11 107.1 33.11 105 33.11 102.9 33.11 100.8 33.11 98.7 33.11 96.6 33.11 94.5 33.11 92.4 33.11 90.3 33.11 88.2 33.11 86.1 33.11 84 33.11 81.9 33.11 79.8 33.11 77.7 33.11 75.6 33.11 73.5 33.11 71.4 33.11 69.3 33.11 67.2 33.11 65.1 33.11 63 33.11 60.9 33.11 58.8 33.11 56.7 33.11 54.6 33.11 52.5 33.11 50.4 33.11 48.3 33.11 46.2 33.11 44.1 33.11 42 33.11 39.9 33.11 37.8 33.11 35.7 33.11 33.6 33.11 31.5 33.11 29.4 33.11 27.3 33.11 25.2 33.11 23.1 33.11 21 33.11 18.9 33.11 16.8 33.11 14.7 33.11 12.6 33.11 10.5 33.11 8.4 33.11 6.3 33.11 4.2 33.11 2.1 33.11 0 33.11 0 155.25 2.1 155.25 4.2 155.25 6.3 155.25 8.4 155.25 10.5 155.25 12.6 155.25 14.7 155.25 16.8 155.25 18.9 155.25 21 155.25 23.1 155.25 25.2 155.25 27.3 155.25 29.4 155.25 31.5 155.25 33.6 155.25 35.7 155.25 37.8 155.25 39.9 155.25 42 155.25 44.1 155.25 46.2 155.25 48.3 155.25 50.4 155.25 52.5 155.25 54.6 155.25 56.7 155.25 58.8 155.25 60.9 155.25 63 155.25 65.1 155.25 67.2 155.25 69.3 155.25 71.4 155.25 73.5 155.25 75.6 155.25 77.7 155.25 79.8 155.25 81.9 155.25 84 155.25 86.1 155.25 88.2 155.25 90.3 155.25 92.4 155.25 94.5 155.25 96.6 155.25 98.7 155.25 100.8 155.25 102.9 155.25 105 155.25 107.1 155.25 109.2 155.25 111.3 155.25 113.4 155.25 115.5 155.25 117.6 155.25 119.7 155.25 121.8 155.25 123.9 155.25 126 155.25 128.1 155.25 130.2 155.25 132.3 155.25 134.4 155.25 136.5 155.25 138.6 155.25 140.7 155.25 142.8 155.25 144.9 155.25 147 155.25 149.11 155.25 151.21 155.25 153.31 155.25 155.4 155.25 157.51 155.25 159.61 155.25 161.71 155.25 163.81 155.25 165.91 155.25 168.01 155.25 170.11 155.25 172.21 155.25 174.31 155.25 176.41 155.25 178.51 155.25 180.61 155.25 182.71 155.25 184.81 155.25 186.91 155.25 189.01 155.25 191.11 155.25 193.21 155.25 195.31 155.25 197.41 155.25 199.51 155.25 201.61 155.25 203.71 155.25 205.81 155.25 207.91 155.25 210.01 155.25 210.01 33.11 207.91 33.11"/></g><path class="cls-4" d="M141.39,146.56l67.01-38.69c2.38-1.37,2.08-3.77-.67-5.36L77.91,27.55c-2.75-1.59-6.91-1.76-9.29-.38L1.61,65.86c-2.38,1.37-2.08,3.77,.67,5.36l129.83,74.96c2.75,1.59,6.9,1.76,9.28,.38Z"/><path class="cls-14" d="M6.65,67.83l29.2-16.86c.56-.32,1.41-.4,2.12-.21,1.38,.38,3.09,.23,4.24-.43,1.15-.66,1.4-1.65,.75-2.45-.34-.41-.2-.9,.36-1.23l29.2-16.86c.76-.44,1.99-.44,2.74,0l120.33,69.47c.75,.44,.75,1.14,0,1.58l-49.92,28.82-15.95,9.21c-.76,.44-1.99,.44-2.74,0L6.64,69.41c-.75-.44-.75-1.14,0-1.58Z"/><path class="cls-14" d="M38.01,49.73c.73,.42,1.93,.42,2.66,0,.74-.43,.74-1.11,0-1.54-.73-.42-1.93-.42-2.66,0-.74,.43-.74,1.11,0,1.54Z"/></g><g><path class="cls-6" d="M123.67,102.18c1.77,1.02,4.33,1.3,6.55,.86l1.56,2.64c-4.21,.84-8.41,.29-11.55-1.52l3.43-1.98Z"/><path class="cls-17" d="M120.29,95.02l3.41,1.97c-2.49,1.44-2.5,3.76-.03,5.19l-3.43,1.98c-4.36-2.52-4.34-6.61,.05-9.14Z"/><path class="cls-10" d="M132.65,102.16c2.49-1.44,2.5-3.76,.03-5.19-2.47-1.43-6.5-1.42-8.98,.02l-3.41-1.97c1.23-.71,2.64-1.22,4.28-1.55,5.85-1.17,12.21,.61,14.21,3.98,1.99,3.37-1.13,7.05-6.98,8.23l-1.56-2.64c.89-.18,1.72-.47,2.43-.88Z"/><path class="cls-17" d="M141.16,82.97l3.41,1.97c-2.49,1.44-2.5,3.76-.03,5.19,1.49,.86,3.54,1.2,5.48,1.02l.74,2.76c-3.67,.34-7.04-.29-9.66-1.8-4.36-2.52-4.34-6.61,.05-9.14Z"/><path class="cls-10" d="M150.02,91.14c1.28-.12,2.51-.46,3.5-1.03,2.49-1.44,2.5-3.76,.03-5.19l3.43-1.98c1.74,1.01,2.74,2.14,3.12,3.55,.95,3.52-3.24,6.84-9.35,7.41l-.74-2.76Z"/><path class="cls-6" d="M144.57,84.94l-3.41-1.97c4.39-2.53,11.47-2.54,15.83-.03l-3.43,1.98c-2.47-1.43-6.5-1.42-8.98,.02Z"/><path class="cls-17" d="M99.33,107.12l3.41,1.97c-2.49,1.44-2.5,3.76-.03,5.19,2.47,1.43,6.5,1.42,8.98-.02,.49-.28,.87-.6,1.17-.93l4.31,1.26c-.56,.64-1.19,1.13-2.07,1.64-4.39,2.53-11.47,2.54-15.83,.03-4.36-2.52-4.34-6.61,.05-9.14Z"/><path class="cls-10" d="M102.75,109.09l-3.41-1.97c1.75-1.01,3.73-1.6,6.17-1.83l.74,2.76c-1.28,.12-2.51,.46-3.5,1.03Z"/><path class="cls-6" d="M111.73,109.07c-1.49-.86-3.54-1.2-5.48-1.02l-.74-2.76c2.44-.23,4.63-.03,6.83,.61,5.5,1.61,7.67,5.5,4.85,8.68l-4.31-1.26c1.22-1.38,.85-3.11-1.14-4.26Z"/><path class="cls-12" d="M158.78,100.63l12.96-7.48c.66-.38,.67-1,0-1.38-.66-.38-1.73-.38-2.39,0l-12.96,7.48c-.66,.38-.67,1,0,1.38,.66,.38,1.73,.38,2.39,0Z"/><path class="cls-12" d="M164.48,103.92l12.96-7.48c.66-.38,.67-1,0-1.38-.66-.38-1.73-.38-2.39,0l-12.96,7.48c-.66,.38-.67,1,0,1.38s1.73,.38,2.39,0Z"/><path class="cls-12" d="M170.17,107.21l12.96-7.48c.66-.38,.67-1,0-1.38-.66-.38-1.73-.38-2.39,0l-12.96,7.48c-.66,.38-.67,1,0,1.38,.66,.38,1.73,.38,2.39,0Z"/><path class="cls-12" d="M137.91,112.68l12.96-7.48c.66-.38,.67-1,0-1.38-.66-.38-1.73-.38-2.39,0l-12.96,7.48c-.66,.38-.67,1,0,1.38,.66,.38,1.73,.38,2.39,0Z"/><path class="cls-12" d="M143.61,115.97l12.96-7.48c.66-.38,.67-1,0-1.38-.66-.38-1.73-.38-2.39,0l-12.96,7.48c-.66,.38-.67,1,0,1.38,.66,.38,1.73,.38,2.39,0Z"/><path class="cls-12" d="M149.3,119.26l12.96-7.48c.66-.38,.67-1,0-1.38-.66-.38-1.73-.38-2.39,0l-12.96,7.48c-.66,.38-.67,1,0,1.38,.66,.38,1.73,.38,2.39,0Z"/><path class="cls-12" d="M116.96,124.77l12.96-7.48c.66-.38,.67-1,0-1.38-.66-.38-1.73-.38-2.39,0l-12.96,7.48c-.66,.38-.67,1,0,1.38,.66,.38,1.73,.38,2.39,0Z"/><path class="cls-12" d="M122.65,128.06l12.96-7.48c.66-.38,.67-1,0-1.38-.66-.38-1.73-.38-2.39,0l-12.96,7.48c-.66,.38-.67,1,0,1.38,.66,.38,1.73,.38,2.39,0Z"/><path class="cls-12" d="M128.35,131.35l12.96-7.48c.66-.38,.67-1,0-1.38-.66-.38-1.73-.38-2.39,0l-12.96,7.48c-.66,.38-.67,1,0,1.38,.66,.38,1.73,.38,2.39,0Z"/></g><polygon class="cls-10" points="126.6 79.06 134.36 74.58 102.05 55.93 94.29 60.41 126.6 79.06"/><polygon class="cls-6" points="85.29 102.91 93.05 98.43 52.17 74.83 44.41 79.31 85.29 102.91"/><polygon class="cls-17" points="112.83 87.01 120.59 82.53 66.68 51.41 58.92 55.89 112.83 87.01"/><polygon class="cls-16" points="99.06 94.96 106.82 90.48 79.51 74.72 71.75 79.2 99.06 94.96"/></g><g><path class="cls-6" d="M147.19,38.27l3.37-1.94c1.35-.78,3.72-.68,5.28,.22l32.79,18.93v-.94h4.11v4.09c.1,.57-.19,1.13-.89,1.54l-3.36,1.94c-1.35,.78-3.72,.68-5.28-.22l-35.64-20.57c-1.56-.9-1.73-2.27-.38-3.05Z"/><path class="cls-9" d="M188.49,58.04l3.36-1.94c1.35-.78,1.18-2.15-.38-3.05l-35.64-20.57c-1.56-.9-3.93-1-5.28-.22l-3.37,1.94c-1.35,.78-1.18,2.15,.38,3.05l35.64,20.57c1.56,.9,3.93,1,5.28,.22Z"/><path class="cls-12" d="M95.85,19.9v5.36h.08c.39,4.77,3.71,9.45,10.02,13.05,13.46,7.67,35.28,7.52,48.74-.35,6.82-3.98,10.17-9.18,10.08-14.34h.01l.07-3.23-.42,.74c-.98-4.15-4.2-8.15-9.74-11.31-13.46-7.67-35.28-7.52-48.74,.35-5.31,3.1-8.49,6.95-9.61,10.93l-.48-1.2Zm15.77-6.5c10.33-6.04,27.07-6.16,37.4-.27,10.33,5.89,10.33,15.56,0,21.59-10.33,6.04-27.07,6.16-37.4,.27-10.33-5.89-10.33-15.56,0-21.59Z"/><path class="cls-11" d="M110.8,32.68c-10.56-6.02-10.56-15.91,0-22.09,10.56-6.18,27.69-6.3,38.26-.28,10.56,6.02,10.56,15.91,0,22.09-10.56,6.18-27.69,6.3-38.26,.28Z"/><g class="cls-18"><rect class="cls-7" x="141.69" y="4.63" width="4.3" height="33.04"/><rect class="cls-7" x="111.11" y="4.63" width="4.3" height="33.04"/><rect class="cls-7" x="135.52" y="2.16" width="1.43" height="45.04"/></g><path class="cls-14" d="M106.02,34.15c13.46,7.67,35.28,7.52,48.74-.35,13.46-7.87,13.46-20.47,0-28.14-13.46-7.67-35.28-7.52-48.74,.35-13.46,7.87-13.46,20.47,0,28.14Zm5.67-3.32c-10.33-5.89-10.33-15.56,0-21.59,10.33-6.04,27.07-6.16,37.4-.27,10.33,5.89,10.33,15.56,0,21.59-10.33,6.04-27.07,6.16-37.4,.27Z"/></g></svg>