<?xml version="1.0" encoding="UTF-8"?><svg id="Layer_1" xmlns="http://www.w3.org/2000/svg" xmlns:xlink="http://www.w3.org/1999/xlink" viewBox="0 0 1194.92 1133.93"><defs><style>.cls-1,.cls-2,.cls-3,.cls-4{fill:none;}.cls-5{opacity:.1;}.cls-5,.cls-6{fill:#031d42;}.cls-7{fill:url(#linear-gradient);}.cls-2{stroke:#031d42;}.cls-2,.cls-3{stroke-width:1.11px;}.cls-2,.cls-3,.cls-4{stroke-miterlimit:10;}.cls-3{stroke:#919191;}.cls-8{clip-path:url(#clippath);}.cls-9{fill:#f7f9f9;}.cls-10{fill:#f2f7f7;}.cls-11{fill:#f94e4e;}.cls-12{fill:#048abf;}.cls-13{fill:#f27649;}.cls-14{fill:#fff;}.cls-15{fill:#f2b705;}.cls-16{fill:#f29f05;}.cls-17{fill:#f2ab6d;}.cls-18{fill:#b5b5b5;}.cls-19{fill:#db8907;}.cls-20,.cls-21{fill:#d0ddfc;}.cls-22{fill:#9b9b9b;}.cls-23{fill:#455b0e;}.cls-24{fill:#537310;}.cls-25{fill:#2d2a8c;}.cls-26{fill:#837684;}.cls-27{clip-path:url(#clippath-1);}.cls-28{fill:#2c3d34;font-family:Montserrat-Regular, Montserrat;font-size:24px;}.cls-29{fill:url(#linear-gradient-3);}.cls-30{fill:url(#linear-gradient-4);}.cls-31{fill:url(#linear-gradient-2);}.cls-32{fill:url(#linear-gradient-6);}.cls-33{fill:url(#linear-gradient-5);}.cls-21{filter:url(#drop-shadow-1);}.cls-4{stroke:#f7f9f9;stroke-width:.89px;}</style><clipPath id="clippath"><rect class="cls-1" x="-1540.85" y="169.46" width="1920" height="1080" transform="translate(128.62 1290.31) rotate(90)"/></clipPath><linearGradient id="linear-gradient" x1="598.99" y1="621.44" x2="605.45" y2="509.36" gradientTransform="matrix(1, 0, 0, 1, 0, 0)" gradientUnits="userSpaceOnUse"><stop offset="0" stop-color="#f28705"/><stop offset="1" stop-color="#f2b705"/></linearGradient><linearGradient id="linear-gradient-2" x1="627.57" y1="613.4" x2="641.5" y2="518.62" xlink:href="#linear-gradient"/><linearGradient id="linear-gradient-3" x1="601.4" y1="567.13" x2="656.92" y2="563.05" gradientTransform="matrix(1, 0, 0, 1, 0, 0)" gradientUnits="userSpaceOnUse"><stop offset=".09" stop-color="#f26505"/><stop offset=".52" stop-color="#f28705"/><stop offset="1" stop-color="#f2b705"/></linearGradient><linearGradient id="linear-gradient-4" x1="1110.43" y1="584.05" x2="571.4" y2="211.11" gradientTransform="matrix(1, 0, 0, 1, 0, 0)" gradientUnits="userSpaceOnUse"><stop offset=".41" stop-color="#2a398c"/><stop offset="1" stop-color="#f2b705"/></linearGradient><linearGradient id="linear-gradient-5" x1="986.02" y1="575.82" x2="636.51" y2="302.23" gradientTransform="matrix(1, 0, 0, 1, 0, 0)" gradientUnits="userSpaceOnUse"><stop offset=".36" stop-color="#2d2a8c"/><stop offset=".5" stop-color="#2a398c"/><stop offset="1" stop-color="#f2b705"/></linearGradient><linearGradient id="linear-gradient-6" x1="668.68" y1="677.46" x2="871.2" y2="1068.75" xlink:href="#linear-gradient-4"/><clipPath id="clippath-1"><path class="cls-18" d="M357.8,816.05c-.85-12.57,2.89-24.96,16.13-26.32s18-1.36,25.98,1.02c7.98,2.38,9.17,27.68,6.45,30.4-2.72,2.72-35.83,1.02-48.57-5.09Z"/></clipPath><filter id="drop-shadow-1" filterUnits="userSpaceOnUse"><feOffset dx="10" dy="7.78"/><feGaussianBlur result="blur" stdDeviation="5.55"/><feFlood flood-color="#000" flood-opacity=".06"/><feComposite in2="blur" operator="in"/><feComposite in="SourceGraphic"/></filter></defs><g class="cls-8"><text class="cls-28" transform="translate(-39.36 96.68)"><tspan x="0" y="0">Lorem ipsum dolor sit amet, consectetuer adipiscing</tspan></text><circle class="cls-9" cx="326.64" cy="1103.32" r="3.7"/><circle class="cls-9" cx="274.82" cy="1082" r="3.7"/></g><g><circle class="cls-12" cx="961.48" cy="104.33" r="54.91"/><circle class="cls-15" cx="287.54" cy="102.58" r="36.11"/><circle class="cls-4" cx="982.4" cy="36.03" r="36.03"/><circle class="cls-12" cx="817.46" cy="88.41" r="12.91"/><g><path class="cls-12" d="M1109.25,673.35c-13.11,42.58-31.7,83.18-53.34,122.18h0c-7.17,12.92-14.68,25.65-22.42,38.24-6.39,10.38-12.94,20.64-19.61,30.82,4.02-23.22,8.05-46.45,12.08-69.67v-.02c.56-3.18,1.1-6.32,1.66-9.5-.82,1.76-1.66,3.49-2.51,5.23-24.02,49.19-57.86,93.02-98.39,129.76h-.01c-23.79,21.59-49.85,40.69-77.59,57.04-6.34,3.74-12.78,7.33-19.29,10.75-.01,.01-.02,.01-.03,0-26.54,14.04-54.36,25.57-83.01,34.35h-.01c-4.03,1.22-8.05,2.4-12.11,3.52-37.84,10.45-76.75,16.25-115.87,17.72-10.18,.4-20.36,.49-30.54,.29-80.77-1.54-161.49-21.09-234.65-55.67-26.74-12.63-52.74-27.37-76.81-44.61-6.95-4.97-13.76-10.15-20.38-15.56-8.27-6.75-16.24-13.84-23.86-21.32-9.02-8.8-17.55-18.12-25.51-27.97-2.4-2.98-4.75-6.01-7.04-9.09-2.96-3.99-5.82-8.07-8.58-12.21-5.37-8.07-10.31-16.41-14.81-25-1.8-3.46-3.53-6.94-5.19-10.47-16.7-35.58-25.44-74.66-22.66-113.74,1.66,6.54,3.31,13.1,4.97,19.65-2.21-8.94-4.15-17.95-5.81-27.02-1.2-6.55-2.26-13.14-3.18-19.74-1.16-8.35-2.08-16.74-2.78-25.14-1.26-15.05-1.78-30.16-1.58-45.26,.12-9.14,.5-18.29,1.14-27.42,.36-5.19,.8-10.38,1.33-15.55h0c1.76-17.18,4.42-34.24,8-51.13,1.5-7.13,3.16-14.23,4.99-21.3,12.67-49.12,32.97-96.25,60.38-138.94,24.63-38.36,54.92-73.61,86.92-105.96,17.15-17.33,35.14-33.84,53.88-49.45,14.08-11.73,38.04-38.07,55.97-42.37-28.14,6.74-56.28,13.5-84.43,20.25,74.59-60.04,173.2-85.49,269-80.97,1.52,.08,3.04,.16,4.57,.24,3.64,.21,7.3,.46,10.93,.76,71.51,5.82,140.8,27.26,205.77,58.17,26.42,12.57,52.13,26.7,76.97,41.97,25.27,15.54,50.04,32.72,73.43,51.55,1.23,.99,2.47,1.98,3.7,2.98,67.71,55.33,123.39,124.61,145.46,208.14,18.24,69.1,11.88,143.14-9.15,211.45Z"/><rect class="cls-6" x="390.69" y="646.59" width="24.46" height="159.02"/><path class="cls-16" d="M623.21,840.01l-.38,17.59-4.04,186.18c-10.18,.4-20.36,.49-30.54,.29l14.61-183.05,2.38-29.74,17.98,8.74Z"/><path class="cls-16" d="M276.79,943.79c-6.95-4.97-13.76-10.15-20.38-15.56l.5-18.55,.61-22.53,17.98,8.74,.43,15.95,.86,31.95Z"/><path class="cls-19" d="M936.35,768.64l-80.52,14.08-54.45,9.52-97.29,17-38.22,6.68-33.38,5.84-338.86,59.23-93.63-11.14c-2.96-3.99-5.82-8.07-8.58-12.21-5.37-8.07-10.31-16.41-14.81-25-1.8-3.46-3.53-6.94-5.19-10.47l55.8-8.19,91.03-13.34,72.42-10.62,10.37-1.52,13.82-2.02,.28-.04,8.13-1.19,48.96-7.18,45.88-6.73,.36-.06,58.56-8.58,15.44-2.27,.17-.02,17.75-2.6,73.6-10.79h.01l12.31-1.81,18.22,1.78,88.24,8.61,55.04,5.38,78.52,7.67Z"/><path class="cls-6" d="M853.97,771.77l-52.42,9.17-87.61,15.31-37.28,6.52-47.46,8.29-335.88,58.71-101.9-12.13c-5.37-8.07-10.31-16.41-14.81-25l51.78-7.6,88.69-13,73.6-10.79,10.37-1.52,14.1-2.07,53.35-7.82,145.98-21.4,.17-.03,.24-.03,75.39-11.05,6.31-.92,14.64,1.43,90.82,8.87,51.92,5.07Z"/><polygon class="cls-15" points="293.63 880.99 293.63 913.85 946.57 802.27 936.35 768.65 293.63 880.99"/><path class="cls-16" d="M293.63,880.99v32.86l-17.7-2.01-19.02-2.17-24.36-2.77c-9.02-8.8-17.55-18.12-25.51-27.97-2.4-2.98-4.75-6.01-7.04-9.09l93.63,11.14Z"/><g><g><polygon class="cls-22" points="614.89 762.7 547.44 762.7 547.44 762.94 545.99 762.94 545.99 763.17 544.54 763.17 544.54 763.41 543.09 763.41 543.09 763.64 541.64 763.64 541.64 763.88 540.19 763.88 540.19 764.12 538.74 764.12 538.74 764.35 537.29 764.35 537.29 764.59 535.85 764.59 535.85 764.82 534.4 764.82 534.4 765.06 532.95 765.06 532.95 765.29 531.5 765.29 531.5 765.53 530.05 765.53 530.05 765.76 528.6 765.76 528.6 766 527.15 766 527.15 766.23 525.7 766.23 525.7 766.47 524.25 766.47 524.25 766.7 522.8 766.7 522.8 766.94 521.35 766.94 521.35 767.18 519.9 767.18 519.9 767.41 518.45 767.41 518.45 767.65 517 767.65 517 767.88 515.55 767.88 515.55 768.12 514.1 768.12 514.1 768.35 512.65 768.35 512.65 768.59 511.21 768.59 511.21 768.82 509.76 768.82 509.76 769.06 508.31 769.06 508.31 769.29 506.86 769.29 506.86 769.53 505.41 769.53 505.41 769.77 503.96 769.77 503.96 770 502.51 770 502.51 770.24 501.06 770.24 501.06 770.47 499.61 770.47 499.61 770.71 498.16 770.71 498.16 770.94 496.71 770.94 496.71 771.18 495.26 771.18 495.26 771.41 493.81 771.41 493.81 771.65 492.36 771.65 492.36 771.88 490.91 771.88 490.91 772.12 489.46 772.12 489.46 772.35 488.01 772.35 488.01 772.59 486.56 772.59 486.56 772.83 485.12 772.83 485.12 773.06 483.67 773.06 483.67 773.3 482.22 773.3 482.22 773.53 480.77 773.53 480.77 773.77 479.32 773.77 479.32 774 477.87 774 477.87 774.24 476.42 774.24 476.42 774.47 474.97 774.47 474.97 774.71 473.52 774.71 473.52 774.94 472.07 774.94 472.07 775.18 470.62 775.18 470.62 775.41 469.17 775.41 469.17 775.65 467.72 775.65 467.72 775.89 466.27 775.89 466.27 776.12 464.82 776.12 464.82 776.36 463.37 776.36 463.37 776.59 461.92 776.59 461.92 776.83 460.47 776.83 460.47 777.06 459.03 777.06 459.03 777.3 457.58 777.3 457.58 777.53 456.13 777.53 456.13 777.77 454.68 777.77 454.68 778 453.23 778 453.23 778.24 451.78 778.24 451.78 778.48 450.33 778.48 450.33 778.71 448.88 778.71 448.88 778.95 447.43 778.95 447.43 779.18 445.98 779.18 445.98 779.42 444.53 779.42 444.53 779.65 443.08 779.65 443.08 779.89 441.63 779.89 441.63 780.12 440.18 780.12 440.18 780.36 438.73 780.36 438.73 780.59 437.28 780.59 437.28 780.83 435.83 780.83 435.83 781.06 434.39 781.06 434.39 781.3 432.94 781.3 432.94 781.54 431.49 781.54 431.49 781.77 430.04 781.77 430.04 782.01 428.59 782.01 428.59 782.24 427.14 782.24 427.14 782.48 425.69 782.48 425.69 782.71 424.24 782.71 424.24 782.95 422.79 782.95 422.79 783.18 421.34 783.18 421.34 783.42 419.89 783.42 419.89 783.65 418.44 783.65 418.44 783.89 416.99 783.89 416.99 784.12 415.54 784.12 415.54 784.36 414.09 784.36 414.09 784.6 412.64 784.6 412.64 784.83 411.19 784.83 411.19 785.07 409.74 785.07 409.74 785.3 408.3 785.3 408.3 785.54 406.85 785.54 406.85 785.77 405.4 785.77 405.4 786.01 403.95 786.01 403.95 786.24 402.5 786.24 402.5 786.48 401.05 786.48 401.05 806.86 468.49 806.86 468.49 806.62 469.94 806.62 469.94 806.39 471.39 806.39 471.39 806.15 472.84 806.15 472.84 805.92 474.29 805.92 474.29 805.68 475.74 805.68 475.74 805.45 477.19 805.45 477.19 805.21 478.64 805.21 478.64 804.98 480.09 804.98 480.09 804.74 481.54 804.74 481.54 804.5 482.99 804.5 482.99 804.27 484.44 804.27 484.44 804.03 485.89 804.03 485.89 803.8 487.34 803.8 487.34 803.56 488.79 803.56 488.79 803.33 490.24 803.33 490.24 803.09 491.69 803.09 491.69 802.86 493.14 802.86 493.14 802.62 494.58 802.62 494.58 802.39 496.03 802.39 496.03 802.15 497.48 802.15 497.48 801.91 498.93 801.91 498.93 801.68 500.38 801.68 500.38 801.44 501.83 801.44 501.83 801.21 503.28 801.21 503.28 800.97 504.73 800.97 504.73 800.74 506.18 800.74 506.18 800.5 507.63 800.5 507.63 800.27 509.08 800.27 509.08 800.03 510.53 800.03 510.53 799.8 511.98 799.8 511.98 799.56 513.43 799.56 513.43 799.33 514.88 799.33 514.88 799.09 516.33 799.09 516.33 798.85 517.78 798.85 517.78 798.62 519.23 798.62 519.23 798.38 520.67 798.38 520.67 798.15 522.12 798.15 522.12 797.91 523.57 797.91 523.57 797.68 525.02 797.68 525.02 797.44 526.47 797.44 526.47 797.21 527.92 797.21 527.92 796.97 529.37 796.97 529.37 796.74 530.82 796.74 530.82 796.5 532.27 796.5 532.27 796.27 533.72 796.27 533.72 796.03 535.17 796.03 535.17 795.79 536.62 795.79 536.62 795.56 538.07 795.56 538.07 795.32 539.52 795.32 539.52 795.09 540.97 795.09 540.97 794.85 542.42 794.85 542.42 794.62 543.87 794.62 543.87 794.38 545.31 794.38 545.31 794.15 546.76 794.15 546.76 793.91 548.21 793.91 548.21 793.68 549.66 793.68 549.66 793.44 551.11 793.44 551.11 793.2 552.56 793.2 552.56 792.97 554.01 792.97 554.01 792.73 555.46 792.73 555.46 792.5 556.91 792.5 556.91 792.26 558.36 792.26 558.36 792.03 559.81 792.03 559.81 791.79 561.26 791.79 561.26 791.56 562.71 791.56 562.71 791.32 564.16 791.32 564.16 791.09 565.61 791.09 565.61 790.85 567.06 790.85 567.06 790.62 568.51 790.62 568.51 790.38 569.96 790.38 569.96 790.14 571.4 790.14 571.4 789.91 572.85 789.91 572.85 789.67 574.3 789.67 574.3 789.44 575.75 789.44 575.75 789.2 577.2 789.2 577.2 788.97 578.65 788.97 578.65 788.73 580.1 788.73 580.1 788.5 581.55 788.5 581.55 788.26 583 788.26 583 788.03 584.45 788.03 584.45 787.79 585.9 787.79 585.9 787.56 587.35 787.56 587.35 787.32 588.8 787.32 588.8 787.08 590.25 787.08 590.25 786.85 591.7 786.85 591.7 786.61 593.15 786.61 593.15 786.38 594.6 786.38 594.6 786.14 596.04 786.14 596.04 785.91 597.49 785.91 597.49 785.67 598.94 785.67 598.94 785.44 600.39 785.44 600.39 785.2 601.84 785.2 601.84 784.97 603.29 784.97 603.29 784.73 604.74 784.73 604.74 784.49 606.19 784.49 606.19 784.26 607.64 784.26 607.64 784.02 609.09 784.02 609.09 783.79 610.54 783.79 610.54 783.55 611.99 783.55 611.99 783.32 613.44 783.32 613.44 783.08 614.89 783.08 614.89 762.7"/><rect class="cls-22" x="401.05" y="786.48" width="67.45" height="20.38"/><polygon class="cls-18" points="468.49 786.48 614.89 762.7 613.44 783.08 468.49 806.86 468.49 786.48"/></g><g><polygon class="cls-22" points="592.65 759.23 539.23 759.23 539.23 759.42 538.08 759.42 538.08 759.6 536.94 759.6 536.94 759.79 535.79 759.79 535.79 759.98 534.64 759.98 534.64 760.16 533.49 760.16 533.49 760.35 532.34 760.35 532.34 760.54 531.2 760.54 531.2 760.72 530.05 760.72 530.05 760.91 528.9 760.91 528.9 761.1 527.75 761.1 527.75 761.28 526.6 761.28 526.6 761.47 525.46 761.47 525.46 761.65 524.31 761.65 524.31 761.84 523.16 761.84 523.16 762.03 522.01 762.03 522.01 762.21 520.86 762.21 520.86 762.4 519.72 762.4 519.72 762.59 518.57 762.59 518.57 762.77 517.42 762.77 517.42 762.96 516.27 762.96 516.27 763.15 515.12 763.15 515.12 763.33 513.98 763.33 513.98 763.52 512.83 763.52 512.83 763.71 511.68 763.71 511.68 763.89 510.53 763.89 510.53 764.08 509.38 764.08 509.38 764.27 508.24 764.27 508.24 764.45 507.09 764.45 507.09 764.64 505.94 764.64 505.94 764.82 504.79 764.82 504.79 765.01 503.64 765.01 503.64 765.2 502.5 765.2 502.5 765.38 501.35 765.38 501.35 765.57 500.2 765.57 500.2 765.76 499.05 765.76 499.05 765.94 497.9 765.94 497.9 766.13 496.76 766.13 496.76 766.32 495.61 766.32 495.61 766.5 494.46 766.5 494.46 766.69 493.31 766.69 493.31 766.88 492.16 766.88 492.16 767.06 491.02 767.06 491.02 767.25 489.87 767.25 489.87 767.43 488.72 767.43 488.72 767.62 487.57 767.62 487.57 767.81 486.42 767.81 486.42 767.99 485.28 767.99 485.28 768.18 484.13 768.18 484.13 768.37 482.98 768.37 482.98 768.55 481.83 768.55 481.83 768.74 480.68 768.74 480.68 768.93 479.54 768.93 479.54 769.11 478.39 769.11 478.39 769.3 477.24 769.3 477.24 769.49 476.09 769.49 476.09 769.67 474.94 769.67 474.94 769.86 473.8 769.86 473.8 770.05 472.65 770.05 472.65 770.23 471.5 770.23 471.5 770.42 470.35 770.42 470.35 770.6 469.2 770.6 469.2 770.79 468.06 770.79 468.06 770.98 466.91 770.98 466.91 771.16 465.76 771.16 465.76 771.35 464.61 771.35 464.61 771.54 463.46 771.54 463.46 771.72 462.32 771.72 462.32 771.91 461.17 771.91 461.17 772.1 460.02 772.1 460.02 772.28 458.87 772.28 458.87 772.47 457.72 772.47 457.72 772.66 456.58 772.66 456.58 772.84 455.43 772.84 455.43 773.03 454.28 773.03 454.28 773.22 453.13 773.22 453.13 773.4 451.98 773.4 451.98 773.59 450.84 773.59 450.84 773.77 449.69 773.77 449.69 773.96 448.54 773.96 448.54 774.15 447.39 774.15 447.39 774.33 446.24 774.33 446.24 774.52 445.1 774.52 445.1 774.71 443.95 774.71 443.95 774.89 442.8 774.89 442.8 775.08 441.65 775.08 441.65 775.27 440.5 775.27 440.5 775.45 439.36 775.45 439.36 775.64 438.21 775.64 438.21 775.83 437.06 775.83 437.06 776.01 435.91 776.01 435.91 776.2 434.76 776.2 434.76 776.38 433.62 776.38 433.62 776.57 432.47 776.57 432.47 776.76 431.32 776.76 431.32 776.94 430.17 776.94 430.17 777.13 429.02 777.13 429.02 777.32 427.87 777.32 427.87 777.5 426.73 777.5 426.73 777.69 425.58 777.69 425.58 777.88 424.43 777.88 424.43 778.06 423.28 778.06 423.28 786.13 476.7 786.13 476.7 785.95 477.85 785.95 477.85 785.76 479 785.76 479 785.57 480.15 785.57 480.15 785.39 481.3 785.39 481.3 785.2 482.44 785.2 482.44 785.01 483.59 785.01 483.59 784.83 484.74 784.83 484.74 784.64 485.89 784.64 485.89 784.46 487.04 784.46 487.04 784.27 488.18 784.27 488.18 784.08 489.33 784.08 489.33 783.9 490.48 783.9 490.48 783.71 491.63 783.71 491.63 783.52 492.78 783.52 492.78 783.34 493.92 783.34 493.92 783.15 495.07 783.15 495.07 782.96 496.22 782.96 496.22 782.78 497.37 782.78 497.37 782.59 498.52 782.59 498.52 782.4 499.66 782.4 499.66 782.22 500.81 782.22 500.81 782.03 501.96 782.03 501.96 781.85 503.11 781.85 503.11 781.66 504.26 781.66 504.26 781.47 505.4 781.47 505.4 781.29 506.55 781.29 506.55 781.1 507.7 781.1 507.7 780.91 508.85 780.91 508.85 780.73 510 780.73 510 780.54 511.14 780.54 511.14 780.35 512.29 780.35 512.29 780.17 513.44 780.17 513.44 779.98 514.59 779.98 514.59 779.79 515.74 779.79 515.74 779.61 516.88 779.61 516.88 779.42 518.03 779.42 518.03 779.23 519.18 779.23 519.18 779.05 520.33 779.05 520.33 778.86 521.48 778.86 521.48 778.68 522.62 778.68 522.62 778.49 523.77 778.49 523.77 778.3 524.92 778.3 524.92 778.12 526.07 778.12 526.07 777.93 527.22 777.93 527.22 777.74 528.36 777.74 528.36 777.56 529.51 777.56 529.51 777.37 530.66 777.37 530.66 777.18 531.81 777.18 531.81 777 532.96 777 532.96 776.81 534.1 776.81 534.1 776.62 535.25 776.62 535.25 776.44 536.4 776.44 536.4 776.25 537.55 776.25 537.55 776.07 538.7 776.07 538.7 775.88 539.84 775.88 539.84 775.69 540.99 775.69 540.99 775.51 542.14 775.51 542.14 775.32 543.29 775.32 543.29 775.13 544.44 775.13 544.44 774.95 545.58 774.95 545.58 774.76 546.73 774.76 546.73 774.57 547.88 774.57 547.88 774.39 549.03 774.39 549.03 774.2 550.18 774.2 550.18 774.01 551.32 774.01 551.32 773.83 552.47 773.83 552.47 773.64 553.62 773.64 553.62 773.45 554.77 773.45 554.77 773.27 555.92 773.27 555.92 773.08 557.06 773.08 557.06 772.9 558.21 772.9 558.21 772.71 559.36 772.71 559.36 772.52 560.51 772.52 560.51 772.34 561.66 772.34 561.66 772.15 562.8 772.15 562.8 771.96 563.95 771.96 563.95 771.78 565.1 771.78 565.1 771.59 566.25 771.59 566.25 771.4 567.4 771.4 567.4 771.22 568.54 771.22 568.54 771.03 569.69 771.03 569.69 770.84 570.84 770.84 570.84 770.66 571.99 770.66 571.99 770.47 573.14 770.47 573.14 770.29 574.28 770.29 574.28 770.1 575.43 770.1 575.43 769.91 576.58 769.91 576.58 769.73 577.73 769.73 577.73 769.54 578.88 769.54 578.88 769.35 580.02 769.35 580.02 769.17 581.17 769.17 581.17 768.98 582.32 768.98 582.32 768.79 583.47 768.79 583.47 768.61 584.62 768.61 584.62 768.42 585.76 768.42 585.76 768.23 586.91 768.23 586.91 768.05 588.06 768.05 588.06 767.86 589.21 767.86 589.21 767.67 590.36 767.67 590.36 767.49 591.5 767.49 591.5 767.3 592.65 767.3 592.65 759.23"/><rect class="cls-22" x="423.28" y="778.06" width="53.42" height="8.07"/><polygon class="cls-18" points="476.7 778.06 592.65 759.23 591.5 767.3 476.7 786.13 476.7 778.06"/></g></g><polygon class="cls-20" points="236.06 684.37 56.72 718.34 56.72 514.29 236.06 480.32 236.06 684.37"/><polygon class="cls-2" points="76.72 530.86 216.06 504.46 216.06 667.81 76.72 694.2 76.72 530.86"/><rect class="cls-20" x="572.32" y="445.78" width="204.05" height="204.05"/><rect class="cls-2" x="592.32" y="465.78" width="164.06" height="164.06"/><polygon class="cls-20" points="236.06 480.32 572.32 444.62 572.32 636.62 236.06 684.37 236.06 480.32"/><polygon class="cls-2" points="256.06 498.31 552.32 466.86 552.32 619.26 256.06 661.34 256.06 498.31"/><path class="cls-17" d="M859.92,745.21l-48.39-5.61-30.95-39.79-57.7-73.31s-10.19-3.06-19.88-4.51c-9.29-1.4-18.58-20.83-19.3-22.39,1.93,1.79,5.74,3.13,12.62,4.32,.27,.06,.52,.1,.8,.14,2.37,.38,4.75,.46,6.9,.01,8.35-1.73,8.92-20.89,8.92-20.89,0,0-.26-8.65-5.35-11.21-5.09-2.54-22.93-9.68-22.93-9.68l.93-.53,21.21-12.12s4.8-.43,10.22-.87c1.1-.09,2.71,1.12,3.81,1.03,1.08-.08,1.64-1.44,2.67-1.51,4.23-.29,7.8-.46,8.54-.27,2.04,.51,12.74,7.64,19.88,14.26,7.13,6.62,80.62,79.99,80.62,79.99l27.39,102.92Z"/><path class="cls-7" d="M574.45,621.51c.22-.03,.43-.06,.65-.09,.22-.03,.43-.06,.65-.09,.22-.03,.43-.06,.65-.09,.22-.03,.43-.06,.65-.09,.22-.03,.43-.06,.65-.09,.22-.03,.43-.06,.65-.09,.22-.03,.43-.06,.65-.09,.22-.03,.43-.06,.65-.09,.22-.03,.43-.06,.65-.09,.22-.03,.43-.06,.65-.09,.22-.03,.43-.06,.65-.09,.22-.03,.43-.06,.65-.09,.22-.03,.43-.06,.65-.09,.22-.03,.43-.06,.65-.09,.22-.03,.43-.06,.65-.09,.22-.03,.43-.06,.65-.09,.22-.03,.43-.06,.65-.09,.22-.03,.43-.06,.65-.09,.22-.03,.43-.06,.65-.09,.22-.03,.43-.06,.65-.09,.22-.03,.43-.06,.65-.09,.22-.03,.43-.06,.65-.09,.22-.03,.43-.06,.65-.09,.22-.03,.43-.06,.65-.09,.22-.03,.43-.06,.65-.09,.22-.03,.43-.06,.65-.09,.22-.03,.43-.06,.65-.09,.22-.03,.43-.06,.65-.09,.22-.03,.43-.06,.65-.09,.22-.03,.43-.06,.65-.09,.22-.03,.43-.06,.65-.09,.22-.03,.43-.06,.65-.09,.22-.03,.43-.06,.65-.09,.22-.03,.43-.06,.65-.09,.22-.03,.43-.06,.65-.09,.22-.03,.43-.06,.65-.09,.22-.03,.43-.06,.65-.09,.22-.03,.43-.06,.65-.09,.22-.03,.43-.06,.65-.09,.22-.03,.43-.06,.65-.09,.22-.03,.43-.06,.65-.09,.22-.03,.43-.06,.65-.09,.22-.03,.43-.06,.65-.09,.22-.03,.43-.06,.65-.09,.22-.03,.43-.06,.65-.09,.22-.03,.43-.06,.65-.09,.22-.03,.43-.06,.65-.09,.22-.03,.43-.06,.65-.09,.22-.03,.43-.06,.65-.09,.22-.03,.43-.06,.65-.09,.22-.03,.43-.06,.65-.09,.22-.03,.43-.06,.65-.09,.22-.03,.43-.06,.65-.09,.22-.03,.43-.06,.65-.09,.22-.03,.43-.06,.65-.09,.22-.03,.43-.06,.65-.09,.22-.03,.43-.06,.65-.09,.22-.03,.43-.06,.65-.09,.22-.03,.43-.06,.65-.09,.22-.03,.43-.06,.65-.09,.22-.03,.43-.06,.65-.09,.22-.03,.43-.06,.65-.09,.22-.03,.43-.06,.65-.09,.22-.03,.43-.06,.65-.09,.22-.03,.43-.06,.65-.09,.22-.03,.43-.06,.65-.09,.22-.03,.43-.06,.65-.09,.22-.03,.43-.06,.65-.09,.22-.03,.43-.06,.65-.09,.22-.03,.43-.06,.65-.09,.22-.03,.43-.06,.65-.09,.22-.03,.43-.06,.65-.09,.22-.03,.43-.06,.65-.09,.22-.03,.43-.06,.65-.09,.22-.03,.43-.06,.65-.09,.22-.03,.43-.06,.65-.09,.22-.03,.43-.06,.65-.09,.22-.03,.43-.06,.65-.09,.22-.03,.43-.06,.65-.09,.22-.03,.43-.06,.65-.09,.22-.03,.43-.06,.65-.09,.22-.03,.43-.06,.65-.09,.22-.03,.43-.06,.65-.09,.22-.03,.43-.06,.65-.09,.22-.03,.43-.06,.65-.09,.22-.03,.43-.06,.65-.09,.22-.03,.43-.06,.65-.09,.22-.03,.43-.06,.65-.09,.22-.03,.43-.06,.65-.09,.22-.03,.43-.06,.65-.09,.22-.03,.43-.06,.65-.09,.22-.03,.43-.06,.65-.09,.22-.03,.43-.06,.65-.09,.22-.03,.43-.06,.65-.09,.22-.03,.43-.06,.65-.09,.22-.03,.43-.06,.65-.09,.22-.03,.43-.06,.65-.09,.22-.03,.43-.06,.65-.09,17.52-2.19,30.36-22.06,30.36-47.92,0-27.44-14.44-48.13-33.6-48.13-1.32,0-2.62,.11-3.89,.3-.22,.03-.43,.06-.65,.09-.22,.03-.43,.06-.65,.09-.22,.03-.43,.06-.65,.09-.22,.03-.43,.06-.65,.09-.22,.03-.43,.06-.65,.09-.22,.03-.43,.06-.65,.09-.22,.03-.43,.06-.65,.09-.22,.03-.43,.06-.65,.09-.22,.03-.43,.06-.65,.09-.22,.03-.43,.06-.65,.09-.22,.03-.43,.06-.65,.09-.22,.03-.43,.06-.65,.09-.22,.03-.43,.06-.65,.09-.22,.03-.43,.06-.65,.09-.22,.03-.43,.06-.65,.09-.22,.03-.43,.06-.65,.09-.22,.03-.43,.06-.65,.09-.22,.03-.43,.06-.65,.09-.22,.03-.43,.06-.65,.09-.22,.03-.43,.06-.65,.09-.22,.03-.43,.06-.65,.09-.22,.03-.43,.06-.65,.09-.22,.03-.43,.06-.65,.09-.22,.03-.43,.06-.65,.09-.22,.03-.43,.06-.65,.09-.22,.03-.43,.06-.65,.09-.22,.03-.43,.06-.65,.09-.22,.03-.43,.06-.65,.09-.22,.03-.43,.06-.65,.09-.22,.03-.43,.06-.65,.09-.22,.03-.43,.06-.65,.09-.22,.03-.43,.06-.65,.09-.22,.03-.43,.06-.65,.09-.22,.03-.43,.06-.65,.09-.22,.03-.43,.06-.65,.09-.22,.03-.43,.06-.65,.09-.22,.03-.43,.06-.65,.09-.22,.03-.43,.06-.65,.09-.22,.03-.43,.06-.65,.09-.22,.03-.43,.06-.65,.09-.22,.03-.43,.06-.65,.09-.22,.03-.43,.06-.65,.09-.22,.03-.43,.06-.65,.09-.22,.03-.43,.06-.65,.09-.22,.03-.43,.06-.65,.09-.22,.03-.43,.06-.65,.09-.22,.03-.43,.06-.65,.09-.22,.03-.43,.06-.65,.09-.22,.03-.43,.06-.65,.09-.22,.03-.43,.06-.65,.09-.22,.03-.43,.06-.65,.09-.22,.03-.43,.06-.65,.09-.22,.03-.43,.06-.65,.09-.22,.03-.43,.06-.65,.09-.22,.03-.43,.06-.65,.09-.22,.03-.43,.06-.65,.09-.22,.03-.43,.06-.65,.09-.22,.03-.43,.06-.65,.09-.22,.03-.43,.06-.65,.09-.22,.03-.43,.06-.65,.09-.22,.03-.43,.06-.65,.09-.22,.03-.43,.06-.65,.09-.22,.03-.43,.06-.65,.09-.22,.03-.43,.06-.65,.09-.22,.03-.43,.06-.65,.09-.22,.03-.43,.06-.65,.09-.22,.03-.43,.06-.65,.09-.22,.03-.43,.06-.65,.09-.22,.03-.43,.06-.65,.09-.22,.03-.43,.06-.65,.09-.22,.03-.43,.06-.65,.09-.22,.03-.43,.06-.65,.09-.22,.03-.43,.06-.65,.09-.22,.03-.43,.06-.65,.09-.22,.03-.43,.06-.65,.09-.22,.03-.43,.06-.65,.09-.22,.03-.43,.06-.65,.09-.22,.03-.43,.06-.65,.09-.22,.03-.43,.06-.65,.09-.22,.03-.43,.06-.65,.09-.22,.03-.43,.06-.65,.09-.22,.03-.43,.06-.65,.09-.22,.03-.43,.06-.65,.09-.22,.03-.43,.06-.65,.09-.22,.03-.43,.06-.65,.09-.22,.03-.43,.06-.65,.09-.22,.03-.43,.06-.65,.09-.22,.03-.43,.06-.65,.09-.22,.03-.43,.06-.65,.09-.22,.03-.43,.06-.65,.09-.22,.03-.43,.06-.65,.09-.22,.03-.43,.06-.65,.09-.22,.03-.43,.06-.65,.09-.22,.03-.43,.06-.65,.09-.22,.03-.43,.06-.65,.09-.22,.03-.43,.06-.65,.09-.22,.03-.43,.06-.65,.09-.22,.03-.43,.06-.65,.09-.22,.03-.43,.06-.65,.09-.22,.03-.43,.06-.65,.09-17.52,2.19-30.36,22.06-30.36,47.93,0,27.44,14.44,48.13,33.6,48.13,1.32,0,2.62-.11,3.89-.3,.22-.03,.43-.06,.65-.09,.22-.03,.43-.06,.65-.09Z"/><ellipse class="cls-31" cx="634.73" cy="564.68" rx="33.6" ry="48.13"/><path class="cls-29" d="M657.22,564.68c0,1.84-.08,3.66-.23,5.42-.31,3.7-.94,7.21-1.86,10.44-3.54,12.61-11.25,21.16-20.4,21.16s-17.46-9.24-20.8-22.7c-.91-3.68-1.48-7.67-1.63-11.87-.04-.81-.06-1.63-.06-2.47,0-20.76,9.88-37.03,22.49-37.03s22.49,16.26,22.49,37.03Z"/><path class="cls-17" d="M561.37,639.69s26.15,71.72,43.82,106.7c17.66,34.98,40.08,120.24,40.08,120.24l69.97-68.27-91.71-150.81s11.89-25.13,14.78-31.93c2.89-6.79,3.23-8.15,3.23-8.15,0,0-34.98,1.36-48.57-12.57-13.59-13.93-11.21-7.47-16.64-23.1-5.43-15.62-2.38-27.34-3.23-31.93-.85-4.59-3.4-6.28-5.69-6.79s-3.99,.68-5.35,4.59c-1.36,3.91-6.28,22.93-6.11,28.7,0,0-1.36-.68-4.42-.51-3.06,.17-13.08,14.78-13.59,20.55-.51,5.77,7.3,32.1,11.72,38.55,4.42,6.45,11.72,14.72,11.72,14.72Z"/><path class="cls-17" d="M837.47,588.21l.03-.43s.4,.21-.03,.43Z"/><path class="cls-17" d="M936.69,504.57s-18.34,133.48-19.36,133.82c-1.02,.34-83.56-5.09-83.56-5.09l3.7-45.08c.43-.22,.03-.43,.03-.43l-.03,.43c-.88,.46-5.29,.93-24.07-.43-23.33-1.7-26.41-27.49-27.59-52.18h-.01c-.22-4.79-.38-9.53-.6-14.05-.23-4.84-.22-9.69-.04-14.36,.84-22.23,5.48-40.99,5.48-40.99,11.21-62.84,55.37-95.44,94.09-95.11,38.72,.34,49.59,26.84,56.73,53.67,7.13,26.83-4.75,79.82-4.75,79.82Z"/><path class="cls-13" d="M785.8,535.6l-10.44-5.13s0-7.13,9.8-23.29c-.18,4.68-.19,9.52,.04,14.36,.22,4.52,.38,9.27,.6,14.05Z"/><path class="cls-30" d="M793.35,412.18s40.08-44.16,84.57-44.5,78.8,34.31,80.16,86.27c1.36,51.97-8.15,63.52-8.15,63.52,0,0-119.9-21.06-156.58-105.29Z"/><path class="cls-33" d="M793.35,412.18l-20.38,32.27s2.72,21.06,47.89,47.21c45.17,26.15,132.81,43.94,132.81,43.94l7.81-26.62s-147.41-41.78-168.13-96.8Z"/><path class="cls-25" d="M842.68,502.43c.43,25.74-9.76,54.02,2.73,78.73l2.55-22.42s-4.84,22.93,10.44,30.82c15.28,7.9,57.57,11.21,72.6,4.84,15.03-6.37,17.07-60.69,14.78-73.01-2.29-12.32-49.68-28.12-67.76-32.7-18.09-4.59-35.33,13.74-35.33,13.74Z"/><path class="cls-25" d="M818.66,528.93s2.04-15.54,15.54-14.01c13.5,1.53,4.97,27.93,4.97,27.93,0,0,10.82-20.54,11.08-23.09s0-17.32,0-17.32l-15.74-5.6-9.23-6.62s-10.19,9.94-10.44,23.95,0,20.38,0,20.38l2.99-11.08s-.96,4.78,.57,10.89c0,0-.28-2.99,.25-5.41Z"/><path class="cls-25" d="M776.66,639.69c.64-.46,1.29-.87,1.93-1.26l-1.93,1.26Z"/><path class="cls-17" d="M696.32,603.92c-6.88-1.19-10.69-2.53-12.62-4.32-.03-.04-.04-.07-.04-.09,.22,.11,6.24,3.23,12.67,4.41Z"/><path class="cls-25" d="M1025.1,790.63c-24.02,49.19-57.86,93.02-98.39,129.76h-.01c-23.79,21.59-49.85,40.69-77.59,57.04-6.34,3.74-12.78,7.33-19.29,10.75-.01,.01-.02,.01-.03,0-15.76-.86-30.78-2.14-44.79-3.79,.7-1.78,1.38-3.6,2.02-5.45,.43-1.23,.86-2.49,1.26-3.76,.68-2.1,1.31-4.26,1.92-6.44,.49-1.77,.96-3.56,1.4-5.38,.24-1.01,.49-2.04,.73-3.08,.24-1.03,.47-2.07,.7-3.12,.19-.89,.38-1.78,.56-2.68,.16-.77,.31-1.53,.46-2.31,.33-1.7,.66-3.42,.96-5.15,.21-1.24,.42-2.5,.62-3.77,.07-.4,.13-.79,.19-1.19,.14-.9,.28-1.8,.41-2.71,.17-1.1,.32-2.2,.47-3.31,.21-1.5,.41-3.01,.6-4.53,.11-.88,.21-1.76,.31-2.64,.11-.88,.21-1.77,.3-2.66,.1-.9,.2-1.8,.29-2.7,.14-1.34,.28-2.7,.4-4.05,.08-.86,.16-1.71,.23-2.57,.07-.79,.13-1.57,.2-2.36,.09-1.09,.18-2.18,.27-3.27,.16-2.1,.31-4.21,.44-6.33,.14-2.11,.27-4.24,.38-6.38,.09-1.69,.18-3.38,.26-5.07,.01-.18,.02-.34,.02-.51,.03-.6,.06-1.21,.08-1.82,.02-.2,.02-.4,.03-.61,.07-1.61,.13-3.23,.19-4.85,.06-1.42,.1-2.84,.14-4.27,.09-2.84,.17-5.69,.22-8.53,.03-1.42,.07-2.84,.09-4.27,.02-1.21,.04-2.42,.06-3.62,.02-1.41,.04-2.82,.06-4.23,.13-11.4,.12-22.7,.09-33.68-.02-7.89-.04-15.61-.02-23.07,0-1.63,.01-3.26,.01-4.87,0-.98,0-1.94,.01-2.91,.01-1.34,.02-2.68,.03-4,.03-3.87,.09-7.64,.18-11.31,.04-2.02,.1-4.02,.16-5.98,.03-.97,.07-1.92,.11-2.88,.07-1.82,.14-3.62,.23-5.38,.04-.76,.08-1.5,.12-2.24s.09-1.48,.13-2.21c.04-.73,.09-1.46,.14-2.17,.04-.72,.1-1.43,.16-2.13,.06-.79,.12-1.57,.18-2.34,.69-9.1,1.19-17.51,1.52-25.29v-.04c.08-1.89,.16-3.73,.21-5.55,.06-1.38,.09-2.72,.12-4.05,.02-.67,.03-1.32,.04-1.98,.02-.5,.03-1,.03-1.51,.02-.91,.03-1.8,.04-2.69,.03-2.59,.04-5.09,.02-7.52,0-1.51-.02-2.98-.06-4.42-.01-.73-.02-1.44-.04-2.16-.01-.71-.03-1.41-.07-2.11-.02-.76-.04-1.5-.08-2.23-.04-1.03-.09-2.03-.14-3.02-.08-1.58-.18-3.1-.29-4.59-.04-.62-.09-1.23-.14-1.84-.07-.79-.13-1.58-.21-2.34-.06-.56-.11-1.1-.17-1.64s-.11-1.08-.18-1.6c-.06-.53-.11-1.06-.19-1.57-.09-.71-.18-1.4-.27-2.09-.08-.59-.17-1.17-.26-1.73-.98-6.39-2.3-11.75-3.93-16.25-.13-.36-.27-.72-.4-1.07-.33-.87-.68-1.71-1.04-2.51-.18-.39-.34-.77-.53-1.13-.86-1.79-1.78-3.4-2.78-4.85-.19-.28-.37-.56-.57-.81-.19-.27-.38-.52-.58-.78-.17-.22-.33-.43-.51-.64-.17-.21-.34-.42-.52-.62-1.04-1.22-2.16-2.31-3.32-3.28-.42-.34-.84-.68-1.28-.99-.43-.32-.88-.62-1.32-.91-.44-.29-.9-.57-1.37-.82-.47-.27-.93-.51-1.41-.74-1.42-.71-2.92-1.3-4.48-1.8,2.43-1.48,4.82-2.51,7.14-3.07,7.88-1.87,21.04-2.89,36.4-3.36,3.79-.12,7.7-.21,11.71-.27,30.01-.42,64.78,.74,84.42,1.56,9.64,.4,15.64,.71,15.64,.71,52.48,.59,50.19,9.11,60.46,39.78,1.56,4.67,3.4,9.84,5.78,15.58,6.74,16.28,15.98,56.87,24.9,101.3Z"/><path class="cls-25" d="M1025.96,794.92c2.57,12.84,5.1,25.96,7.53,38.85-6.39,10.38-12.94,20.64-19.61,30.82,4.02-23.22,8.05-46.45,12.08-69.67Z"/><path class="cls-25" d="M1054.04,949.77s-.37,.27-1.1,.74c.24-1.07,.47-2.14,.68-3.24,.28,1.63,.42,2.5,.42,2.5Z"/><path class="cls-32" d="M802.61,757.95c-4.59,59.1,6.45,165.77-17.61,226.45-42.71-5-76.08-13.23-93-22.31-31.04-16.64-57.27-82.37-57.27-82.37,11.47-57.07,67.77-102.41,67.77-102.41l4.07,3.06c3.69-35.97,39.82-119.56,70-140.6l.09-.07,1.93-1.26,.07-.04c21.15,6.79,30.83,30.91,23.95,119.55Z"/><path class="cls-25" d="M926.7,920.4c-23.79,21.57-49.85,40.68-77.59,57.03-6.34,3.74-12.78,7.33-19.29,10.75-.01,.01-.02,.01-.03,0-8.51,4.5-17.15,8.74-25.91,12.72-.63,.29-1.27,.58-1.9,.84-17.95,8.08-36.41,15.03-55.2,20.79l11.08-41.95,32.34-11.84,24.64-9.03,5.15-1.81,1.63-.58,23.5-8.25,81.58-28.66Z"/><path class="cls-15" d="M1055.91,795.53h0c-7.17,12.92-14.68,25.65-22.42,38.24-6.39,10.38-12.94,20.64-19.61,30.82,4.02-23.22,8.05-46.45,12.08-69.67v-.02c-.28-1.43-.57-2.84-.86-4.27-24.02,49.19-57.86,93.02-98.39,129.76h-.01c-23.79,21.59-49.85,40.69-77.59,57.04-2.57-5.78-4.02-12.9-4.05-21.66-.01-1.97,.01-4.21,.07-6.7,.47-26.3,3.76-80.01,7.73-130.78,.96-12.17,1.96-24.16,2.97-35.56,.67-7.54,1.33-14.83,2-21.74,.53-5.54,1.07-10.83,1.59-15.82,.06-.46,.1-.88,.14-1.32v-.02c2.31-21.71,4.48-37.42,6.13-41.81,1.81-4.79,6.13-9.62,11.43-14.1,16.19-13.65,37.14-20.33,58.29-19.31,22.56,1.1,42.27,1.3,59.01,5.15,14.65,3.39,27.02,9.57,37.04,21.6,12.9,15.5,20.52,57.37,24.44,100.18Z"/><path class="cls-11" d="M712.94,583.19s-.57,19.15-8.92,20.89c-2.14,.44-4.53,.37-6.9-.01-.28-.04-.53-.09-.8-.14-6.88-1.19-10.69-2.53-12.62-4.32-1.2-1.09-1.69-2.37-1.76-3.89-.17-4.12-5.1-7.77-6.11,0-1.02,7.77-15.46,4.47-15.63-.97-.17-5.43,.51-28.2,3.06-31.93,2.56-3.73,10.53-2.38,22.33-1.04l-.93,.53s17.84,7.13,22.93,9.68c5.1,2.56,5.35,11.21,5.35,11.21Z"/><path class="cls-26" d="M661.44,572.04l-.88,10.34-5.43-.2-41.19-1.53c-.91-3.68-1.48-7.67-1.63-11.87l44.68,2.96,4.45,.3Z"/><g><path class="cls-18" d="M357.8,816.05c-.85-12.57,2.89-24.96,16.13-26.32s18-1.36,25.98,1.02c7.98,2.38,9.17,27.68,6.45,30.4-2.72,2.72-35.83,1.02-48.57-5.09Z"/><g class="cls-27"><path class="cls-3" d="M382.05,822.06c.13-6.62-.38-10.83,2.61-14.33,2.99-3.5,16.24-5.03,21.21-4.78,4.97,.25,5.8,20.51,5.8,20.51"/><path class="cls-5" d="M368.23,789.07s5.48-.32,7.39,6.11c1.91,6.43-.96,28.21-.96,28.21l-17.77-1-5.35-25.18,4.97-14.58,11.72,6.43Z"/></g></g><path class="cls-21" d="M268.49,423.98l158.45-12.95c2.6-.21,4.83,1.84,4.83,4.45v86.75c0,2.26-1.69,4.17-3.94,4.43l-158.45,18.63c-2.65,.31-4.99-1.76-4.99-4.43v-92.43c0-2.32,1.78-4.26,4.1-4.45Z"/><ellipse class="cls-15" cx="308.46" cy="468.18" rx="26.83" ry="24.96" transform="translate(-174 753.78) rotate(-87.25)"/><path class="cls-15" d="M396.41,445.19l-50.18,4.21c-1.06,.09-1.91-.7-1.91-1.75h0c0-1.06,.86-1.98,1.91-2.07l50.18-4.21c1.06-.09,1.91,.7,1.91,1.75h0c0,1.06-.86,1.98-1.91,2.07Z"/><path class="cls-15" d="M396.41,462.01l-50.18,4.21c-1.06,.09-1.91-.7-1.91-1.75h0c0-1.06,.86-1.98,1.91-2.07l50.18-4.21c1.06-.09,1.91,.7,1.91,1.75h0c0,1.06-.86,1.98-1.91,2.07Z"/><path class="cls-15" d="M396.41,478.82l-50.18,4.21c-1.06,.09-1.91-.7-1.91-1.75h0c0-1.06,.86-1.98,1.91-2.07l50.18-4.21c1.06-.09,1.91,.7,1.91,1.75h0c0,1.06-.86,1.98-1.91,2.07Z"/><path class="cls-18" d="M323.16,754.14c.06-.17,.11-.35,.11-.52,0-4.64-22.92-8.41-51.2-8.41s-51.2,3.76-51.2,8.41c0,.18,.04,.35,.11,.52,0,.07-.03,.14-.03,.2,0,.18,.04,.35,.11,.52,0,.07-.03,.14-.03,.2,0,.18,.04,.35,.11,.52-.01,.07-.03,.14-.03,.21,0,.18,.04,.35,.11,.52-.01,.07-.03,.14-.03,.21,0,.18,.04,.35,.11,.52-.01,.07-.03,.14-.03,.21,0,.18,.04,.35,.11,.52-.01,.07-.03,.14-.03,.21,0,.17,.04,.35,.11,.52-.01,.07-.03,.14-.03,.21,0,.17,.04,.35,.11,.52-.01,.07-.03,.14-.03,.21,0,.17,.04,.35,.11,.52-.01,.07-.03,.14-.03,.21,0,.17,.04,.35,.11,.52-.01,.07-.03,.14-.03,.21,0,.17,.04,.35,.11,.52-.01,.07-.03,.14-.03,.21,0,.17,.04,.35,.11,.52-.01,.07-.03,.14-.03,.21,0,.17,.04,.35,.11,.52-.01,.07-.03,.14-.03,.21,0,.17,.04,.35,.11,.52-.01,.07-.03,.14-.03,.21,0,.17,.04,.35,.11,.52-.01,.07-.03,.14-.03,.21,0,.17,.04,.35,.11,.52-.01,.07-.03,.14-.03,.21,0,.17,.04,.35,.11,.52-.01,.07-.03,.14-.03,.21,0,.17,.04,.35,.11,.52-.01,.07-.03,.14-.03,.21,0,.17,.04,.35,.11,.52-.01,.07-.03,.14-.03,.21,0,.17,.04,.35,.11,.52-.01,.07-.03,.14-.03,.21,0,.17,.04,.34,.11,.52-.01,.07-.03,.14-.03,.21,0,.17,.04,.34,.11,.52-.01,.07-.03,.14-.03,.21,0,.17,.04,.34,.11,.51-.01,.07-.03,.14-.03,.21,0,.17,.04,.34,.11,.51-.01,.07-.03,.14-.03,.21,0,.17,.04,.34,.11,.51-.01,.07-.03,.14-.03,.21,0,.17,.04,.34,.11,.51-.01,.07-.03,.14-.03,.21,0,.17,.04,.34,.11,.51-.01,.07-.03,.14-.03,.21,0,.17,.04,.34,.11,.51-.01,.07-.03,.14-.03,.21,0,.17,.04,.34,.11,.51-.01,.07-.03,.14-.03,.21,0,.17,.04,.34,.11,.51-.01,.07-.03,.14-.03,.21,0,.17,.04,.34,.11,.51-.01,.07-.03,.14-.03,.21,0,.17,.04,.34,.11,.51-.01,.07-.03,.14-.03,.21,0,.17,.04,.34,.11,.51-.01,.07-.03,.14-.03,.21,0,.17,.04,.34,.11,.51-.01,.07-.03,.14-.03,.22,0,.17,.04,.34,.11,.51-.01,.07-.03,.14-.03,.22,0,.17,.04,.34,.11,.51-.01,.07-.03,.14-.03,.22,0,.17,.04,.34,.11,.51-.01,.07-.03,.14-.03,.22,0,.17,.04,.34,.11,.51-.01,.07-.03,.14-.03,.22,0,.17,.04,.34,.11,.51-.01,.07-.03,.14-.03,.22,0,.17,.04,.34,.11,.51-.01,.07-.03,.14-.03,.22,0,.17,.04,.34,.11,.51-.01,.07-.03,.14-.03,.22,0,.17,.04,.34,.11,.51-.01,.07-.03,.14-.03,.22,0,.17,.04,.34,.11,.51-.01,.07-.03,.14-.03,.22,0,.17,.04,.34,.11,.51-.01,.07-.03,.15-.03,.22,0,.17,.04,.34,.11,.51-.01,.07-.03,.15-.03,.22,0,.17,.04,.34,.11,.51-.01,.07-.03,.15-.03,.22,0,.17,.04,.34,.11,.51-.01,.07-.03,.15-.03,.22,0,.17,.04,.34,.11,.51-.01,.07-.03,.15-.03,.22,0,.17,.05,.34,.11,.51-.01,.07-.03,.15-.03,.22,0,.17,.04,.34,.11,.51-.01,.07-.03,.15-.03,.22,0,.17,.05,.34,.11,.51-.01,.07-.03,.15-.03,.22,0,.17,.05,.34,.11,.51-.01,.07-.03,.15-.03,.22,0,.17,.05,.34,.11,.51-.01,.07-.03,.15-.03,.22,0,.17,.05,.34,.11,.5-.01,.07-.03,.15-.03,.22,0,.17,.05,.34,.11,.5-.01,.07-.03,.15-.03,.22,0,.17,.05,.34,.11,.5-.01,.07-.03,.15-.03,.22,0,.17,.05,.34,.11,.5-.01,.07-.03,.15-.03,.22,0,.17,.05,.34,.11,.5-.01,.07-.03,.15-.03,.22,0,.17,.05,.34,.11,.5-.01,.07-.03,.15-.03,.22,0,.17,.05,.34,.11,.5-.01,.07-.03,.15-.03,.22,0,.17,.05,.34,.11,.5-.01,.07-.03,.15-.03,.22,0,.17,.05,.34,.11,.5-.01,.07-.03,.15-.03,.22,0,.17,.05,.34,.11,.5-.01,.07-.03,.15-.03,.22,0,.17,.05,.34,.11,.5-.01,.07-.03,.15-.03,.22,0,.17,.05,.34,.11,.5-.01,.07-.03,.15-.03,.23,0,.17,.05,.34,.11,.5-.01,.08-.03,.15-.03,.23,0,.17,.05,.34,.11,.5-.01,.08-.03,.15-.03,.23,0,.17,.05,.33,.11,.5-.01,.08-.03,.15-.03,.23,0,.17,.05,.33,.11,.5-.01,.08-.03,.15-.03,.23,0,.17,.05,.33,.11,.5-.01,.08-.03,.15-.03,.23,0,.17,.05,.33,.11,.5-.01,.08-.03,.15-.03,.23,0,.17,.05,.33,.11,.5-.01,.08-.03,.15-.03,.23,0,.17,.05,.33,.11,.5-.01,.08-.04,.15-.04,.23,0,.17,.05,.33,.11,.5-.01,.08-.04,.15-.04,.23,0,.17,.05,.33,.11,.5-.01,.08-.04,.15-.04,.23,0,.17,.05,.33,.11,.5-.01,.08-.04,.15-.04,.23,0,.17,.05,.33,.11,.5-.01,.08-.04,.15-.04,.23,0,.17,.05,.33,.11,.5-.01,.08-.04,.15-.04,.23,0,.17,.05,.33,.11,.5-.01,.08-.04,.15-.04,.23,0,.17,.05,.33,.11,.5-.01,.08-.04,.15-.04,.23,0,.17,.05,.33,.11,.5-.01,.08-.04,.15-.04,.23,0,.17,.05,.33,.11,.5-.01,.08-.04,.15-.04,.23,0,.17,.05,.33,.11,.5-.01,.08-.04,.15-.04,.23,0,.17,.05,.33,.11,.5-.01,.08-.04,.15-.04,.23,0,.17,.05,.33,.11,.49-.01,.08-.04,.15-.04,.23,0,.17,.05,.33,.11,.49-.01,.08-.04,.15-.04,.23,0,.17,.05,.33,.11,.49-.01,.08-.04,.15-.04,.23,0,.17,.05,.33,.11,.49-.01,.08-.04,.15-.04,.23,0,.17,.05,.33,.11,.49-.01,.08-.04,.15-.04,.23,0,.17,.05,.33,.11,.49-.01,.08-.04,.16-.04,.23,0,.17,.05,.33,.11,.49-.01,.08-.04,.16-.04,.23,0,.17,.05,.33,.11,.49-.02,.08-.04,.16-.04,.23,0,.17,.05,.33,.11,.49-.02,.08-.04,.16-.04,.23,0,.17,.05,.33,.11,.49-.02,.08-.04,.16-.04,.23,0,.17,.05,.33,.11,.49-.02,.08-.04,.16-.04,.23,0,.17,.05,.33,.11,.49-.02,.08-.04,.16-.04,.24,0,.17,.05,.33,.11,.49-.02,.08-.04,.16-.04,.24,0,.17,.05,.33,.11,.49-.02,.08-.04,.16-.04,.24,0,.16,.05,.33,.11,.49-.02,.08-.04,.16-.04,.24,0,.16,.05,.33,.11,.49-.02,.08-.04,.16-.04,.24,0,.16,.05,.33,.11,.49-.02,.08-.04,.16-.04,.24,0,3.94,19.46,7.14,43.47,7.14s43.47-3.2,43.47-7.14c0-.08-.02-.16-.04-.24,.07-.16,.11-.32,.11-.49,0-.08-.02-.16-.04-.24,.07-.16,.11-.33,.11-.49,0-.08-.02-.16-.04-.24,.07-.16,.11-.33,.11-.49,0-.08-.02-.16-.04-.24,.07-.16,.11-.33,.11-.49,0-.08-.02-.16-.04-.24,.07-.16,.11-.33,.11-.49,0-.08-.02-.16-.04-.24,.07-.16,.11-.33,.11-.49,0-.08-.02-.16-.04-.23,.07-.16,.11-.33,.11-.49,0-.08-.02-.16-.04-.23,.07-.16,.11-.33,.11-.49,0-.08-.02-.16-.04-.23,.07-.16,.11-.33,.11-.49,0-.08-.02-.16-.04-.23,.07-.16,.11-.33,.11-.49,0-.08-.02-.16-.04-.23,.07-.16,.11-.33,.11-.49,0-.08-.02-.16-.04-.23,.07-.16,.11-.33,.11-.49,0-.08-.02-.16-.04-.23,.07-.16,.11-.33,.11-.49,0-.08-.02-.16-.04-.23,.07-.16,.11-.33,.11-.49,0-.08-.02-.15-.04-.23,.07-.16,.11-.33,.11-.49,0-.08-.02-.15-.04-.23,.07-.16,.11-.33,.11-.49,0-.08-.02-.15-.04-.23,.07-.16,.11-.33,.11-.49,0-.08-.02-.15-.04-.23,.07-.16,.11-.33,.11-.5,0-.08-.02-.15-.04-.23,.07-.16,.11-.33,.11-.5,0-.08-.02-.15-.04-.23,.07-.16,.11-.33,.11-.5,0-.08-.02-.15-.04-.23,.07-.16,.11-.33,.11-.5,0-.08-.02-.15-.04-.23,.07-.16,.11-.33,.11-.5,0-.08-.02-.15-.04-.23,.07-.16,.11-.33,.11-.5,0-.08-.02-.15-.04-.23,.07-.16,.11-.33,.11-.5,0-.08-.02-.15-.04-.23,.07-.16,.11-.33,.11-.5,0-.08-.02-.15-.04-.23,.07-.16,.11-.33,.11-.5,0-.08-.02-.15-.04-.23,.07-.16,.11-.33,.11-.5,0-.08-.02-.15-.04-.23,.07-.16,.11-.33,.11-.5,0-.08-.02-.15-.04-.23,.07-.17,.11-.33,.11-.5,0-.08-.02-.15-.04-.23,.07-.17,.11-.33,.11-.5,0-.08-.02-.15-.03-.23,.07-.17,.11-.33,.11-.5,0-.08-.02-.15-.03-.23,.07-.17,.11-.33,.11-.5,0-.08-.02-.15-.03-.23,.07-.17,.11-.33,.11-.5,0-.08-.02-.15-.03-.23,.07-.17,.11-.33,.11-.5,0-.08-.02-.15-.03-.23,.07-.17,.11-.33,.11-.5,0-.08-.02-.15-.03-.23,.07-.17,.11-.33,.11-.5,0-.08-.02-.15-.03-.23,.07-.17,.11-.33,.11-.5,0-.08-.02-.15-.03-.22,.07-.17,.11-.33,.11-.5,0-.08-.02-.15-.03-.22,.07-.17,.11-.33,.11-.5,0-.08-.02-.15-.03-.22,.07-.17,.11-.33,.11-.5,0-.08-.02-.15-.03-.22,.07-.17,.11-.33,.11-.5,0-.07-.02-.15-.03-.22,.07-.17,.11-.33,.11-.5,0-.07-.02-.15-.03-.22,.07-.17,.11-.33,.11-.5,0-.07-.02-.15-.03-.22,.07-.17,.11-.33,.11-.5,0-.07-.02-.15-.03-.22,.07-.17,.11-.33,.11-.5,0-.07-.02-.15-.03-.22,.07-.17,.11-.33,.11-.5,0-.07-.02-.15-.03-.22,.07-.17,.11-.33,.11-.5,0-.07-.02-.15-.03-.22,.07-.17,.11-.33,.11-.5,0-.07-.02-.15-.03-.22,.07-.17,.11-.34,.11-.51,0-.07-.02-.15-.03-.22,.07-.17,.11-.34,.11-.51,0-.07-.02-.15-.03-.22,.07-.17,.11-.34,.11-.51,0-.07-.02-.15-.03-.22,.07-.17,.11-.34,.11-.51,0-.07-.02-.15-.03-.22,.07-.17,.11-.34,.11-.51,0-.07-.02-.15-.03-.22,.07-.17,.11-.34,.11-.51,0-.07-.02-.15-.03-.22,.07-.17,.11-.34,.11-.51,0-.07-.02-.15-.03-.22,.07-.17,.11-.34,.11-.51,0-.07-.02-.15-.03-.22,.07-.17,.11-.34,.11-.51,0-.07-.02-.15-.03-.22,.07-.17,.11-.34,.11-.51,0-.07-.02-.15-.03-.22,.07-.17,.11-.34,.11-.51,0-.07-.02-.15-.03-.22,.07-.17,.11-.34,.11-.51,0-.07-.02-.14-.03-.22,.07-.17,.11-.34,.11-.51,0-.07-.02-.14-.03-.22,.07-.17,.11-.34,.11-.51,0-.07-.02-.14-.03-.22,.07-.17,.11-.34,.11-.51,0-.07-.02-.14-.03-.22,.07-.17,.11-.34,.11-.51,0-.07-.02-.14-.03-.22,.07-.17,.11-.34,.11-.51,0-.07-.02-.14-.03-.22,.07-.17,.11-.34,.11-.51,0-.07-.02-.14-.03-.22,.07-.17,.11-.34,.11-.51,0-.07-.02-.14-.03-.21,.07-.17,.11-.34,.11-.51,0-.07-.02-.14-.03-.21,.07-.17,.11-.34,.11-.51,0-.07-.02-.14-.03-.21,.07-.17,.11-.34,.11-.51,0-.07-.02-.14-.03-.21,.07-.17,.11-.34,.11-.51,0-.07-.02-.14-.03-.21,.07-.17,.11-.34,.11-.51,0-.07-.02-.14-.03-.21,.07-.17,.11-.34,.11-.51,0-.07-.02-.14-.03-.21,.07-.17,.11-.34,.11-.51,0-.07-.02-.14-.03-.21,.07-.17,.11-.34,.11-.51,0-.07-.02-.14-.03-.21,.07-.17,.11-.34,.11-.51,0-.07-.02-.14-.03-.21,.06-.17,.11-.34,.11-.51,0-.07-.02-.14-.03-.21,.06-.17,.11-.34,.11-.51,0-.07-.02-.14-.03-.21,.06-.17,.11-.34,.11-.51,0-.07-.02-.14-.03-.21,.06-.17,.11-.34,.11-.52,0-.07-.02-.14-.03-.21,.06-.17,.11-.34,.11-.52,0-.07-.02-.14-.03-.21,.06-.17,.11-.34,.11-.52,0-.07-.02-.14-.03-.21,.06-.17,.11-.34,.11-.52,0-.07-.02-.14-.03-.21,.06-.17,.11-.34,.11-.52,0-.07-.02-.14-.03-.21,.06-.17,.11-.34,.11-.52,0-.07-.02-.14-.03-.21,.06-.17,.11-.34,.11-.52,0-.07-.02-.14-.03-.21,.06-.17,.11-.34,.11-.52,0-.07-.02-.14-.03-.21,.06-.17,.11-.34,.11-.52,0-.07-.02-.14-.03-.21,.06-.17,.11-.34,.11-.52,0-.07-.02-.14-.03-.21,.06-.17,.11-.34,.11-.52,0-.07-.02-.14-.03-.21,.06-.17,.11-.34,.11-.52,0-.07-.02-.14-.03-.21,.06-.17,.11-.34,.11-.52,0-.07-.02-.14-.03-.21,.06-.17,.11-.34,.11-.52,0-.07-.02-.14-.03-.21,.06-.17,.11-.35,.11-.52,0-.07-.02-.14-.03-.21,.06-.17,.11-.35,.11-.52,0-.07-.02-.14-.03-.21,.06-.17,.11-.35,.11-.52,0-.07-.02-.14-.03-.21,.06-.17,.11-.35,.11-.52,0-.07-.02-.14-.03-.21,.06-.17,.11-.35,.11-.52,0-.07-.02-.14-.03-.2,.06-.17,.11-.35,.11-.52,0-.07-.02-.14-.03-.2,.06-.17,.11-.35,.11-.52,0-.07-.02-.14-.03-.2Z"/><ellipse class="cls-5" cx="272.06" cy="753.62" rx="51.2" ry="8.41"/><path class="cls-5" d="M272.06,758.69c-20.09,0-35.38-1.92-43.01-3.93-1.19-.31-1.19-1.98,0-2.29,7.63-2,22.92-3.93,43.01-3.93s35.38,1.92,43.01,3.93c1.19,.31,1.19,1.98,0,2.29-7.63,2-22.91,3.93-43.01,3.93Z"/><path class="cls-24" d="M249.29,758.85s-2.02-41.66-2.02-63.57,11.46-26.49,20.89-26.49,17.32,6.11,17.32,25.22v67.26h-15.79l-11.34-1.41-9.06-1.01Z"/><path class="cls-24" d="M284.55,715.03h8.32v-22.13c0-4.42,13.25-6.03,13.25,.59v22.54c0,4.84,.51,8.92-7.77,8.92h-15.16l1.36-9.93Z"/><polygon class="cls-6" points="457.43 603.08 279.62 624.04 279.62 538.67 457.43 517.71 457.43 603.08"/><polygon class="cls-6" points="531.82 534.17 468.64 539.83 468.64 515.13 531.82 509.47 531.82 534.17"/><polygon class="cls-6" points="531.82 569.93 468.64 575.59 468.64 550.89 531.82 545.23 531.82 569.93"/><polygon class="cls-6" points="531.82 605.69 468.64 611.35 468.64 586.65 531.82 580.99 531.82 605.69"/><path class="cls-2" d="M188.77,647.89c-1.04,.11-2.67,.34-4.75,.67-1.01,.17-2.13,.34-3.37,.56-27.29,4.58-103.93,19.68-103.93,19.68v-58.59l49.55-7.48v-31.85c0-1.87,.51-3.22,1.38-4.15,4.13-4.52,16.43,.56,19.58,4.61,6.02,7.73,7.08,18.76,9.28,28.01l17.93-1.97,10.94-1.2c15.29-.78,16.3,50.37,3.4,51.73Z"/><path class="cls-6" d="M147.22,571.33c6.02,7.73,7.08,18.76,9.28,28.01h-10.11s-4.83-26.83-18.74-32.62c4.13-4.52,16.43,.56,19.58,4.61Z"/><path class="cls-2" d="M163.88,652.09c-4.41-6.26-5.65-30.17-5.65-33.48s2.04-5.09,2.04-5.09c-6.62,0-7.39-14.17-3.78-14.17"/><path class="cls-6" d="M188.77,647.89c-1.04,.11-2.67,.34-4.75,.67,1.7-8.05,4.19-22.47,2.54-31.7-2.38-13.36-7.64-14.82-12.13-19.5l10.94-1.2c15.29-.78,16.3,50.37,3.4,51.73Z"/><path class="cls-14" d="M830.34,919.67c-1.92,12.6-4.88,25.26-8.71,37.65-4.67,15.14-10.67,29.88-17.74,43.58-.63,.29-1.27,.58-1.9,.84,6.55-12.7,12.89-27.53,18.01-43.85,15.84-50.34,20.31-114.77-14.9-173.95l.96-.57c23.5,39.48,31.9,86.61,24.29,136.29Z"/><circle class="cls-14" cx="800.88" cy="779.97" r="7.47"/><circle class="cls-14" cx="699.44" cy="265.78" r="66.94"/><rect class="cls-24" x="242.43" y="709.55" width="9.68" height="4.84" rx="2.39" ry="2.39"/><rect class="cls-24" x="242.43" y="697.4" width="9.68" height="4.84" rx="2.39" ry="2.39"/><rect class="cls-24" x="242.43" y="730.1" width="9.68" height="4.84" rx="2.39" ry="2.39"/><rect class="cls-24" x="242.43" y="718.97" width="9.68" height="4.84" rx="2.39" ry="2.39"/><rect class="cls-24" x="242.43" y="744.28" width="9.68" height="4.84" rx="2.39" ry="2.39"/><rect class="cls-24" x="242.43" y="685.26" width="9.68" height="4.84" rx="2.39" ry="2.39"/><rect class="cls-24" x="279.62" y="685.26" width="9.68" height="4.84" rx="2.39" ry="2.39"/><rect class="cls-24" x="279.62" y="694.2" width="9.68" height="4.84" rx="2.39" ry="2.39"/><rect class="cls-23" x="252.75" y="697.11" width="5.52" height="3.87" rx="1.94" ry="1.94"/><rect class="cls-23" x="252.75" y="709.55" width="5.52" height="3.87" rx="1.94" ry="1.94"/><rect class="cls-23" x="252.75" y="721.99" width="5.52" height="3.87" rx="1.94" ry="1.94"/><rect class="cls-23" x="252.75" y="734.43" width="5.52" height="3.87" rx="1.94" ry="1.94"/><rect class="cls-23" x="252.75" y="746.87" width="5.52" height="3.87" rx="1.94" ry="1.94"/><rect class="cls-23" x="252.75" y="685.74" width="5.52" height="3.87" rx="1.94" ry="1.94"/><rect class="cls-23" x="266.18" y="697.11" width="5.52" height="3.87" rx="1.94" ry="1.94"/><rect class="cls-23" x="266.18" y="709.55" width="5.52" height="3.87" rx="1.94" ry="1.94"/><rect class="cls-23" x="266.18" y="721.99" width="5.52" height="3.87" rx="1.94" ry="1.94"/><rect class="cls-23" x="266.18" y="734.43" width="5.52" height="3.87" rx="1.94" ry="1.94"/><rect class="cls-23" x="266.18" y="746.87" width="5.52" height="3.87" rx="1.94" ry="1.94"/><rect class="cls-23" x="266.18" y="685.74" width="5.52" height="3.87" rx="1.94" ry="1.94"/><rect class="cls-23" x="279.62" y="697.11" width="5.52" height="3.87" rx="1.94" ry="1.94"/><rect class="cls-23" x="279.62" y="709.55" width="5.52" height="3.87" rx="1.94" ry="1.94"/><rect class="cls-23" x="279.62" y="721.99" width="5.52" height="3.87" rx="1.94" ry="1.94"/><rect class="cls-23" x="279.62" y="734.43" width="5.52" height="3.87" rx="1.94" ry="1.94"/><rect class="cls-23" x="279.62" y="746.87" width="5.52" height="3.87" rx="1.94" ry="1.94"/><rect class="cls-23" x="279.62" y="685.74" width="5.52" height="3.87" rx="1.94" ry="1.94"/><rect class="cls-24" x="279.62" y="703.15" width="9.68" height="4.84" rx="2.39" ry="2.39"/><rect class="cls-24" x="279.62" y="712.09" width="9.68" height="4.84" rx="2.39" ry="2.39"/><rect class="cls-24" x="279.62" y="729.98" width="9.68" height="4.84" rx="2.39" ry="2.39"/><rect class="cls-24" x="279.62" y="738.92" width="9.68" height="4.84" rx="2.39" ry="2.39"/><rect class="cls-24" x="279.62" y="747.86" width="9.68" height="4.84" rx="2.39" ry="2.39"/><g><g><rect class="cls-14" x="935.55" y="323.12" width="125.16" height="25.26" rx="12.63" ry="12.63" transform="translate(-54.03 379.94) rotate(-21)"/><rect class="cls-14" x="985.5" y="273.17" width="25.26" height="125.16" rx="12.63" ry="12.63" transform="translate(-54.03 379.94) rotate(-21)"/></g><g><rect class="cls-14" x="306.84" y="346.22" width="26.88" height="5.43" rx="2.71" ry="2.71" transform="translate(-90.09 585.44) rotate(-77.41)"/><rect class="cls-14" x="317.57" y="335.49" width="5.43" height="26.88" rx="2.71" ry="2.71" transform="translate(-90.08 585.44) rotate(-77.41)"/></g><circle class="cls-14" cx="485.99" cy="697.11" r="9.29"/><circle class="cls-14" cx="799.98" cy="329.22" r="8.6"/></g><g><rect class="cls-15" x="461.08" y="941.82" width="14.83" height="73.47" rx="7.41" ry="7.41" transform="translate(-520.26 1425.12) rotate(-88.72)"/><rect class="cls-15" x="431.76" y="971.14" width="73.47" height="14.83" rx="7.41" ry="7.41" transform="translate(-520.26 1425.13) rotate(-88.72)"/></g></g><circle class="cls-15" cx="312.43" cy="214.34" r="27.09"/><polygon class="cls-10" points="312.43 197.03 316.42 209.3 329.33 209.3 318.89 216.89 322.87 229.16 312.43 221.58 301.99 229.16 305.98 216.89 295.54 209.3 308.45 209.3 312.43 197.03"/></g></svg>